<?xml version="1.0" encoding="utf-8"?>
<!-- Generator: Adobe Illustrator 26.0.3, SVG Export Plug-In . SVG Version: 6.00 Build 0)  -->
<svg version="1.1" id="Layer_1" xmlns="http://www.w3.org/2000/svg" xmlns:xlink="http://www.w3.org/1999/xlink" x="0px" y="0px"
	 width="495.3px" height="616px" viewBox="0 0 495.3 616" style="enable-background:new 0 0 495.3 616;" xml:space="preserve">
<style type="text/css">
	.st0{fill:#FF6200;}
	.st1{fill:#FF7D00;}
	.st2{fill:#FFB300;}
	.st3{fill:#FFCE00;}
	.st4{fill:#FF9800;}
	.st5{fill:#BF4A00;}
	.st6{fill:#803100;}
</style>
<g>
	<path class="st0" d="M490.6,163.2l-5-3.9l-36.8-31.6l-8.4-33.5l-27-13L432,42.4L380.3,67L365,64L338.6,0l-71.4,119.1l-32.8,81.9
		l-14.6,12.5l-27.1,14.9l-29.2,1.2l10.1-32.7l-26.3-41.3l-37.3,7.5l-30.1,36.6l-4.5,12.3v27.3l-36,27.9l-21.5,64.2l-7.8,69l-10,42
		l2.8,17.3v56l5,25.3l39.4-9l-22.7-22.6l5.8-56.5l11.5-13.4l32.4-46.5l13.6-28.5l14.9,8.4l17.7-10.8l8.2,37.6l-9.7,27.9l7.1,51.6
		l1.2,12.4l19.5,17.9l28.1-7.1l-6.4-12.1l-19.1-4.5l-4.8-47.3l30.3-22.9l8.2-22.7h7.1l14.5,81.6l-6.9,30.9l13.4,79.3l17.3,31.3
		l51.8-12.8L240.4,567l0,0l-3.8-35v0l30.6-131.6l12.9-2.1l15.3,57.5l-9.6,35.5l20.1,69.6l39.3,19.1l20.3-16.7l-31.1-38.8l6.3-108.8
		L368,362l20.8-110.9l24.5-40.2l38.7-4.2l43.2-31.3L490.6,163.2z M108.8,231.7l24.5-36l3.9,0.3l21.6,33.7L108.8,231.7z"/>
</g>
<g>
	<polygon class="st1" points="315.9,69.2 359.1,157 292.8,159.3 	"/>
	<g>
		<polygon class="st2" points="315.9,69.2 394,77.8 359.1,157 		"/>
	</g>
	<g>
		<polygon class="st3" points="394,77.8 424.7,120.9 359.1,157 		"/>
	</g>
	<g>
		<polygon class="st4" points="315.9,69.2 365,64 394,77.8 		"/>
	</g>
	<g>
		<polygon class="st2" points="394,77.8 440.4,94.1 448.7,127.6 424.7,120.9 		"/>
	</g>
	<polygon class="st3" points="448.7,127.6 485.6,159.3 424.7,120.9 	"/>
	<g>
		<polygon class="st1" points="424.7,120.9 459.9,167.3 490.6,163.2 485.6,159.3 		"/>
	</g>
	<g>
		<polygon class="st4" points="359.1,157 424.7,120.9 459.9,167.3 		"/>
	</g>
	<g>
		<polygon class="st4" points="459.9,167.3 452.1,206.7 490.6,163.2 		"/>
	</g>
	<g>
		<polygon class="st2" points="490.6,163.2 495.3,175.4 452.1,206.7 		"/>
	</g>
	<g>
		<polygon class="st1" points="452.1,206.7 359.1,157 459.9,167.3 		"/>
	</g>
	<g>
		<polygon class="st0" points="452.1,206.7 404.5,211.9 359.1,157 		"/>
	</g>
	<g>
		<polygon class="st4" points="292.8,159.3 267.2,119.1 315.9,69.2 		"/>
	</g>
	<g>
		<polygon class="st1" points="267.2,119.1 338.6,0 365,64 315.9,69.2 		"/>
	</g>
	<g>
		<polygon class="st3" points="365,64 380.3,67 409.5,79.3 440.4,94.1 394,77.8 		"/>
	</g>
	<g>
		<polygon class="st0" points="380.3,67 432,42.4 409.5,79.3 		"/>
	</g>
	<g>
		<polygon class="st2" points="432,42.4 413.4,81.1 409.5,79.3 		"/>
	</g>
	<g>
		<polygon class="st1" points="267.2,119.1 257.1,230.7 292.8,159.3 		"/>
	</g>
	<g>
		<polygon class="st4" points="257.1,230.7 313.3,244.8 359.1,157 292.8,159.3 		"/>
	</g>
	<g>
		<polygon class="st0" points="257.1,230.7 234.3,200.9 267.2,119.1 		"/>
	</g>
	<g>
		<polygon class="st1" points="313.3,244.8 359.1,157 404.5,211.9 		"/>
	</g>
	<g>
		<polygon class="st4" points="313.3,244.8 369.9,261.2 404.5,211.9 		"/>
	</g>
	<g>
		<polygon class="st2" points="369.9,261.2 388.8,251.2 413.3,210.9 404.5,211.9 		"/>
	</g>
	<g>
		<polygon class="st4" points="388.8,251.2 365.4,323.7 369.9,261.2 		"/>
	</g>
	<g>
		<polygon class="st2" points="365.4,323.7 284.3,355.3 313.3,244.8 369.9,261.2 		"/>
	</g>
	<g>
		<polygon class="st3" points="365.4,323.7 368,362 388.8,251.2 		"/>
	</g>
	<g>
		<polygon class="st4" points="284.3,355.3 322.2,383.6 365.4,323.7 		"/>
	</g>
	<g>
		<polygon class="st2" points="322.2,383.6 365.4,323.7 368,362 		"/>
	</g>
	<g>
		<polygon class="st2" points="257.1,230.7 203.9,318.9 244.1,349.4 313.3,244.8 		"/>
	</g>
	<g>
		<polygon class="st4" points="244.1,349.4 313.3,244.8 284.3,355.3 		"/>
	</g>
	<g>
		<polygon class="st1" points="244.1,349.4 211,445.4 284.3,355.3 		"/>
	</g>
	<g>
		<polygon class="st4" points="203.9,318.9 244.1,349.4 211,445.4 		"/>
	</g>
	<polyline class="st4" points="266,377.9 284.3,355.3 250.7,415.6 211,445.4 266,377.9 	"/>
	<g>
		<polygon class="st0" points="250.7,415.6 267.2,400.4 284.3,355.3 		"/>
	</g>
	<g>
		<polygon class="st1" points="267.2,400.4 284.3,355.3 322.2,383.6 		"/>
	</g>
	<g>
		<polygon class="st0" points="368,362 322.2,383.6 267.2,400.4 313.3,392.9 		"/>
	</g>
	<g>
		<polygon class="st1" points="368,362 322.2,439.4 313.3,392.9 		"/>
	</g>
	<g>
		<polygon class="st2" points="322.2,439.4 340.7,415.6 368,362 		"/>
	</g>
	<g>
		<polygon class="st0" points="313.3,392.9 301.8,480 322.2,439.4 		"/>
	</g>
	<g>
		<polygon class="st5" points="313.3,392.9 280,398.3 301.8,480 		"/>
	</g>
	<g>
		<polygon class="st1" points="203.9,318.9 168.3,257.7 234.3,200.9 257.1,230.7 		"/>
	</g>
	<g>
		<polygon class="st2" points="168.3,257.7 137,252.1 180,235.3 219.7,213.5 		"/>
	</g>
	<g>
		<polygon class="st4" points="192.7,228.4 180,235.3 130.9,240.9 101.9,232 		"/>
	</g>
	<g>
		<polygon class="st1" points="130.9,240.9 77.6,237.6 101.9,232 		"/>
	</g>
	<g>
		<polygon class="st4" points="147.3,196.8 173.6,196.8 163.5,229.5 158.8,229.7 		"/>
	</g>
	<g>
		<polygon class="st5" points="147.3,196.8 137,195.7 158.8,229.7 		"/>
	</g>
	<g>
		<polygon class="st1" points="147.3,196.8 135.1,163.1 173.6,196.8 		"/>
	</g>
	<g>
		<polygon class="st2" points="135.1,163.1 147.3,155.5 173.6,196.8 		"/>
	</g>
	<g>
		<polygon class="st3" points="110,163.1 147.3,155.5 135.1,163.1 		"/>
	</g>
	<g>
		<polygon class="st4" points="110,163.1 79.8,199.6 135.1,163.1 		"/>
	</g>
	<g>
		<polygon class="st1" points="79.8,199.6 108.8,193.8 135.1,163.1 		"/>
	</g>
	<g>
		<polygon class="st4" points="108.8,193.8 135.1,163.1 147.3,196.8 		"/>
	</g>
	<g>
		<polygon class="st0" points="108.8,193.8 101.9,232 108.8,231.7 133.3,195.7 		"/>
	</g>
	<g>
		<polygon class="st4" points="79.8,199.6 101.9,232 108.8,193.8 		"/>
	</g>
	<g>
		<polygon class="st2" points="79.8,199.6 77.6,237.6 101.9,232 		"/>
	</g>
	<g>
		<polygon class="st3" points="79.8,199.6 75.3,211.9 75.3,239.3 77.6,237.6 		"/>
	</g>
	<g>
		<polygon class="st1" points="180,235.3 130.9,240.9 74.2,247.3 137,252.1 		"/>
	</g>
	<g>
		<polygon class="st2" points="77.6,237.6 74.2,247.3 130.9,240.9 		"/>
	</g>
	<g>
		<polygon class="st3" points="77.6,237.6 75.3,239.3 39.3,267.2 74.2,247.3 		"/>
	</g>
	<g>
		<polygon class="st1" points="168.3,257.7 128.6,300.1 137,252.1 		"/>
	</g>
	<g>
		<polygon class="st4" points="168.3,257.7 203.9,318.9 128.6,300.1 		"/>
	</g>
	<g>
		<polygon class="st2" points="128.6,300.1 85.4,290 137,252.1 		"/>
	</g>
	<g>
		<polygon class="st4" points="137,252.1 74.2,247.3 85.4,290 		"/>
	</g>
	<g>
		<polygon class="st1" points="74.2,247.3 41.9,287.4 85.4,290 		"/>
	</g>
	<g>
		<polygon class="st2" points="74.2,247.3 39.3,267.2 41.9,287.4 		"/>
	</g>
	<g>
		<polygon class="st1" points="85.4,290 128.6,300.1 127.1,340.3 		"/>
	</g>
	<g>
		<polygon class="st0" points="128.6,300.1 203.9,318.9 127.1,340.3 		"/>
	</g>
	<g>
		<polygon class="st4" points="41.9,287.4 85.4,290 50.8,362 		"/>
	</g>
	<g>
		<polygon class="st4" points="39.3,267.2 41.9,287.4 17.9,331.3 		"/>
	</g>
	<g>
		<polygon class="st0" points="41.9,287.4 24.6,385.5 50.8,362 		"/>
	</g>
	<g>
		<polygon class="st1" points="24.6,385.5 17.9,331.3 41.9,287.4 		"/>
	</g>
	<g>
		<polygon class="st1" points="24.6,385.5 2.8,459.7 0,442.4 10,400.4 		"/>
	</g>
	<g>
		<polygon class="st4" points="10,400.4 24.6,385.5 17.9,331.3 		"/>
	</g>
	<g>
		<polygon class="st0" points="85.4,290 94.3,344.2 127.1,340.3 		"/>
	</g>
	<g>
		<polygon class="st1" points="94.3,344.2 50.8,362 85.4,290 		"/>
	</g>
	<g>
		<polygon class="st0" points="94.3,344.2 41.9,439.4 50.8,362 		"/>
	</g>
	<g>
		<polygon class="st1" points="24.6,385.5 50.8,362 41.9,439.4 		"/>
	</g>
	<g>
		<polygon class="st4" points="24.6,385.5 41.9,439.4 2.8,459.7 		"/>
	</g>
	<g>
		<polygon class="st1" points="203.9,318.9 184.2,359.8 204.5,474.5 211,445.4 		"/>
	</g>
	<g>
		<polygon class="st4" points="184.2,359.8 127.1,340.3 203.9,318.9 		"/>
	</g>
	<g>
		<polygon class="st5" points="184.2,359.8 165.5,392.9 189.9,392.9 		"/>
	</g>
	<g>
		<polygon class="st0" points="127.1,340.3 165.5,392.9 184.2,359.8 		"/>
	</g>
	<g>
		<polygon class="st1" points="211,445.4 230.5,558 250.7,415.6 		"/>
	</g>
	<g>
		<polygon class="st4" points="250.7,415.6 267.2,400.4 230.5,558 		"/>
	</g>
	<g>
		<polygon class="st1" points="230.5,558 280,603.2 228.3,616 		"/>
	</g>
	<g>
		<polygon class="st1" points="230.5,558 236.5,532 240.4,567 		"/>
	</g>
	<g>
		<polygon class="st0" points="230.5,558 211,584.7 228.3,616 		"/>
	</g>
	<g>
		<polygon class="st1" points="211,584.7 197.6,505.5 230.5,558 		"/>
	</g>
	<g>
		<polygon class="st0" points="197.6,505.5 211,445.4 230.5,558 		"/>
	</g>
	<g>
		<polygon class="st5" points="2.8,459.7 41.9,439.4 24.6,459.7 		"/>
	</g>
	<g>
		<polygon class="st4" points="24.6,459.7 24.6,509.4 2.8,515.7 		"/>
	</g>
	<g>
		<polygon class="st1" points="2.8,459.7 24.6,459.7 2.8,515.7 		"/>
	</g>
	<g>
		<polygon class="st0" points="2.8,515.7 27.5,520 24.6,509.4 		"/>
	</g>
	<g>
		<polygon class="st4" points="24.6,509.4 47.3,532 27.5,520 		"/>
	</g>
	<g>
		<polygon class="st1" points="2.8,515.7 7.8,541 27.5,520 		"/>
	</g>
	<g>
		<polygon class="st0" points="27.5,520 47.3,532 7.8,541 		"/>
	</g>
	<g>
		<polygon class="st1" points="301.8,480 334.3,524.5 322.2,439.4 		"/>
	</g>
	<g>
		<polygon class="st4" points="340.7,415.6 322.2,439.4 334.3,524.5 		"/>
	</g>
	<g>
		<polygon class="st4" points="334.3,524.5 365.4,563.3 345.1,580 		"/>
	</g>
	<g>
		<polygon class="st0" points="301.8,480 285.8,491.3 295.3,455.8 		"/>
	</g>
	<g>
		<polygon class="st5" points="285.8,491.3 301.8,480 312,548.1 305.9,560.9 		"/>
	</g>
	<g>
		<polygon class="st0" points="312,548.1 301.8,480 334.3,524.5 		"/>
	</g>
	<g>
		<polygon class="st1" points="334.3,524.5 345.1,580 312,548.1 		"/>
	</g>
	<g>
		<polygon class="st0" points="305.9,560.9 312,548.1 345.1,580 		"/>
	</g>
	<g>
		<polygon class="st0" points="24.6,509.4 24.6,459.7 30.4,452.9 		"/>
	</g>
	<g>
		<polygon class="st1" points="94.3,344.2 127.1,340.3 165.5,392.9 		"/>
	</g>
	<g>
		<polygon class="st5" points="94.3,344.2 93,359.8 120.4,362 		"/>
	</g>
	<g>
		<polygon class="st5" points="41.9,439.4 74.2,392.9 87.8,364.5 83.8,363.4 		"/>
	</g>
	<g>
		<polygon class="st6" points="93,359.8 102.7,372.8 120.4,362 		"/>
	</g>
	<g>
		<polygon class="st6" points="87.8,364.5 83.8,363.4 94.3,344.2 93,359.8 		"/>
	</g>
	<g>
		<polygon class="st5" points="102.7,372.8 87.8,364.5 93,359.8 		"/>
	</g>
	<g>
		<polygon class="st6" points="120.4,362 128.6,399.6 150.1,415.6 		"/>
	</g>
	<g>
		<polygon class="st5" points="120.4,362 165.5,392.9 150.1,415.6 		"/>
	</g>
	<g>
		<polygon class="st6" points="165.5,392.9 174.7,392.9 174.7,415.6 150.1,415.6 		"/>
	</g>
	<g>
		<polygon class="st0" points="174.7,392.9 182.9,392.9 174.7,415.6 		"/>
	</g>
	<g>
		<polygon class="st0" points="128.6,399.6 123.7,442.4 150.1,415.6 		"/>
	</g>
	<g>
		<polygon class="st1" points="128.6,399.6 118.9,427.5 126,479.2 123.7,442.4 		"/>
	</g>
	<g>
		<polygon class="st5" points="123.7,442.4 174.7,415.6 150.1,415.6 		"/>
	</g>
	<g>
		<polygon class="st0" points="174.7,415.6 144.4,438.5 123.7,442.4 		"/>
	</g>
	<g>
		<polygon class="st1" points="144.4,438.5 144.4,484.7 123.7,442.4 		"/>
	</g>
	<g>
		<polygon class="st0" points="123.7,442.4 144.4,484.7 127.1,491.5 126,479.2 		"/>
	</g>
	<g>
		<polygon class="st0" points="144.4,484.7 168.3,490.2 146.6,509.4 		"/>
	</g>
	<g>
		<polygon class="st5" points="127.1,491.5 144.4,484.7 146.6,509.4 		"/>
	</g>
	<g>
		<polygon class="st5" points="168.3,490.2 174.7,502.3 146.6,509.4 		"/>
	</g>
	<polygon class="st5" points="144.4,484.7 144.4,438.5 149.2,485.8 	"/>
</g>
</svg>
