<?xml version="1.0" encoding="utf-8"?>
<!-- Generator: Adobe Illustrator 26.0.3, SVG Export Plug-In . SVG Version: 6.00 Build 0)  -->
<svg version="1.1" id="Layer_1" xmlns="http://www.w3.org/2000/svg" xmlns:xlink="http://www.w3.org/1999/xlink" x="0px" y="0px"
	 viewBox="0 0 3042.6 667.8" style="enable-background:new 0 0 3042.6 667.8;" xml:space="preserve">
<style type="text/css">
	.st0{fill:#FF6200;}
	.st1{fill:#FFCE00;}
</style>
<g>
	<g>
		<path class="st0" d="M330.2,115.9v181.7c-14.7-4.2-38.4-7-56.6-7c-29.3,0-39.1,7.7-39.1,36.3h95.7V496h-92.2v119.6v28H0l3.9-28
			V282.9c0-130,58.7-181,208.9-181C255.4,101.9,290.3,106.1,330.2,115.9z"/>
	</g>
	<g>
		<path class="st0" d="M892.6,388.4c0,159.3-84.5,230.6-271.1,230.6s-271.1-71.3-271.1-230.6c0-159.3,84.5-230.6,271.1-230.6
			S892.6,229.1,892.6,388.4z M594.3,388.4c0,45.4,6.3,58,27.3,58c21,0,27.2-12.6,27.2-58c0-45.4-6.3-58-27.2-58
			C600.6,330.4,594.3,342.9,594.3,388.4z"/>
	</g>
	<g>
		<path class="st0" d="M1146.3,449.1L1129.5,605H889.8l49.6-206.1l-47.5-227.1h241.8l16.8,155.1h17.5l16.1-155.1h238.3l-48.9,220.8
			l51,212.4h-243.8l-16.8-155.8H1146.3z"/>
	</g>
	<g>
		<g>
			<path class="st1" d="M1949.1,509.2c0,41.9,2.1,67.1,7,95.7h-229.9l-4.9-57.3h-1.4c-28.6,48.2-72.7,71.3-132.8,71.3
				c-110.4,0-165.6-77.6-165.6-227.1c0-156.5,60.8-234.1,183.8-234.1c45.4,0,81.1,10.5,109,32.1h1.4V0h241.1l-7.7,39.1V509.2z
				 M1665.4,388.4c0,42.6,7.7,58,29.3,58c8.4,0,15.4-2.1,21-6.3V336.7c-5.6-4.2-12.6-6.3-21-6.3
				C1673.1,330.4,1665.4,345.7,1665.4,388.4z"/>
		</g>
	</g>
	<g>
		<g>
			<path class="st1" d="M2518.5,388.4c0,159.3-84.5,230.6-271.1,230.6s-271.1-71.3-271.1-230.6c0-159.3,84.5-230.6,271.1-230.6
				S2518.5,229.1,2518.5,388.4z M2220.2,388.4c0,45.4,6.3,58,27.3,58c21,0,27.2-12.6,27.2-58c0-45.4-6.3-58-27.2-58
				C2226.5,330.4,2220.2,342.9,2220.2,388.4z"/>
		</g>
	</g>
	<g>
		<g>
			<path class="st1" d="M3042.6,442.2c0,171.9-70.6,225.7-293.5,225.7c-72,0-121.6-5.6-188-21.7l-6.3-181.7
				c35.6,20.3,99.2,33.5,161.4,33.5c69.9,0,92.2-17.5,92.2-69.9v-2.1h-1.4c-18.9,27.9-58,42.6-114.6,42.6
				c-106.9,0-160-52.4-160-150.2c0-105.5,62.2-160.7,173.3-160.7c54.5,0,102.7,13.3,139.7,38.4l7.7-24.5h189.3V442.2z M2761.7,333.9
				c0,29.3,7,39.8,25.2,39.8c9.8,0,16.1-3.5,21.7-11.9v-60.1c-5.6-4.2-12.6-6.3-21-6.3C2768,295.4,2761.7,305.9,2761.7,333.9z"/>
		</g>
	</g>
</g>
</svg>
