<?xml version="1.0" encoding="utf-8"?>
<!-- Generator: Adobe Illustrator 26.2.1, SVG Export Plug-In . SVG Version: 6.00 Build 0)  -->
<svg version="1.1" id="Layer_1" xmlns="http://www.w3.org/2000/svg" xmlns:xlink="http://www.w3.org/1999/xlink" x="0px" y="0px"
	 width="894.3px" height="626.6px" viewBox="0 0 894.3 626.6" style="enable-background:new 0 0 894.3 626.6;" xml:space="preserve"
	>
<style type="text/css">
	.st0{fill:#0E50A2;}
	.st1{fill:#058195;}
	.st2{fill:#00998E;}
	.st3{fill:#0A699B;}
	.st4{fill:#1338A8;}
	.st5{fill:#0E2A7E;}
	.st6{fill:#0A1C54;}
	.st7{fill:#8008A0;}
	.st8{fill:#C0007D;}
	.st9{fill:#AB0389;}
	.st10{fill:#950594;}
	.st11{fill:#6A0AAB;}
	.st12{fill:#500880;}
	.st13{fill:#350556;}
	.st14{fill:#FF7D00;}
	.st15{fill:#FFB300;}
	.st16{fill:#FFCE00;}
	.st17{fill:#FF9800;}
	.st18{fill:#FF6200;}
	.st19{fill:#BF4A00;}
	.st20{fill:#803100;}
</style>
<g>
	<polygon class="st0" points="747.3,56.7 782.7,128.7 728.4,130.5 	"/>
	<g>
		<polygon class="st1" points="747.3,56.7 811.4,63.7 782.7,128.7 		"/>
	</g>
	<g>
		<polygon class="st2" points="811.4,63.7 836.5,99.1 782.7,128.7 		"/>
	</g>
	<g>
		<polygon class="st3" points="747.3,56.7 787.6,52.4 811.4,63.7 		"/>
	</g>
	<g>
		<polygon class="st1" points="811.4,63.7 849.3,77.1 856.2,104.6 836.5,99.1 		"/>
	</g>
	<polygon class="st2" points="856.2,104.6 886.4,130.5 836.5,99.1 	"/>
	<g>
		<polygon class="st0" points="836.5,99.1 865.4,137.1 890.5,133.7 886.4,130.5 		"/>
	</g>
	<g>
		<polygon class="st3" points="782.7,128.7 836.5,99.1 865.4,137.1 		"/>
	</g>
	<g>
		<polygon class="st3" points="865.4,137.1 859,169.4 890.5,133.7 		"/>
	</g>
	<g>
		<polygon class="st1" points="890.5,133.7 894.3,143.8 859,169.4 		"/>
	</g>
	<g>
		<polygon class="st0" points="859,169.4 782.7,128.7 865.4,137.1 		"/>
	</g>
	<g>
		<polygon class="st4" points="859,169.4 819.9,173.7 782.7,128.7 		"/>
	</g>
	<g>
		<polygon class="st3" points="728.4,130.5 707.4,97.6 747.3,56.7 		"/>
	</g>
	<g>
		<polygon class="st0" points="707.4,97.6 765.9,0 787.6,52.4 747.3,56.7 		"/>
	</g>
	<g>
		<polygon class="st2" points="787.6,52.4 800.1,54.9 824,65 849.3,77.1 811.4,63.7 		"/>
	</g>
	<g>
		<polygon class="st4" points="800.1,54.9 842.5,34.8 824,65 		"/>
	</g>
	<g>
		<polygon class="st1" points="842.5,34.8 827.2,66.5 824,65 		"/>
	</g>
	<g>
		<polygon class="st0" points="707.4,97.6 699.2,189.1 728.4,130.5 		"/>
	</g>
	<g>
		<polygon class="st3" points="699.2,189.1 745.2,200.6 782.7,128.7 728.4,130.5 		"/>
	</g>
	<g>
		<polygon class="st4" points="699.2,189.1 680.5,164.7 707.4,97.6 		"/>
	</g>
	<g>
		<polygon class="st0" points="745.2,200.6 782.7,128.7 819.9,173.7 		"/>
	</g>
	<g>
		<polygon class="st3" points="745.2,200.6 791.6,214.1 819.9,173.7 		"/>
	</g>
	<g>
		<polygon class="st1" points="791.6,214.1 807.1,205.8 827.2,172.9 819.9,173.7 		"/>
	</g>
	<g>
		<polygon class="st3" points="807.1,205.8 787.9,265.3 791.6,214.1 		"/>
	</g>
	<g>
		<polygon class="st1" points="787.9,265.3 721.4,291.2 745.2,200.6 791.6,214.1 		"/>
	</g>
	<g>
		<polygon class="st2" points="787.9,265.3 790,296.7 807.1,205.8 		"/>
	</g>
	<g>
		<polygon class="st3" points="721.4,291.2 752.5,314.4 787.9,265.3 		"/>
	</g>
	<g>
		<polygon class="st1" points="752.5,314.4 787.9,265.3 790,296.7 		"/>
	</g>
	<g>
		<polygon class="st1" points="699.2,189.1 655.6,261.3 688.5,286.3 745.2,200.6 		"/>
	</g>
	<g>
		<polygon class="st3" points="688.5,286.3 745.2,200.6 721.4,291.2 		"/>
	</g>
	<g>
		<polygon class="st0" points="688.5,286.3 661.4,365 721.4,291.2 		"/>
	</g>
	<g>
		<polygon class="st3" points="655.6,261.3 688.5,286.3 661.4,365 		"/>
	</g>
	<polyline class="st3" points="706.4,309.7 721.4,291.2 693.9,340.6 661.4,365 706.4,309.7 	"/>
	<g>
		<polygon class="st4" points="693.9,340.6 707.4,328.1 721.4,291.2 		"/>
	</g>
	<g>
		<polygon class="st0" points="707.4,328.1 721.4,291.2 752.5,314.4 		"/>
	</g>
	<g>
		<polygon class="st4" points="790,296.7 752.5,314.4 707.4,328.1 745.2,322 		"/>
	</g>
	<g>
		<polygon class="st0" points="790,296.7 752.5,360.1 745.2,322 		"/>
	</g>
	<g>
		<polygon class="st1" points="752.5,360.1 767.6,340.6 790,296.7 		"/>
	</g>
	<g>
		<polygon class="st4" points="745.2,322 735.8,393.4 752.5,360.1 		"/>
	</g>
	<g>
		<polygon class="st5" points="745.2,322 717.9,326.4 735.8,393.4 		"/>
	</g>
	<g>
		<polygon class="st0" points="655.6,261.3 626.4,211.2 680.5,164.7 699.2,189.1 		"/>
	</g>
	<g>
		<polygon class="st1" points="626.4,211.2 600.8,206.6 636,192.9 668.5,174.9 		"/>
	</g>
	<g>
		<polygon class="st3" points="646.4,187.1 636,192.9 595.7,197.4 571.9,190.1 		"/>
	</g>
	<g>
		<polygon class="st0" points="595.7,197.4 552,194.7 571.9,190.1 		"/>
	</g>
	<g>
		<polygon class="st3" points="609.1,161.3 630.7,161.3 622.5,188.1 618.6,188.3 		"/>
	</g>
	<g>
		<polygon class="st5" points="609.1,161.3 600.8,160.4 618.6,188.3 		"/>
	</g>
	<g>
		<polygon class="st0" points="609.1,161.3 599.2,133.6 630.7,161.3 		"/>
	</g>
	<g>
		<polygon class="st1" points="599.2,133.6 609.1,127.5 630.7,161.3 		"/>
	</g>
	<g>
		<polygon class="st2" points="578.6,133.6 609.1,127.5 599.2,133.6 		"/>
	</g>
	<g>
		<polygon class="st3" points="578.6,133.6 553.9,163.6 599.2,133.6 		"/>
	</g>
	<g>
		<polygon class="st0" points="553.9,163.6 577.7,158.8 599.2,133.6 		"/>
	</g>
	<g>
		<polygon class="st3" points="577.7,158.8 599.2,133.6 609.1,161.3 		"/>
	</g>
	<g>
		<polygon class="st4" points="577.7,158.8 571.9,190.1 577.7,189.9 597.7,160.4 		"/>
	</g>
	<g>
		<polygon class="st3" points="553.9,163.6 571.9,190.1 577.7,158.8 		"/>
	</g>
	<g>
		<polygon class="st1" points="553.9,163.6 552,194.7 571.9,190.1 		"/>
	</g>
	<g>
		<polygon class="st2" points="553.9,163.6 550.2,173.7 550.2,196.1 552,194.7 		"/>
	</g>
	<g>
		<polygon class="st0" points="636,192.9 595.7,197.4 549.3,202.7 600.8,206.6 		"/>
	</g>
	<g>
		<polygon class="st1" points="552,194.7 549.3,202.7 595.7,197.4 		"/>
	</g>
	<g>
		<polygon class="st2" points="552,194.7 550.2,196.1 520.7,218.9 549.3,202.7 		"/>
	</g>
	<g>
		<polygon class="st0" points="626.4,211.2 593.9,245.9 600.8,206.6 		"/>
	</g>
	<g>
		<polygon class="st3" points="626.4,211.2 655.6,261.3 593.9,245.9 		"/>
	</g>
	<g>
		<polygon class="st1" points="593.9,245.9 558.4,237.7 600.8,206.6 		"/>
	</g>
	<g>
		<polygon class="st3" points="600.8,206.6 549.3,202.7 558.4,237.7 		"/>
	</g>
	<g>
		<polygon class="st0" points="549.3,202.7 522.8,235.6 558.4,237.7 		"/>
	</g>
	<g>
		<polygon class="st1" points="549.3,202.7 520.7,218.9 522.8,235.6 		"/>
	</g>
	<g>
		<polygon class="st0" points="558.4,237.7 593.9,245.9 592.6,278.9 		"/>
	</g>
	<g>
		<polygon class="st4" points="593.9,245.9 655.6,261.3 592.6,278.9 		"/>
	</g>
	<g>
		<polygon class="st3" points="522.8,235.6 558.4,237.7 530.1,296.7 		"/>
	</g>
	<g>
		<polygon class="st3" points="520.7,218.9 522.8,235.6 503.1,271.5 		"/>
	</g>
	<g>
		<polygon class="st4" points="522.8,235.6 508.6,315.9 530.1,296.7 		"/>
	</g>
	<g>
		<polygon class="st0" points="508.6,315.9 503.1,271.5 522.8,235.6 		"/>
	</g>
	<g>
		<polygon class="st0" points="508.6,315.9 490.7,376.7 488.5,362.6 496.7,328.1 		"/>
	</g>
	<g>
		<polygon class="st3" points="496.7,328.1 508.6,315.9 503.1,271.5 		"/>
	</g>
	<g>
		<polygon class="st4" points="558.4,237.7 565.8,282.1 592.6,278.9 		"/>
	</g>
	<g>
		<polygon class="st0" points="565.8,282.1 530.1,296.7 558.4,237.7 		"/>
	</g>
	<g>
		<polygon class="st4" points="565.8,282.1 522.8,360.1 530.1,296.7 		"/>
	</g>
	<g>
		<polygon class="st0" points="508.6,315.9 530.1,296.7 522.8,360.1 		"/>
	</g>
	<g>
		<polygon class="st3" points="508.6,315.9 522.8,360.1 490.7,376.7 		"/>
	</g>
	<g>
		<polygon class="st0" points="655.6,261.3 639.4,294.9 655.6,387.7 661.4,365 		"/>
	</g>
	<g>
		<polygon class="st3" points="639.4,294.9 592.6,278.9 655.6,261.3 		"/>
	</g>
	<g>
		<polygon class="st5" points="639.4,294.9 624.1,322 644.1,322 		"/>
	</g>
	<g>
		<polygon class="st4" points="592.6,278.9 624.1,322 639.4,294.9 		"/>
	</g>
	<g>
		<polygon class="st0" points="661.4,365 677.4,457.2 693.9,340.6 		"/>
	</g>
	<g>
		<polygon class="st3" points="693.9,340.6 707.4,328.1 677.4,457.2 		"/>
	</g>
	<g>
		<polygon class="st0" points="677.4,457.2 717.9,494.3 675.5,504.8 		"/>
	</g>
	<g>
		<polygon class="st0" points="677.4,457.2 682.3,436 685.5,464.6 		"/>
	</g>
	<g>
		<polygon class="st4" points="677.4,457.2 661.4,479.2 675.5,504.8 		"/>
	</g>
	<g>
		<polygon class="st0" points="661.4,479.2 650.4,414.2 677.4,457.2 		"/>
	</g>
	<g>
		<polygon class="st4" points="650.4,414.2 661.4,365 677.4,457.2 		"/>
	</g>
	<g>
		<polygon class="st5" points="490.7,376.7 522.8,360.1 508.6,376.7 		"/>
	</g>
	<g>
		<polygon class="st3" points="508.6,376.7 508.6,417.4 490.7,422.6 		"/>
	</g>
	<g>
		<polygon class="st0" points="490.7,376.7 508.6,376.7 490.7,422.6 		"/>
	</g>
	<g>
		<polygon class="st4" points="490.7,422.6 511,426.1 508.6,417.4 		"/>
	</g>
	<g>
		<polygon class="st3" points="508.6,417.4 527.2,436 511,426.1 		"/>
	</g>
	<g>
		<polygon class="st0" points="490.7,422.6 494.9,443.4 511,426.1 		"/>
	</g>
	<g>
		<polygon class="st4" points="511,426.1 527.2,436 494.9,443.4 		"/>
	</g>
	<g>
		<polygon class="st0" points="735.8,393.4 762.4,429.8 752.5,360.1 		"/>
	</g>
	<g>
		<polygon class="st3" points="767.6,340.6 752.5,360.1 762.4,429.8 		"/>
	</g>
	<g>
		<polygon class="st3" points="762.4,429.8 787.9,461.6 771.3,475.3 		"/>
	</g>
	<g>
		<polygon class="st4" points="735.8,393.4 722.6,402.6 730.5,373.5 		"/>
	</g>
	<g>
		<polygon class="st5" points="722.6,402.6 735.8,393.4 744.1,449.1 739.1,459.6 		"/>
	</g>
	<g>
		<polygon class="st4" points="744.1,449.1 735.8,393.4 762.4,429.8 		"/>
	</g>
	<g>
		<polygon class="st0" points="762.4,429.8 771.3,475.3 744.1,449.1 		"/>
	</g>
	<g>
		<polygon class="st4" points="739.1,459.6 744.1,449.1 771.3,475.3 		"/>
	</g>
	<g>
		<polygon class="st4" points="508.6,417.4 508.6,376.7 513.4,371.1 		"/>
	</g>
	<g>
		<polygon class="st0" points="565.8,282.1 592.6,278.9 624.1,322 		"/>
	</g>
	<g>
		<polygon class="st5" points="565.8,282.1 564.7,294.9 587.1,296.7 		"/>
	</g>
	<g>
		<polygon class="st5" points="522.8,360.1 549.3,322 560.4,298.7 557.1,297.8 		"/>
	</g>
	<g>
		<polygon class="st6" points="564.7,294.9 572.6,305.5 587.1,296.7 		"/>
	</g>
	<g>
		<polygon class="st6" points="560.4,298.7 557.1,297.8 565.8,282.1 564.7,294.9 		"/>
	</g>
	<g>
		<polygon class="st5" points="572.6,305.5 560.4,298.7 564.7,294.9 		"/>
	</g>
	<g>
		<polygon class="st6" points="587.1,296.7 593.9,327.5 611.5,340.6 		"/>
	</g>
	<g>
		<polygon class="st5" points="587.1,296.7 624.1,322 611.5,340.6 		"/>
	</g>
	<g>
		<polygon class="st6" points="624.1,322 631.6,322 631.6,340.6 611.5,340.6 		"/>
	</g>
	<g>
		<polygon class="st0" points="631.6,322 638.3,322 631.6,340.6 		"/>
	</g>
	<g>
		<polygon class="st4" points="593.9,327.5 589.9,362.6 611.5,340.6 		"/>
	</g>
	<g>
		<polygon class="st0" points="593.9,327.5 585.9,350.4 591.7,392.7 589.9,362.6 		"/>
	</g>
	<g>
		<polygon class="st5" points="589.9,362.6 631.6,340.6 611.5,340.6 		"/>
	</g>
	<g>
		<polygon class="st4" points="631.6,340.6 606.8,359.4 589.9,362.6 		"/>
	</g>
	<g>
		<polygon class="st0" points="606.8,359.4 606.8,397.2 589.9,362.6 		"/>
	</g>
	<g>
		<polygon class="st4" points="589.9,362.6 606.8,397.2 592.6,402.8 591.7,392.7 		"/>
	</g>
	<g>
		<polygon class="st4" points="606.8,397.2 626.4,401.7 608.6,417.4 		"/>
	</g>
	<g>
		<polygon class="st5" points="592.6,402.8 606.8,397.2 608.6,417.4 		"/>
	</g>
	<g>
		<polygon class="st5" points="626.4,401.7 631.6,411.7 608.6,417.4 		"/>
	</g>
	<polygon class="st5" points="606.8,397.2 606.8,359.4 610.7,398.1 	"/>
</g>
<g>
	<polygon class="st7" points="540.7,63 580,143 519.7,145 	"/>
	<g>
		<polygon class="st8" points="540.7,63 611.9,70.8 580,143 		"/>
	</g>
	<g>
		<polygon class="st9" points="611.9,70.8 639.8,110.1 580,143 		"/>
	</g>
	<g>
		<polygon class="st10" points="540.7,63 585.4,58.3 611.9,70.8 		"/>
	</g>
	<g>
		<polygon class="st8" points="611.9,70.8 654.1,85.7 661.7,116.2 639.8,110.1 		"/>
	</g>
	<polygon class="st9" points="661.7,116.2 695.2,145 639.8,110.1 	"/>
	<g>
		<polygon class="st7" points="639.8,110.1 671.9,152.3 699.8,148.6 695.2,145 		"/>
	</g>
	<g>
		<polygon class="st10" points="580,143 639.8,110.1 671.9,152.3 		"/>
	</g>
	<g>
		<polygon class="st10" points="671.9,152.3 664.7,188.2 699.8,148.6 		"/>
	</g>
	<g>
		<polygon class="st8" points="699.8,148.6 704.1,159.8 664.7,188.2 		"/>
	</g>
	<g>
		<polygon class="st7" points="664.7,188.2 580,143 671.9,152.3 		"/>
	</g>
	<g>
		<polygon class="st11" points="664.7,188.2 621.4,193 580,143 		"/>
	</g>
	<g>
		<polygon class="st10" points="519.7,145 496.3,108.4 540.7,63 		"/>
	</g>
	<g>
		<polygon class="st7" points="496.3,108.4 561.4,0 585.4,58.3 540.7,63 		"/>
	</g>
	<g>
		<polygon class="st9" points="585.4,58.3 599.3,61 625.9,72.2 654.1,85.7 611.9,70.8 		"/>
	</g>
	<g>
		<polygon class="st11" points="599.3,61 646.4,38.6 625.9,72.2 		"/>
	</g>
	<g>
		<polygon class="st8" points="646.4,38.6 629.5,73.9 625.9,72.2 		"/>
	</g>
	<g>
		<polygon class="st7" points="496.3,108.4 487.2,210.1 519.7,145 		"/>
	</g>
	<g>
		<polygon class="st10" points="487.2,210.1 538.3,223 580,143 519.7,145 		"/>
	</g>
	<g>
		<polygon class="st11" points="487.2,210.1 466.4,183 496.3,108.4 		"/>
	</g>
	<g>
		<polygon class="st7" points="538.3,223 580,143 621.4,193 		"/>
	</g>
	<g>
		<polygon class="st10" points="538.3,223 589.8,237.9 621.4,193 		"/>
	</g>
	<g>
		<polygon class="st8" points="589.8,237.9 607.1,228.7 629.5,192.1 621.4,193 		"/>
	</g>
	<g>
		<polygon class="st10" points="607.1,228.7 585.8,294.8 589.8,237.9 		"/>
	</g>
	<g>
		<polygon class="st8" points="585.8,294.8 511.9,323.6 538.3,223 589.8,237.9 		"/>
	</g>
	<g>
		<polygon class="st9" points="585.8,294.8 588.2,329.7 607.1,228.7 		"/>
	</g>
	<g>
		<polygon class="st10" points="511.9,323.6 546.5,349.4 585.8,294.8 		"/>
	</g>
	<g>
		<polygon class="st8" points="546.5,349.4 585.8,294.8 588.2,329.7 		"/>
	</g>
	<g>
		<polygon class="st8" points="487.2,210.1 438.7,290.4 475.3,318.2 538.3,223 		"/>
	</g>
	<g>
		<polygon class="st10" points="475.3,318.2 538.3,223 511.9,323.6 		"/>
	</g>
	<g>
		<polygon class="st7" points="475.3,318.2 445.1,405.6 511.9,323.6 		"/>
	</g>
	<g>
		<polygon class="st10" points="438.7,290.4 475.3,318.2 445.1,405.6 		"/>
	</g>
	<polyline class="st10" points="495.2,344.1 511.9,323.6 481.4,378.5 445.1,405.6 495.2,344.1 	"/>
	<g>
		<polygon class="st11" points="481.4,378.5 496.3,364.6 511.9,323.6 		"/>
	</g>
	<g>
		<polygon class="st7" points="496.3,364.6 511.9,323.6 546.5,349.4 		"/>
	</g>
	<g>
		<polygon class="st11" points="588.2,329.7 546.5,349.4 496.3,364.6 538.3,357.9 		"/>
	</g>
	<g>
		<polygon class="st7" points="588.2,329.7 546.5,400.2 538.3,357.9 		"/>
	</g>
	<g>
		<polygon class="st8" points="546.5,400.2 563.2,378.5 588.2,329.7 		"/>
	</g>
	<g>
		<polygon class="st11" points="538.3,357.9 527.8,437.2 546.5,400.2 		"/>
	</g>
	<g>
		<polygon class="st12" points="538.3,357.9 508,362.7 527.8,437.2 		"/>
	</g>
	<g>
		<polygon class="st7" points="438.7,290.4 406.3,234.7 466.4,183 487.2,210.1 		"/>
	</g>
	<g>
		<polygon class="st8" points="406.3,234.7 377.8,229.6 416.9,214.3 453.1,194.4 		"/>
	</g>
	<g>
		<polygon class="st10" points="428.5,208 416.9,214.3 372.2,219.4 345.8,211.3 		"/>
	</g>
	<g>
		<polygon class="st7" points="372.2,219.4 323.7,216.4 345.8,211.3 		"/>
	</g>
	<g>
		<polygon class="st10" points="387.1,179.3 411.1,179.3 401.9,209 397.6,209.2 		"/>
	</g>
	<g>
		<polygon class="st12" points="387.1,179.3 377.8,178.3 397.6,209.2 		"/>
	</g>
	<g>
		<polygon class="st7" points="387.1,179.3 376,148.5 411.1,179.3 		"/>
	</g>
	<g>
		<polygon class="st8" points="376,148.5 387.1,141.7 411.1,179.3 		"/>
	</g>
	<g>
		<polygon class="st9" points="353.1,148.5 387.1,141.7 376,148.5 		"/>
	</g>
	<g>
		<polygon class="st10" points="353.1,148.5 325.7,181.8 376,148.5 		"/>
	</g>
	<g>
		<polygon class="st7" points="325.7,181.8 352.1,176.5 376,148.5 		"/>
	</g>
	<g>
		<polygon class="st10" points="352.1,176.5 376,148.5 387.1,179.3 		"/>
	</g>
	<g>
		<polygon class="st11" points="352.1,176.5 345.8,211.3 352.1,211 374.4,178.3 		"/>
	</g>
	<g>
		<polygon class="st10" points="325.7,181.8 345.8,211.3 352.1,176.5 		"/>
	</g>
	<g>
		<polygon class="st8" points="325.7,181.8 323.7,216.4 345.8,211.3 		"/>
	</g>
	<g>
		<polygon class="st9" points="325.7,181.8 321.6,193 321.6,217.9 323.7,216.4 		"/>
	</g>
	<g>
		<polygon class="st7" points="416.9,214.3 372.2,219.4 320.6,225.3 377.8,229.6 		"/>
	</g>
	<g>
		<polygon class="st8" points="323.7,216.4 320.6,225.3 372.2,219.4 		"/>
	</g>
	<g>
		<polygon class="st9" points="323.7,216.4 321.6,217.9 288.8,243.3 320.6,225.3 		"/>
	</g>
	<g>
		<polygon class="st7" points="406.3,234.7 370.1,273.3 377.8,229.6 		"/>
	</g>
	<g>
		<polygon class="st10" points="406.3,234.7 438.7,290.4 370.1,273.3 		"/>
	</g>
	<g>
		<polygon class="st8" points="370.1,273.3 330.8,264.2 377.8,229.6 		"/>
	</g>
	<g>
		<polygon class="st10" points="377.8,229.6 320.6,225.3 330.8,264.2 		"/>
	</g>
	<g>
		<polygon class="st7" points="320.6,225.3 291.1,261.8 330.8,264.2 		"/>
	</g>
	<g>
		<polygon class="st8" points="320.6,225.3 288.8,243.3 291.1,261.8 		"/>
	</g>
	<g>
		<polygon class="st7" points="330.8,264.2 370.1,273.3 368.8,309.9 		"/>
	</g>
	<g>
		<polygon class="st11" points="370.1,273.3 438.7,290.4 368.8,309.9 		"/>
	</g>
	<g>
		<polygon class="st10" points="291.1,261.8 330.8,264.2 299.3,329.7 		"/>
	</g>
	<g>
		<polygon class="st10" points="288.8,243.3 291.1,261.8 269.3,301.8 		"/>
	</g>
	<g>
		<polygon class="st11" points="291.1,261.8 275.4,351.1 299.3,329.7 		"/>
	</g>
	<g>
		<polygon class="st7" points="275.4,351.1 269.3,301.8 291.1,261.8 		"/>
	</g>
	<g>
		<polygon class="st7" points="275.4,351.1 255.5,418.7 253,402.9 262.1,364.6 		"/>
	</g>
	<g>
		<polygon class="st10" points="262.1,364.6 275.4,351.1 269.3,301.8 		"/>
	</g>
	<g>
		<polygon class="st11" points="330.8,264.2 338.9,313.5 368.8,309.9 		"/>
	</g>
	<g>
		<polygon class="st7" points="338.9,313.5 299.3,329.7 330.8,264.2 		"/>
	</g>
	<g>
		<polygon class="st11" points="338.9,313.5 291.1,400.2 299.3,329.7 		"/>
	</g>
	<g>
		<polygon class="st7" points="275.4,351.1 299.3,329.7 291.1,400.2 		"/>
	</g>
	<g>
		<polygon class="st10" points="275.4,351.1 291.1,400.2 255.5,418.7 		"/>
	</g>
	<g>
		<polygon class="st7" points="438.7,290.4 420.7,327.7 438.7,430.9 445.1,405.6 		"/>
	</g>
	<g>
		<polygon class="st10" points="420.7,327.7 368.8,309.9 438.7,290.4 		"/>
	</g>
	<g>
		<polygon class="st12" points="420.7,327.7 403.7,357.9 426,357.9 		"/>
	</g>
	<g>
		<polygon class="st11" points="368.8,309.9 403.7,357.9 420.7,327.7 		"/>
	</g>
	<g>
		<polygon class="st7" points="445.1,405.6 462.9,508.2 481.4,378.5 		"/>
	</g>
	<g>
		<polygon class="st10" points="481.4,378.5 496.3,364.6 462.9,508.2 		"/>
	</g>
	<g>
		<polygon class="st7" points="462.9,508.2 508,549.3 460.9,561 		"/>
	</g>
	<g>
		<polygon class="st7" points="462.9,508.2 468.4,484.5 471.9,516.4 		"/>
	</g>
	<g>
		<polygon class="st11" points="462.9,508.2 445.1,532.6 460.9,561 		"/>
	</g>
	<g>
		<polygon class="st7" points="445.1,532.6 432.9,460.4 462.9,508.2 		"/>
	</g>
	<g>
		<polygon class="st11" points="432.9,460.4 445.1,405.6 462.9,508.2 		"/>
	</g>
	<g>
		<polygon class="st12" points="255.5,418.7 291.1,400.2 275.4,418.7 		"/>
	</g>
	<g>
		<polygon class="st10" points="275.4,418.7 275.4,463.9 255.5,469.7 		"/>
	</g>
	<g>
		<polygon class="st7" points="255.5,418.7 275.4,418.7 255.5,469.7 		"/>
	</g>
	<g>
		<polygon class="st11" points="255.5,469.7 278.1,473.6 275.4,463.9 		"/>
	</g>
	<g>
		<polygon class="st10" points="275.4,463.9 296,484.5 278.1,473.6 		"/>
	</g>
	<g>
		<polygon class="st7" points="255.5,469.7 260.1,492.7 278.1,473.6 		"/>
	</g>
	<g>
		<polygon class="st11" points="278.1,473.6 296,484.5 260.1,492.7 		"/>
	</g>
	<g>
		<polygon class="st7" points="527.8,437.2 557.5,477.7 546.5,400.2 		"/>
	</g>
	<g>
		<polygon class="st10" points="563.2,378.5 546.5,400.2 557.5,477.7 		"/>
	</g>
	<g>
		<polygon class="st10" points="557.5,477.7 585.8,513 567.3,528.2 		"/>
	</g>
	<g>
		<polygon class="st11" points="527.8,437.2 513.3,447.4 522,415.1 		"/>
	</g>
	<g>
		<polygon class="st12" points="513.3,447.4 527.8,437.2 537.2,499.2 531.6,510.8 		"/>
	</g>
	<g>
		<polygon class="st11" points="537.2,499.2 527.8,437.2 557.5,477.7 		"/>
	</g>
	<g>
		<polygon class="st7" points="557.5,477.7 567.3,528.2 537.2,499.2 		"/>
	</g>
	<g>
		<polygon class="st11" points="531.6,510.8 537.2,499.2 567.3,528.2 		"/>
	</g>
	<g>
		<polygon class="st11" points="275.4,463.9 275.4,418.7 280.7,412.5 		"/>
	</g>
	<g>
		<polygon class="st7" points="338.9,313.5 368.8,309.9 403.7,357.9 		"/>
	</g>
	<g>
		<polygon class="st12" points="338.9,313.5 337.7,327.7 362.7,329.7 		"/>
	</g>
	<g>
		<polygon class="st12" points="291.1,400.2 320.6,357.9 333,331.9 329.3,330.9 		"/>
	</g>
	<g>
		<polygon class="st13" points="337.7,327.7 346.5,339.6 362.7,329.7 		"/>
	</g>
	<g>
		<polygon class="st13" points="333,331.9 329.3,330.9 338.9,313.5 337.7,327.7 		"/>
	</g>
	<g>
		<polygon class="st12" points="346.5,339.6 333,331.9 337.7,327.7 		"/>
	</g>
	<g>
		<polygon class="st13" points="362.7,329.7 370.1,364 389.7,378.5 		"/>
	</g>
	<g>
		<polygon class="st12" points="362.7,329.7 403.7,357.9 389.7,378.5 		"/>
	</g>
	<g>
		<polygon class="st13" points="403.7,357.9 412.1,357.9 412.1,378.5 389.7,378.5 		"/>
	</g>
	<g>
		<polygon class="st7" points="412.1,357.9 419.6,357.9 412.1,378.5 		"/>
	</g>
	<g>
		<polygon class="st11" points="370.1,364 365.7,402.9 389.7,378.5 		"/>
	</g>
	<g>
		<polygon class="st7" points="370.1,364 361.3,389.4 367.7,436.4 365.7,402.9 		"/>
	</g>
	<g>
		<polygon class="st12" points="365.7,402.9 412.1,378.5 389.7,378.5 		"/>
	</g>
	<g>
		<polygon class="st11" points="412.1,378.5 384.5,399.4 365.7,402.9 		"/>
	</g>
	<g>
		<polygon class="st7" points="384.5,399.4 384.5,441.4 365.7,402.9 		"/>
	</g>
	<g>
		<polygon class="st11" points="365.7,402.9 384.5,441.4 368.8,447.7 367.7,436.4 		"/>
	</g>
	<g>
		<polygon class="st11" points="384.5,441.4 406.3,446.5 386.5,463.9 		"/>
	</g>
	<g>
		<polygon class="st12" points="368.8,447.7 384.5,441.4 386.5,463.9 		"/>
	</g>
	<g>
		<polygon class="st12" points="406.3,446.5 412.1,457.5 386.5,463.9 		"/>
	</g>
	<polygon class="st12" points="384.5,441.4 384.5,399.4 388.9,442.4 	"/>
</g>
<g>
	<polygon class="st14" points="321.3,70.4 365.2,159.7 297.9,162 	"/>
	<g>
		<polygon class="st15" points="321.3,70.4 400.8,79.1 365.2,159.7 		"/>
	</g>
	<g>
		<polygon class="st16" points="400.8,79.1 432.1,123 365.2,159.7 		"/>
	</g>
	<g>
		<polygon class="st17" points="321.3,70.4 371.3,65.1 400.8,79.1 		"/>
	</g>
	<g>
		<polygon class="st15" points="400.8,79.1 448,95.8 456.5,129.8 432.1,123 		"/>
	</g>
	<polygon class="st16" points="456.5,129.8 493.9,162 432.1,123 	"/>
	<g>
		<polygon class="st14" points="432.1,123 467.8,170.1 499,166 493.9,162 		"/>
	</g>
	<g>
		<polygon class="st17" points="365.2,159.7 432.1,123 467.8,170.1 		"/>
	</g>
	<g>
		<polygon class="st17" points="467.8,170.1 459.9,210.3 499,166 		"/>
	</g>
	<g>
		<polygon class="st15" points="499,166 503.8,178.5 459.9,210.3 		"/>
	</g>
	<g>
		<polygon class="st14" points="459.9,210.3 365.2,159.7 467.8,170.1 		"/>
	</g>
	<g>
		<polygon class="st18" points="459.9,210.3 411.4,215.6 365.2,159.7 		"/>
	</g>
	<g>
		<polygon class="st17" points="297.9,162 271.8,121.1 321.3,70.4 		"/>
	</g>
	<g>
		<polygon class="st14" points="271.8,121.1 344.4,0 371.3,65.1 321.3,70.4 		"/>
	</g>
	<g>
		<polygon class="st16" points="371.3,65.1 386.8,68.1 416.5,80.6 448,95.8 400.8,79.1 		"/>
	</g>
	<g>
		<polygon class="st18" points="386.8,68.1 439.4,43.1 416.5,80.6 		"/>
	</g>
	<g>
		<polygon class="st15" points="439.4,43.1 420.5,82.5 416.5,80.6 		"/>
	</g>
	<g>
		<polygon class="st14" points="271.8,121.1 261.5,234.7 297.9,162 		"/>
	</g>
	<g>
		<polygon class="st17" points="261.5,234.7 318.7,249.1 365.2,159.7 297.9,162 		"/>
	</g>
	<g>
		<polygon class="st18" points="261.5,234.7 238.4,204.4 271.8,121.1 		"/>
	</g>
	<g>
		<polygon class="st14" points="318.7,249.1 365.2,159.7 411.4,215.6 		"/>
	</g>
	<g>
		<polygon class="st17" points="318.7,249.1 376.2,265.7 411.4,215.6 		"/>
	</g>
	<g>
		<polygon class="st15" points="376.2,265.7 395.5,255.5 420.5,214.6 411.4,215.6 		"/>
	</g>
	<g>
		<polygon class="st17" points="395.5,255.5 371.7,329.3 376.2,265.7 		"/>
	</g>
	<g>
		<polygon class="st15" points="371.7,329.3 289.2,361.5 318.7,249.1 376.2,265.7 		"/>
	</g>
	<g>
		<polygon class="st16" points="371.7,329.3 374.3,368.3 395.5,255.5 		"/>
	</g>
	<g>
		<polygon class="st17" points="289.2,361.5 327.8,390.2 371.7,329.3 		"/>
	</g>
	<g>
		<polygon class="st15" points="327.8,390.2 371.7,329.3 374.3,368.3 		"/>
	</g>
	<g>
		<polygon class="st15" points="261.5,234.7 207.4,324.4 248.3,355.4 318.7,249.1 		"/>
	</g>
	<g>
		<polygon class="st17" points="248.3,355.4 318.7,249.1 289.2,361.5 		"/>
	</g>
	<g>
		<polygon class="st14" points="248.3,355.4 214.6,453.1 289.2,361.5 		"/>
	</g>
	<g>
		<polygon class="st17" points="207.4,324.4 248.3,355.4 214.6,453.1 		"/>
	</g>
	<polyline class="st17" points="270.5,384.4 289.2,361.5 255.1,422.8 214.6,453.1 270.5,384.4 	"/>
	<g>
		<polygon class="st18" points="255.1,422.8 271.8,407.3 289.2,361.5 		"/>
	</g>
	<g>
		<polygon class="st14" points="271.8,407.3 289.2,361.5 327.8,390.2 		"/>
	</g>
	<g>
		<polygon class="st18" points="374.3,368.3 327.8,390.2 271.8,407.3 318.7,399.7 		"/>
	</g>
	<g>
		<polygon class="st14" points="374.3,368.3 327.8,447 318.7,399.7 		"/>
	</g>
	<g>
		<polygon class="st15" points="327.8,447 346.5,422.8 374.3,368.3 		"/>
	</g>
	<g>
		<polygon class="st18" points="318.7,399.7 307,488.3 327.8,447 		"/>
	</g>
	<g>
		<polygon class="st19" points="318.7,399.7 284.9,405.2 307,488.3 		"/>
	</g>
	<g>
		<polygon class="st14" points="207.4,324.4 171.2,262.1 238.4,204.4 261.5,234.7 		"/>
	</g>
	<g>
		<polygon class="st15" points="171.2,262.1 139.4,256.4 183.1,239.4 223.5,217.1 		"/>
	</g>
	<g>
		<polygon class="st17" points="196,232.3 183.1,239.4 133.1,245.1 103.6,236 		"/>
	</g>
	<g>
		<polygon class="st14" points="133.1,245.1 78.9,241.7 103.6,236 		"/>
	</g>
	<g>
		<polygon class="st17" points="149.8,200.2 176.6,200.2 166.3,233.5 161.5,233.7 		"/>
	</g>
	<g>
		<polygon class="st19" points="149.8,200.2 139.4,199.1 161.5,233.7 		"/>
	</g>
	<g>
		<polygon class="st14" points="149.8,200.2 137.4,165.9 176.6,200.2 		"/>
	</g>
	<g>
		<polygon class="st15" points="137.4,165.9 149.8,158.2 176.6,200.2 		"/>
	</g>
	<g>
		<polygon class="st16" points="111.8,165.9 149.8,158.2 137.4,165.9 		"/>
	</g>
	<g>
		<polygon class="st17" points="111.8,165.9 81.2,203.1 137.4,165.9 		"/>
	</g>
	<g>
		<polygon class="st14" points="81.2,203.1 110.7,197.1 137.4,165.9 		"/>
	</g>
	<g>
		<polygon class="st17" points="110.7,197.1 137.4,165.9 149.8,200.2 		"/>
	</g>
	<g>
		<polygon class="st18" points="110.7,197.1 103.6,236 110.7,235.7 135.6,199.1 		"/>
	</g>
	<g>
		<polygon class="st17" points="81.2,203.1 103.6,236 110.7,197.1 		"/>
	</g>
	<g>
		<polygon class="st15" points="81.2,203.1 78.9,241.7 103.6,236 		"/>
	</g>
	<g>
		<polygon class="st16" points="81.2,203.1 76.6,215.6 76.6,243.4 78.9,241.7 		"/>
	</g>
	<g>
		<polygon class="st14" points="183.1,239.4 133.1,245.1 75.5,251.6 139.4,256.4 		"/>
	</g>
	<g>
		<polygon class="st15" points="78.9,241.7 75.5,251.6 133.1,245.1 		"/>
	</g>
	<g>
		<polygon class="st16" points="78.9,241.7 76.6,243.4 40,271.8 75.5,251.6 		"/>
	</g>
	<g>
		<polygon class="st14" points="171.2,262.1 130.8,305.3 139.4,256.4 		"/>
	</g>
	<g>
		<polygon class="st17" points="171.2,262.1 207.4,324.4 130.8,305.3 		"/>
	</g>
	<g>
		<polygon class="st15" points="130.8,305.3 86.9,295 139.4,256.4 		"/>
	</g>
	<g>
		<polygon class="st17" points="139.4,256.4 75.5,251.6 86.9,295 		"/>
	</g>
	<g>
		<polygon class="st14" points="75.5,251.6 42.6,292.4 86.9,295 		"/>
	</g>
	<g>
		<polygon class="st15" points="75.5,251.6 40,271.8 42.6,292.4 		"/>
	</g>
	<g>
		<polygon class="st14" points="86.9,295 130.8,305.3 129.3,346.1 		"/>
	</g>
	<g>
		<polygon class="st18" points="130.8,305.3 207.4,324.4 129.3,346.1 		"/>
	</g>
	<g>
		<polygon class="st17" points="42.6,292.4 86.9,295 51.7,368.3 		"/>
	</g>
	<g>
		<polygon class="st17" points="40,271.8 42.6,292.4 18.2,337.1 		"/>
	</g>
	<g>
		<polygon class="st18" points="42.6,292.4 25,392.1 51.7,368.3 		"/>
	</g>
	<g>
		<polygon class="st14" points="25,392.1 18.2,337.1 42.6,292.4 		"/>
	</g>
	<g>
		<polygon class="st14" points="25,392.1 2.8,467.6 0,450 10.2,407.3 		"/>
	</g>
	<g>
		<polygon class="st17" points="10.2,407.3 25,392.1 18.2,337.1 		"/>
	</g>
	<g>
		<polygon class="st18" points="86.9,295 95.9,350.1 129.3,346.1 		"/>
	</g>
	<g>
		<polygon class="st14" points="95.9,350.1 51.7,368.3 86.9,295 		"/>
	</g>
	<g>
		<polygon class="st18" points="95.9,350.1 42.6,447 51.7,368.3 		"/>
	</g>
	<g>
		<polygon class="st14" points="25,392.1 51.7,368.3 42.6,447 		"/>
	</g>
	<g>
		<polygon class="st17" points="25,392.1 42.6,447 2.8,467.6 		"/>
	</g>
	<g>
		<polygon class="st14" points="207.4,324.4 187.4,366 207.4,481.3 214.6,453.1 		"/>
	</g>
	<g>
		<polygon class="st17" points="187.4,366 129.3,346.1 207.4,324.4 		"/>
	</g>
	<g>
		<polygon class="st19" points="187.4,366 168.4,399.7 193.2,399.7 		"/>
	</g>
	<g>
		<polygon class="st18" points="129.3,346.1 168.4,399.7 187.4,366 		"/>
	</g>
	<g>
		<polygon class="st14" points="214.6,453.1 234.5,567.6 255.1,422.8 		"/>
	</g>
	<g>
		<polygon class="st17" points="255.1,422.8 271.8,407.3 234.5,567.6 		"/>
	</g>
	<g>
		<polygon class="st14" points="234.5,567.6 284.9,613.5 232.2,626.6 		"/>
	</g>
	<g>
		<polygon class="st14" points="234.5,567.6 240.6,541.2 244.5,576.7 		"/>
	</g>
	<g>
		<polygon class="st18" points="234.5,567.6 214.6,594.8 232.2,626.6 		"/>
	</g>
	<g>
		<polygon class="st14" points="214.6,594.8 201,514.2 234.5,567.6 		"/>
	</g>
	<g>
		<polygon class="st18" points="201,514.2 214.6,453.1 234.5,567.6 		"/>
	</g>
	<g>
		<polygon class="st19" points="2.8,467.6 42.6,447 25,467.6 		"/>
	</g>
	<g>
		<polygon class="st17" points="25,467.6 25,518.2 2.8,524.6 		"/>
	</g>
	<g>
		<polygon class="st14" points="2.8,467.6 25,467.6 2.8,524.6 		"/>
	</g>
	<g>
		<polygon class="st18" points="2.8,524.6 28,529 25,518.2 		"/>
	</g>
	<g>
		<polygon class="st17" points="25,518.2 48.1,541.2 28,529 		"/>
	</g>
	<g>
		<polygon class="st14" points="2.8,524.6 7.9,550.3 28,529 		"/>
	</g>
	<g>
		<polygon class="st18" points="28,529 48.1,541.2 7.9,550.3 		"/>
	</g>
	<g>
		<polygon class="st14" points="307,488.3 340.1,533.5 327.8,447 		"/>
	</g>
	<g>
		<polygon class="st17" points="346.5,422.8 327.8,447 340.1,533.5 		"/>
	</g>
	<g>
		<polygon class="st17" points="340.1,533.5 371.7,573 351.1,590 		"/>
	</g>
	<g>
		<polygon class="st18" points="307,488.3 290.7,499.7 300.4,463.6 		"/>
	</g>
	<g>
		<polygon class="st19" points="290.7,499.7 307,488.3 317.4,557.5 311.1,570.5 		"/>
	</g>
	<g>
		<polygon class="st18" points="317.4,557.5 307,488.3 340.1,533.5 		"/>
	</g>
	<g>
		<polygon class="st14" points="340.1,533.5 351.1,590 317.4,557.5 		"/>
	</g>
	<g>
		<polygon class="st18" points="311.1,570.5 317.4,557.5 351.1,590 		"/>
	</g>
	<g>
		<polygon class="st18" points="25,518.2 25,467.6 30.9,460.7 		"/>
	</g>
	<g>
		<polygon class="st14" points="95.9,350.1 129.3,346.1 168.4,399.7 		"/>
	</g>
	<g>
		<polygon class="st19" points="95.9,350.1 94.6,366 122.5,368.3 		"/>
	</g>
	<g>
		<polygon class="st19" points="42.6,447 75.5,399.7 89.3,370.7 85.2,369.6 		"/>
	</g>
	<g>
		<polygon class="st20" points="94.6,366 104.5,379.3 122.5,368.3 		"/>
	</g>
	<g>
		<polygon class="st20" points="89.3,370.7 85.2,369.6 95.9,350.1 94.6,366 		"/>
	</g>
	<g>
		<polygon class="st19" points="104.5,379.3 89.3,370.7 94.6,366 		"/>
	</g>
	<g>
		<polygon class="st20" points="122.5,368.3 130.8,406.5 152.7,422.8 		"/>
	</g>
	<g>
		<polygon class="st19" points="122.5,368.3 168.4,399.7 152.7,422.8 		"/>
	</g>
	<g>
		<polygon class="st20" points="168.4,399.7 177.7,399.7 177.7,422.8 152.7,422.8 		"/>
	</g>
	<g>
		<polygon class="st14" points="177.7,399.7 186,399.7 177.7,422.8 		"/>
	</g>
	<g>
		<polygon class="st18" points="130.8,406.5 125.9,450 152.7,422.8 		"/>
	</g>
	<g>
		<polygon class="st14" points="130.8,406.5 120.9,434.9 128.1,487.4 125.9,450 		"/>
	</g>
	<g>
		<polygon class="st19" points="125.9,450 177.7,422.8 152.7,422.8 		"/>
	</g>
	<g>
		<polygon class="st18" points="177.7,422.8 146.9,446.1 125.9,450 		"/>
	</g>
	<g>
		<polygon class="st14" points="146.9,446.1 146.9,493 125.9,450 		"/>
	</g>
	<g>
		<polygon class="st18" points="125.9,450 146.9,493 129.3,500 128.1,487.4 		"/>
	</g>
	<g>
		<polygon class="st18" points="146.9,493 171.2,498.7 149.1,518.2 		"/>
	</g>
	<g>
		<polygon class="st19" points="129.3,500 146.9,493 149.1,518.2 		"/>
	</g>
	<g>
		<polygon class="st19" points="171.2,498.7 177.7,511 149.1,518.2 		"/>
	</g>
	<polygon class="st19" points="146.9,493 146.9,446.1 151.8,494.1 	"/>
</g>
</svg>
