<?xml version="1.0" encoding="utf-8"?>
<!-- Generator: Adobe Illustrator 26.0.3, SVG Export Plug-In . SVG Version: 6.00 Build 0)  -->
<svg version="1.1" id="Layer_1" xmlns="http://www.w3.org/2000/svg" xmlns:xlink="http://www.w3.org/1999/xlink" x="0px" y="0px"
	 width="970px" height="348.6px" viewBox="0 0 970 348.6" style="enable-background:new 0 0 970 348.6;" xml:space="preserve">
<style type="text/css">
	.st0{fill:#FF6200;}
	.st1{fill:#FFCE00;}
	.st2{fill:#D20080;}
</style>
<g>
	<g>
		<path class="st0" d="M112.8,41v56.8c-4.6-1.3-12-2.2-17.7-2.2c-9.2,0-12.2,2.4-12.2,11.4h29.9v52.9H83.9v37.4v8.8H9.5l1.2-8.8
			V93.2c0-40.6,18.4-56.6,65.3-56.6C89.4,36.6,100.3,37.9,112.8,41z"/>
	</g>
	<g>
		<path class="st0" d="M288.7,126.2c0,49.8-26.4,72.1-84.8,72.1s-84.8-22.3-84.8-72.1c0-49.8,26.4-72.1,84.8-72.1
			S288.7,76.4,288.7,126.2z M195.4,126.2c0,14.2,2,18.1,8.5,18.1c6.6,0,8.5-3.9,8.5-18.1c0-14.2-2-18.1-8.5-18.1
			C197.3,108,195.4,112,195.4,126.2z"/>
	</g>
	<g>
		<path class="st0" d="M368,145.2l-5.2,48.7h-75l15.5-64.5l-14.9-71h75.6l5.2,48.5h5.5l5-48.5h74.5L439,127.5l16,66.4h-76.3
			l-5.2-48.7H368z"/>
	</g>
	<g>
		<g>
			<path class="st1" d="M619.1,164c0,13.1,0.7,21,2.2,29.9h-71.9l-1.5-17.9h-0.4c-9,15.1-22.7,22.3-41.5,22.3
				c-34.5,0-51.8-24.3-51.8-71c0-48.9,19-73.2,57.5-73.2c14.2,0,25.3,3.3,34.1,10.1h0.4V18.4l-3.2-14l74,0.7l2.2,11.8V164z
				 M530.4,126.2c0,13.3,2.4,18.1,9.2,18.1c2.6,0,4.8-0.7,6.6-2V110c-1.7-1.3-3.9-2-6.6-2C532.8,108,530.4,112.8,530.4,126.2z"/>
		</g>
	</g>
	<g>
		<g>
			<path class="st1" d="M797.2,126.2c0,49.8-26.4,72.1-84.8,72.1s-84.8-22.3-84.8-72.1c0-49.8,26.4-72.1,84.8-72.1
				S797.2,76.4,797.2,126.2z M703.9,126.2c0,14.2,2,18.1,8.5,18.1c6.6,0,8.5-3.9,8.5-18.1c0-14.2-2-18.1-8.5-18.1
				C705.8,108,703.9,112,703.9,126.2z"/>
		</g>
	</g>
	<g>
		<g>
			<path class="st1" d="M961.1,143c0,53.8-22.1,70.6-91.8,70.6c-22.5,0-38-1.7-58.8-6.8l-2-56.8c11.1,6.3,31,10.5,50.5,10.5
				c21.9,0,28.8-5.5,28.8-21.9V138h-0.4c-5.9,8.7-18.1,13.3-35.8,13.3c-33.4,0-50-16.4-50-47c0-33,19.4-50.3,54.2-50.3
				c17,0,32.1,4.2,43.7,12l2.4-7.6h59.2V143z M873.2,109.1c0,9.2,2.2,12.5,7.9,12.5c3.1,0,5-1.1,6.8-3.7V99.1c-1.7-1.3-3.9-2-6.6-2
				C875.2,97.1,873.2,100.4,873.2,109.1z"/>
		</g>
	</g>
</g>
<path class="st2" d="M169.2,269.4c-8.2,1.7-13.4,8.9-13.4,17.8c0,10.2,6.8,18.2,17.2,18.2c10,0,16.7-7.5,17.1-17.2
	C190.6,276.7,180.5,267.1,169.2,269.4z"/>
<path class="st2" d="M964.5,231.2h-38.9c-13.8,4.8-32.1,6.8-56.1,6.8c-22.5,0-38-1.7-58.8-6.8l0,0H5.5c-0.1,0-0.2,0.1-0.2,0.2V343
	c0,0.1,0.1,0.2,0.2,0.2h959c0.1,0,0.2-0.1,0.2-0.2V231.4C964.7,231.3,964.6,231.2,964.5,231.2z M93.4,315.3c0,0.1,0,0.1-0.1,0.2
	c-4.2,3-10,4.5-16.9,4.5c-18.6,0-32.7-13.8-32.7-32.3c0-19.2,14.4-33.3,33.3-33.3c5.9,0,11.4,1.3,15.5,3.7c0.1,0,0.1,0.1,0.1,0.2
	v14.8c0,0.2-0.2,0.3-0.3,0.2c-3.9-2.7-8.9-4.3-13.9-4.3c-11,0-18.6,7.5-18.6,18.3c0,11.1,7.7,18,18.2,18c5.3,0,10.7-1.8,14.9-4.9
	c0.1-0.1,0.4,0,0.4,0.2V315.3z M172.9,320c-19.5,0-33.1-14.6-33.1-32.8c0-18.2,13.6-32.8,33.2-32.8c19.5,0,33.1,14.6,33.1,32.8
	C206.1,305.5,192.5,320,172.9,320z M295.7,318.7c0,0.1-0.1,0.2-0.2,0.2h-39.1c-0.1,0-0.2-0.1-0.2-0.2v-63c0-0.1,0.1-0.2,0.2-0.2
	h15.2c0.1,0,0.2,0.1,0.2,0.2v49.2c0,0.1,0.1,0.2,0.2,0.2h23.4c0.1,0,0.2,0.1,0.2,0.2V318.7z M383.3,318.7c0,0.1-0.1,0.2-0.2,0.2H344
	c-0.1,0-0.2-0.1-0.2-0.2v-63c0-0.1,0.1-0.2,0.2-0.2h15.2c0.1,0,0.2,0.1,0.2,0.2v49.2c0,0.1,0.1,0.2,0.2,0.2h23.4
	c0.1,0,0.2,0.1,0.2,0.2V318.7z M474.3,318.7c0,0.1-0.1,0.2-0.2,0.2h-42.4c-0.1,0-0.2-0.1-0.2-0.2v-63c0-0.1,0.1-0.2,0.2-0.2h41.2
	c0.1,0,0.2,0.1,0.2,0.2v13.1c0,0.1-0.1,0.2-0.2,0.2h-25.7c-0.1,0-0.2,0.1-0.2,0.2v11.1c0,0.1,0.1,0.2,0.2,0.2h20.7
	c0.1,0,0.2,0.1,0.2,0.2v12.6c0,0.1-0.1,0.2-0.2,0.2h-20.7c-0.1,0-0.2,0.1-0.2,0.2v11.5c0,0.1,0.1,0.2,0.2,0.2h26.9
	c0.1,0,0.2,0.1,0.2,0.2V318.7z M569.5,315.3c0,0.1,0,0.1-0.1,0.2c-4.2,3-10,4.5-16.9,4.5c-18.6,0-32.7-13.8-32.7-32.3
	c0-19.2,14.4-33.3,33.3-33.3c5.9,0,11.4,1.3,15.5,3.7c0.1,0,0.1,0.1,0.1,0.2v14.8c0,0.2-0.2,0.3-0.3,0.2c-3.9-2.7-8.9-4.3-13.9-4.3
	c-11,0-18.6,7.5-18.6,18.3c0,11.1,7.7,18,18.2,18c5.3,0,10.7-1.8,14.9-4.9c0.1-0.1,0.4,0,0.4,0.2V315.3z M664.5,269.1
	c0,0.1-0.1,0.2-0.2,0.2h-16.7c-0.1,0-0.2,0.1-0.2,0.2v49.2c0,0.1-0.1,0.2-0.2,0.2H632c-0.1,0-0.2-0.1-0.2-0.2v-49.2
	c0-0.1-0.1-0.2-0.2-0.2h-16.7c-0.1,0-0.2-0.1-0.2-0.2v-13.4c0-0.1,0.1-0.2,0.2-0.2h49.5c0.1,0,0.2,0.1,0.2,0.2V269.1z M728.4,318.7
	c0,0.1-0.1,0.2-0.2,0.2H713c-0.1,0-0.2-0.1-0.2-0.2v-63c0-0.1,0.1-0.2,0.2-0.2h15.2c0.1,0,0.2,0.1,0.2,0.2V318.7z M836.7,255.8
	l-23.5,63c0,0.1-0.1,0.1-0.2,0.1h-14.2c-0.1,0-0.2-0.1-0.2-0.1l-23.5-63c-0.1-0.1,0.1-0.3,0.2-0.3h15.2c0.1,0,0.2,0.1,0.2,0.2
	l15,43.3c0.1,0.2,0.4,0.2,0.4,0l15-43.3c0-0.1,0.1-0.2,0.2-0.2h15.1C836.7,255.5,836.8,255.7,836.7,255.8z M926.2,318.7
	c0,0.1-0.1,0.2-0.2,0.2h-42.4c-0.1,0-0.2-0.1-0.2-0.2v-63c0-0.1,0.1-0.2,0.2-0.2h41.2c0.1,0,0.2,0.1,0.2,0.2v13.1
	c0,0.1-0.1,0.2-0.2,0.2H899c-0.1,0-0.2,0.1-0.2,0.2v11.1c0,0.1,0.1,0.2,0.2,0.2h20.7c0.1,0,0.2,0.1,0.2,0.2v12.6
	c0,0.1-0.1,0.2-0.2,0.2H899c-0.1,0-0.2,0.1-0.2,0.2v11.5c0,0.1,0.1,0.2,0.2,0.2h26.9c0.1,0,0.2,0.1,0.2,0.2V318.7z"/>
</svg>
