<?xml version="1.0" encoding="utf-8"?>
<!-- Generator: Adobe Illustrator 26.4.1, SVG Export Plug-In . SVG Version: 6.00 Build 0)  -->
<svg version="1.1" id="Layer_1" xmlns="http://www.w3.org/2000/svg" xmlns:xlink="http://www.w3.org/1999/xlink" x="0px" y="0px"
	 width="1024px" height="610.6px" viewBox="0 0 1024 610.6" style="enable-background:new 0 0 1024 610.6;" xml:space="preserve">
<style type="text/css">
	.st0{fill:#5D76C0;}
	.st1{fill:#283F82;}
	.st2{fill:#3554B0;}
	.st3{fill:#8698D0;}
	.st4{fill:#AEBBDF;}
	.st5{fill:#1D3063;}
	.st6{fill:#101E3E;}
	.st7{fill:#0E1A33;}
	.st8{fill:#142042;}
	.st9{fill:#E7EDFC;}
</style>
<image style="display:none;overflow:visible;" width="2588" height="1486" xlink:href="../../../../../Desktop/Screen Shot 2022-08-26 at 6.28.45 PM.jpg"  transform="matrix(0.3809 0 0 0.3809 23.7703 22.5656)">
</image>
<g id="XMLID_00000137852342310819000580000007795058755952224923_">
	<polygon class="st0" points="1000.6,465.2 1003,484.7 945.5,474.1 992,466.7 1000.4,465.4 1000.5,465.2 	"/>
	<polygon class="st1" points="1003,484.7 969.1,499.8 971,494.7 	"/>
	<polygon class="st2" points="1003,484.7 971,494.7 945.5,474.1 	"/>
	<polygon class="st3" points="1001.2,462.4 1000.5,465.2 1000.1,465.3 980.5,459.8 	"/>
	<polygon class="st2" points="1000.5,465.2 1000.4,465.4 1000.1,465.3 	"/>
	<polygon class="st2" points="1000.4,465.4 992,466.7 991.9,466.6 1000.1,465.3 	"/>
	<polygon class="st4" points="1000.1,465.3 991.9,466.6 980.5,459.8 	"/>
	<polygon class="st2" points="992,466.7 945.5,474.1 991.8,466.6 	"/>
	<polygon class="st2" points="992,466.7 991.8,466.6 991.9,466.6 	"/>
	<polygon class="st3" points="991.9,466.6 991.8,466.6 934.4,452.9 980.5,459.8 	"/>
	<polygon class="st4" points="991.8,466.6 945.5,474.1 934.4,452.9 	"/>
	<polygon class="st5" points="971,494.7 969.1,499.8 913.7,503.3 	"/>
	<polygon class="st3" points="971,494.7 913.7,503.3 945.5,474.1 	"/>
	<polygon class="st1" points="969.1,499.8 834,523.5 913.7,503.3 	"/>
	<polygon class="st2" points="934.4,452.9 945.5,474.1 895.5,460.7 	"/>
	<polygon class="st2" points="945.5,474.1 913.7,503.3 908.2,480.6 	"/>
	<polygon class="st0" points="945.5,474.1 908.2,480.6 895.5,460.7 	"/>
	<polygon class="st0" points="934.4,452.9 895.5,460.7 863.5,444 	"/>
	<polygon class="st3" points="908.2,480.6 913.7,503.3 881.3,495.5 	"/>
	<polygon class="st5" points="913.7,503.3 834,523.5 741.8,534.6 	"/>
	<polygon class="st0" points="913.7,503.3 829.6,518.6 881.3,495.5 	"/>
	<polygon class="st4" points="895.5,460.7 908.2,480.6 862.6,479.7 	"/>
	<polygon class="st0" points="908.2,480.6 881.3,495.5 846.4,491 	"/>
	<polygon class="st3" points="908.2,480.6 846.4,491 862.6,479.7 	"/>
	<polygon class="st2" points="895.5,460.7 862.6,479.7 843.8,466.7 	"/>
	<polygon class="st3" points="895.5,460.7 843.8,466.7 814.8,457 	"/>
	<polygon class="st4" points="895.5,460.7 814.8,457 863.5,444 	"/>
	<polygon class="st2" points="881.3,495.5 829.6,518.6 846.4,491 	"/>
	<polygon class="st3" points="863.5,444 814.8,457 808.5,445.1 	"/>
	<polygon class="st0" points="863.5,444 808.5,445.1 810.3,436.7 	"/>
	<polygon class="st0" points="862.6,479.7 846.4,491 837.8,485.3 	"/>
	<polygon class="st4" points="862.6,479.7 837.8,485.3 843.8,466.7 	"/>
	<polygon class="st3" points="846.4,491 829.6,518.6 814.8,496.2 	"/>
	<polygon class="st4" points="846.4,491 786.5,500.7 786.3,500.7 837.8,485.3 	"/>
	<polygon class="st0" points="843.8,466.7 837.8,485.3 814.8,457 	"/>
	<polygon class="st3" points="814.8,457 837.8,485.3 784.8,467.6 	"/>
	<polygon class="st0" points="837.8,485.3 786.3,500.7 786.3,500.7 786.3,500.7 740.5,501.4 	"/>
	<polygon class="st4" points="837.8,485.3 715.6,464.6 784.8,467.6 	"/>
	<polygon class="st3" points="837.6,485.3 740.5,501.4 763.4,481.9 	"/>
	<polygon class="st0" points="837.6,485.3 763.4,481.9 715.5,464.6 715.5,464.6 	"/>
	<polygon class="st2" points="834,523.5 681.9,550.8 711.7,538.3 	"/>
	<polygon class="st2" points="814.8,496.2 829.6,518.6 813.3,510.4 	"/>
	<polygon class="st0" points="829.6,518.6 741.8,534.6 813.3,510.4 	"/>
	<polygon class="st4" points="808.5,445.1 814.8,457 774.9,458.1 	"/>
	<polygon class="st0" points="814.8,496.2 813.3,510.4 741.1,521.9 	"/>
	<polygon class="st3" points="814.8,457 784.8,467.6 774.9,458.1 	"/>
	<polygon class="st3" points="814.8,496.2 741.1,521.9 734,508.9 785.9,500.8 786.3,500.7 786.3,500.7 786.3,500.7 786.5,500.7 	"/>
	<polygon class="st2" points="813.3,510.4 741.8,534.6 741.1,521.9 	"/>
	<polygon class="st2" points="810.3,436.7 808.5,445.1 739.1,437 	"/>
	<polygon class="st4" points="810.3,436.7 739.1,437 719.5,424.8 	"/>
	<polygon class="st2" points="808.5,445.1 774.9,458.1 715.6,464.6 	"/>
	<polygon class="st4" points="808.5,445.1 715.6,464.6 715.5,464.6 715.4,464.6 715.3,464.6 663.7,467.4 	"/>
	<polygon class="st1" points="808.3,445.1 663.5,467.4 692.5,452.9 	"/>
	<polygon class="st6" points="808.3,445.1 692.5,452.9 739.1,437 	"/>
	<polygon class="st4" points="786.3,500.7 785.9,500.8 733.1,508.9 740.5,501.4 	"/>
	<polygon class="st0" points="784.8,467.6 715.6,464.6 774.9,458.1 	"/>
	<polygon class="st2" points="763.4,481.9 740.5,501.4 701.5,489.7 	"/>
	<polygon class="st3" points="763.4,481.9 701.5,489.7 715.4,464.6 715.5,464.6 	"/>
	<polygon class="st0" points="741.1,521.9 741.8,534.6 734,508.9 	"/>
	<polygon class="st2" points="734,508.9 741.8,534.6 711.7,538.3 	"/>
	<polygon class="st3" points="740.5,501.4 733.1,508.9 686.9,512.6 	"/>
	<polygon class="st0" points="740.5,501.4 686.9,512.6 701.5,489.7 	"/>
	<polygon class="st5" points="739.1,437 692.5,452.9 690.6,428.3 	"/>
	<polygon class="st3" points="739.1,437 690.6,428.3 719.5,424.8 	"/>
	<polygon class="st0" points="734,508.9 711.7,538.3 711.1,513.9 	"/>
	<polygon class="st0" points="733.1,508.9 711.1,513.9 686.9,512.6 	"/>
	<polygon class="st0" points="719.5,424.8 690.6,428.3 649.5,421.4 	"/>
	<polygon class="st3" points="719.5,424.8 649.5,421.4 656.6,416.6 	"/>
	<polygon class="st0" points="715.5,464.6 715.5,464.6 715.5,464.6 715.4,464.6 	"/>
	<polygon class="st3" points="715.5,464.6 715.4,464.6 715.4,464.6 715.4,464.6 	"/>
	<polygon class="st0" points="715.4,464.6 715.4,464.6 715.3,464.6 	"/>
	<polygon class="st0" points="715.4,464.6 715.4,464.6 686.2,469 685.8,468.5 715.3,464.6 	"/>
	<polygon class="st0" points="715.4,464.6 701.5,489.7 686.2,469 	"/>
	<polygon class="st3" points="715.3,464.6 685.8,468.5 640.6,475.8 663.7,467.4 	"/>
	<polygon class="st3" points="711.1,513.9 711.7,538.3 616.4,555.4 	"/>
	<polygon class="st1" points="711.7,538.3 681.9,550.8 616.4,555.4 	"/>
	<polygon class="st2" points="711.1,513.9 616.4,555.4 597.5,546.1 	"/>
	<polygon class="st3" points="711.1,513.9 597.5,546.1 573.6,535.9 604,531 604,531 	"/>
	<polygon class="st4" points="711.1,513.9 604,531 604,531 	"/>
	<polygon class="st4" points="711.1,513.9 604,531 686.9,512.6 	"/>
	<polygon class="st3" points="686.2,469 701.5,489.7 662.4,487.5 685,469.2 	"/>
	<polygon class="st2" points="701.5,489.7 686.9,512.6 653.5,508.7 	"/>
	<polygon class="st0" points="701.5,489.7 653.5,508.7 662.4,487.5 	"/>
	<polygon class="st1" points="690.6,428.3 692.5,452.9 650.4,434.2 	"/>
	<polygon class="st6" points="692.5,452.9 663.5,467.4 650.4,434.2 	"/>
	<polygon class="st6" points="690.6,428.3 650.4,434.2 661,423.6 	"/>
	<polygon class="st3" points="686.9,512.6 604,531 604,531 653.5,508.7 	"/>
	<polygon class="st3" points="686.2,469 685,469.2 685.8,468.5 	"/>
	<polygon class="st2" points="685.8,468.5 685,469.2 640.6,475.8 	"/>
	<polygon class="st2" points="685,469.2 662.4,487.5 640.6,475.8 	"/>
	<polygon class="st5" points="681.9,550.8 577.5,569.3 616.4,555.4 	"/>
	<polygon class="st5" points="650.4,434.2 663.5,467.4 572.8,450.7 	"/>
	<polygon class="st2" points="663.5,467.4 640.6,475.8 510.6,490.6 	"/>
	<polygon class="st1" points="663.5,467.4 510.6,490.6 572.8,450.7 	"/>
	<polygon class="st3" points="662.4,487.5 653.5,508.7 587.6,498.7 	"/>
	<polygon class="st0" points="662.4,487.5 587.6,498.7 640.6,475.8 	"/>
	<polygon class="st5" points="661,423.6 650.4,434.2 581.7,431.1 	"/>
	<polygon class="st1" points="661,423.6 581.7,431.1 649.5,421.4 	"/>
	<polygon class="st4" points="656.6,416.6 649.5,421.4 640.3,416.5 	"/>
	<polygon class="st4" points="653.5,508.7 604,531 604,531 604,531 575.3,524.5 	"/>
	<polygon class="st0" points="653.5,508.7 575.3,524.5 587.6,498.7 	"/>
	<polygon class="st1" points="650.4,434.2 572.8,450.7 581.7,431.1 	"/>
	<polygon class="st0" points="649.5,421.4 581.7,431.1 640.3,416.5 	"/>
	<polygon class="st3" points="640.6,475.8 587.6,498.7 554.7,489.7 	"/>
	<polygon class="st3" points="640.6,475.8 554.7,489.7 510.6,490.6 	"/>
	<polygon class="st1" points="621.1,339 640.3,416.5 611,390.9 	"/>
	<polygon class="st4" points="640.3,416.5 581.7,431.1 471.2,440.3 598.5,423.6 	"/>
	<polygon class="st5" points="640.3,416.5 598.5,423.6 598.9,422.4 	"/>
	<polygon class="st5" points="640.3,416.5 598.9,422.4 611,390.9 	"/>
	<polygon class="st5" points="607.7,291.3 621.1,339 597.6,334.8 	"/>
	<polygon class="st7" points="621.1,339 611,390.9 597.6,334.8 	"/>
	<polygon class="st2" points="616.4,555.4 577.5,569.3 547.2,566.6 	"/>
	<polygon class="st0" points="616.4,555.4 547.2,566.6 597.5,546.1 	"/>
	<polygon class="st0" points="597.6,334.8 611,390.9 570.8,358.3 	"/>
	<polygon class="st8" points="611,390.9 598.9,422.4 596.9,422.6 554.9,396.8 	"/>
	<polygon class="st9" points="611,390.9 554.9,396.8 570.8,358.3 	"/>
	<polygon class="st8" points="596.8,239.4 607.7,291.3 565.8,210.1 	"/>
	<polygon class="st1" points="565.8,210.1 607.7,291.3 597.6,334.8 	"/>
	<polygon class="st3" points="604,531 604,531 604,531 	"/>
	<polygon class="st0" points="604,531 573.6,535.9 575.3,524.5 	"/>
	<polygon class="st8" points="598.9,422.4 598.5,423.6 596.9,422.6 	"/>
	<polygon class="st5" points="598.5,423.6 471.2,440.3 594.4,423 	"/>
	<polygon class="st1" points="598.5,423.6 594.4,423 596.9,422.6 	"/>
	<polygon class="st9" points="565.8,210.1 597.6,334.8 570.8,358.3 	"/>
	<polygon class="st2" points="597.5,546.1 547.2,566.6 573.6,535.9 	"/>
	<polygon class="st1" points="596.9,422.6 594.4,423 528.2,413.5 554.9,396.8 	"/>
	<polygon class="st1" points="568.3,121.4 596.8,239.4 569.2,166.6 	"/>
	<polygon class="st7" points="569.2,166.6 596.8,239.4 565.8,210.1 565.8,209.8 566,210.1 565.9,209.5 	"/>
	<polygon class="st5" points="594.4,423 471.2,440.3 528.2,413.5 	"/>
	<polygon class="st3" points="587.6,498.7 575.3,524.5 482.1,526 	"/>
	<polygon class="st4" points="587.6,498.7 482.1,526 510.6,490.6 	"/>
	<polygon class="st0" points="587.6,498.7 510.6,490.6 535.7,490.1 	"/>
	<polygon class="st0" points="587.6,498.7 555,493.1 554.7,489.7 	"/>
	<polygon class="st6" points="581.7,431.1 572.8,450.7 495.5,441.7 	"/>
	<polygon class="st3" points="581.7,431.1 398.9,453.4 471.2,440.3 	"/>
	<polygon class="st2" points="577.5,569.3 485.8,582.4 500.3,574.4 	"/>
	<polygon class="st5" points="577.5,569.3 500.3,574.4 547.2,566.6 	"/>
	<polygon class="st3" points="575.3,524.5 573.6,535.9 500,546.7 	"/>
	<polygon class="st2" points="575.3,524.5 500,546.7 482.1,526 	"/>
	<polygon class="st0" points="573.6,535.9 547.2,566.6 500,546.7 	"/>
	<polygon class="st5" points="572.8,450.7 510.6,490.6 495.5,441.7 	"/>
	<polygon class="st0" points="565.8,210.1 570.8,358.3 531.5,328.1 	"/>
	<polygon class="st4" points="570.8,358.3 554.9,396.8 531.5,328.1 	"/>
	<polygon class="st8" points="568.3,121.4 569.2,166.6 546,131.6 546,131.4 	"/>
	<polygon class="st5" points="546,131.6 569.2,166.6 565.9,209.5 	"/>
	<polygon class="st5" points="547.4,46.8 568.3,121.4 529.8,67.8 	"/>
	<polygon class="st1" points="529.8,67.8 568.3,121.4 546,131.4 533.7,82.9 	"/>
	<polygon class="st4" points="565.9,209.5 566,210.1 565.8,209.8 	"/>
	<polygon class="st4" points="546,131.6 565.9,209.5 565.8,209.8 565.7,209.5 545.9,131.4 	"/>
	<polygon class="st5" points="565.7,209.5 565.8,209.8 565.8,210.1 	"/>
	<polygon class="st9" points="533.4,153.3 565.8,210.1 399.2,217.6 483.3,66.9 483.8,66.9 484,66.9 	"/>
	<polygon class="st3" points="565.8,210.1 531.5,328.1 460.3,304.7 	"/>
	<polygon class="st4" points="565.8,210.1 460.3,304.7 399.2,217.6 	"/>
	<polygon class="st4" points="565.7,209.5 533.4,153.3 484.3,66.9 530,68.6 533.7,82.9 545.9,131.4 	"/>
	<polygon class="st2" points="554.7,489.7 555,493.1 535.7,490.1 	"/>
	<polygon class="st0" points="531.5,328.1 554.9,396.8 449.5,408.5 453.6,370 	"/>
	<polygon class="st8" points="554.9,396.8 528.2,413.5 494.7,416 	"/>
	<polygon class="st7" points="554.9,396.8 494.7,416 449.5,408.5 	"/>
	<polygon class="st3" points="554.7,489.7 535.7,490.1 510.6,490.6 	"/>
	<polygon class="st7" points="547.4,46.8 529.8,67.8 534.6,38.2 	"/>
	<polygon class="st3" points="547.2,566.6 500.3,574.4 500,546.7 	"/>
	<polygon class="st8" points="546,131.6 545.9,131.4 546,131.4 	"/>
	<polygon class="st1" points="533.7,82.9 546,131.4 545.9,131.4 	"/>
	<polygon class="st8" points="534.6,38.2 529.8,67.8 482.1,53.5 	"/>
	<polygon class="st1" points="534.6,38.2 482.1,53.5 470.1,36.8 	"/>
	<polygon class="st4" points="533.4,153.3 484,66.9 484.2,66.9 484.3,66.9 	"/>
	<polygon class="st9" points="531.5,328.1 453.6,370 460.3,304.7 	"/>
	<polygon class="st7" points="529.8,67.8 484.3,66.9 484.2,66.9 483.8,66.1 483.7,66.2 482.1,53.5 	"/>
	<polygon class="st7" points="528.2,413.5 471.2,440.3 494.7,416 	"/>
	<polygon class="st6" points="495.5,441.7 510.6,490.6 429.1,478.6 	"/>
	<polygon class="st0" points="510.6,490.6 482.1,526 463.4,516.9 	"/>
	<polygon class="st3" points="510.6,490.6 462.6,516.5 425.2,538.3 368.8,512.9 	"/>
	<polygon class="st5" points="510.6,490.6 368.8,512.9 429.1,478.6 	"/>
	<polygon class="st0" points="500,546.7 500.3,574.4 485.8,577 	"/>
	<polygon class="st1" points="500.3,574.4 485.8,582.4 485.8,577 	"/>
	<polygon class="st4" points="482.1,526 500,546.7 484.3,548.9 	"/>
	<polygon class="st3" points="500,546.7 485.8,577 484.3,548.9 	"/>
	<polygon class="st1" points="495.5,441.7 429.1,478.6 413.7,459.6 	"/>
	<polygon class="st6" points="495.5,441.7 413.7,459.6 398.9,453.4 	"/>
	<polygon class="st1" points="494.7,416 471.2,440.3 413.5,424.4 	"/>
	<polygon class="st5" points="494.7,416 413.5,424.4 449.5,408.5 	"/>
	<polygon class="st4" points="484.3,548.9 485.8,577 475,574.4 	"/>
	<polygon class="st5" points="485.8,577 485.8,582.4 449.4,569.5 	"/>
	<polygon class="st5" points="485.8,577 449.4,569.5 475,574.4 	"/>
	<polygon class="st1" points="485.8,582.4 416.2,570.1 449.4,569.5 	"/>
	<polygon class="st0" points="482.1,526 484.3,548.9 476.5,547.8 	"/>
	<polygon class="st0" points="484.3,548.9 475,574.4 476.5,547.8 	"/>
	<polygon class="st1" points="482.1,53.5 483.7,66.2 482.7,66.8 406.8,57.7 	"/>
	<polygon class="st3" points="483.3,66.9 399.2,217.6 261.1,215.1 482.9,66.9 482.5,66.9 482.6,66.9 	"/>
	<polygon class="st8" points="482.7,66.8 482.6,66.9 338.1,62.7 406.8,57.7 	"/>
	<polygon class="st4" points="482.5,66.9 261.1,215.1 338.1,62.7 	"/>
	<polygon class="st7" points="470.1,36.8 482.1,53.5 406.8,57.7 	"/>
	<polygon class="st2" points="482.1,526 476.5,547.8 462.9,517.2 463.4,516.9 	"/>
	<polygon class="st4" points="462.9,517.2 476.5,547.8 425.2,538.3 	"/>
	<polygon class="st9" points="476.5,547.8 475,574.4 449.4,569.5 	"/>
	<polygon class="st4" points="476.5,547.8 449.4,569.5 450.1,555.8 	"/>
	<polygon class="st9" points="476.5,547.8 450.1,555.8 425.2,538.3 	"/>
	<polygon class="st0" points="471.2,440.3 398.9,453.4 313.8,459.6 	"/>
	<polygon class="st8" points="471.2,440.3 313.8,459.6 336.4,437 	"/>
	<polygon class="st5" points="471.2,440.3 336.4,437 413.5,424.4 	"/>
	<polygon class="st5" points="470.1,36.8 406.8,57.7 336.1,33.7 	"/>
	<polygon class="st9" points="399.2,217.6 460.3,304.7 351.5,344 	"/>
	<polygon class="st3" points="460.3,304.7 453.6,370 449.5,408.5 406.8,396 	"/>
	<polygon class="st0" points="460.3,304.7 406.8,396 412.6,345.7 	"/>
	<polygon class="st3" points="460.3,304.7 412.6,345.7 351.5,344 	"/>
	<polygon class="st9" points="450.1,555.8 449.4,569.5 425.5,554.7 	"/>
	<polygon class="st4" points="450.1,555.8 425.5,554.7 425.2,538.3 	"/>
	<polygon class="st1" points="449.5,408.5 413.5,424.4 254.4,431.1 	"/>
	<polygon class="st3" points="449.5,408.5 254.4,431.1 310.5,405.2 	"/>
	<polygon class="st0" points="449.5,408.5 310.5,405.2 406.8,396 	"/>
	<polygon class="st2" points="449.4,569.5 416.2,570.1 388.7,555.4 	"/>
	<polygon class="st4" points="449.4,569.5 388.7,555.4 425.5,554.7 	"/>
	<polygon class="st5" points="413.7,459.6 429.1,478.6 405.1,476.3 	"/>
	<polygon class="st6" points="429.1,478.6 368.8,512.9 326.7,503.1 	"/>
	<polygon class="st1" points="429.1,478.6 326.7,503.1 405.1,476.3 	"/>
	<polygon class="st3" points="425.2,538.3 425.5,554.7 388.7,555.4 	"/>
	<polygon class="st4" points="425.2,538.3 388.7,555.4 356,536 	"/>
	<polygon class="st9" points="425.2,538.3 356,536 380.5,529.9 	"/>
	<polygon class="st4" points="425.2,538.3 380.5,529.9 368.8,512.9 	"/>
	<polygon class="st5" points="416.2,570.1 348.4,554.2 388.7,555.4 	"/>
	<polygon class="st6" points="413.7,459.6 405.1,476.3 363.5,475.8 	"/>
	<polygon class="st5" points="413.7,459.6 363.5,475.8 398.9,453.4 	"/>
	<polygon class="st8" points="413.5,424.4 336.4,437 254.4,431.1 	"/>
	<polygon class="st3" points="412.6,345.7 406.8,396 370.8,385.1 	"/>
	<polygon class="st0" points="412.6,345.7 370.8,385.1 337.3,375.9 	"/>
	<polygon class="st9" points="412.6,345.7 337.3,375.9 351.5,344 	"/>
	<polygon class="st1" points="406.8,57.7 338.1,62.7 336.1,33.7 	"/>
	<polygon class="st9" points="406.8,396 310.5,405.2 370.8,385.1 	"/>
	<polygon class="st5" points="405.1,476.3 326.7,503.1 363.5,475.8 	"/>
	<polygon class="st0" points="399.2,217.6 351.5,344 261.1,215.1 	"/>
	<polygon class="st1" points="398.9,453.4 363.5,475.8 310.3,466 	"/>
	<polygon class="st1" points="398.9,453.4 310.3,466 307.4,465.4 	"/>
	<polygon class="st4" points="398.9,453.4 307.4,465.4 215.6,479.4 313.8,459.6 	"/>
	<polygon class="st1" points="388.7,555.4 348.4,554.2 318.8,541.6 	"/>
	<polygon class="st9" points="388.7,555.4 318.8,541.6 356,536 	"/>
	<polygon class="st0" points="368.8,512.9 380.5,529.9 280.6,509.3 	"/>
	<polygon class="st4" points="380.5,529.9 356,536 280.6,509.3 	"/>
	<polygon class="st3" points="370.8,385.1 310.5,405.2 337.3,375.9 	"/>
	<polygon class="st2" points="368.8,512.9 280.6,509.3 326.7,503.1 	"/>
	<polygon class="st1" points="363.5,475.8 326.7,503.1 276.5,491.9 	"/>
	<polygon class="st5" points="363.5,475.8 276.5,491.9 306.1,466.6 310.3,466 	"/>
	<polygon class="st3" points="356,536 318.8,541.6 280.6,509.3 	"/>
	<polygon class="st9" points="261.1,215.1 351.5,344 246.8,256.1 	"/>
	<polygon class="st3" points="351.5,344 337.3,375.9 293.7,351.2 	"/>
	<polygon class="st0" points="351.5,344 293.7,351.2 292.9,350.7 196.6,363.3 246.8,256.1 	"/>
	<polygon class="st2" points="348.4,554.2 277.5,538.6 318.8,541.6 	"/>
	<polygon class="st7" points="336.1,33.7 338.1,62.7 258,32.3 	"/>
	<polygon class="st9" points="338.1,62.7 261.1,215.1 241,63.6 	"/>
	<polygon class="st5" points="338.1,62.7 241,63.6 258,32.3 	"/>
	<polygon class="st0" points="337.3,375.9 310.5,405.2 293.1,351.3 292.9,350.8 	"/>
	<polygon class="st5" points="336.4,437 313.8,459.6 241.8,449.5 	"/>
	<polygon class="st7" points="336.4,437 241.8,449.5 254.4,431.1 	"/>
	<polygon class="st4" points="326.7,503.1 280.6,509.3 215.6,479.4 	"/>
	<polygon class="st5" points="318.8,541.6 277.5,538.6 244.7,526 	"/>
	<polygon class="st0" points="318.8,541.6 280,532.7 280.6,509.3 	"/>
	<polygon class="st3" points="313.8,459.6 215.6,479.4 141.4,479.7 	"/>
	<polygon class="st1" points="313.8,459.6 141.4,479.7 241.8,449.5 	"/>
	<polygon class="st4" points="292.9,350.8 310.3,405.2 196.8,363.4 	"/>
	<polygon class="st9" points="310.5,405.2 254.4,431.1 237.6,401 	"/>
	<polygon class="st0" points="310.5,405.2 237.6,401 196.6,363.3 	"/>
	<polygon class="st5" points="310.3,466 306.1,466.6 307.4,465.4 	"/>
	<polygon class="st6" points="307.4,465.4 306.1,466.6 215.6,479.4 	"/>
	<polygon class="st6" points="306.1,466.6 276.5,491.9 215.6,479.4 	"/>
	<polygon class="st4" points="280.6,509.3 280,532.7 244.7,526 	"/>
	<polygon class="st3" points="280.6,509.3 244.7,526 218.3,520 	"/>
	<polygon class="st0" points="280.6,509.3 218.3,520 218.7,497 	"/>
	<polygon class="st3" points="280.6,509.3 218.7,497 215.6,479.4 	"/>
	<polygon class="st1" points="277.5,538.6 207.5,522.4 244.7,526 	"/>
	<polygon class="st3" points="241,63.6 261.1,215.1 94.8,173.1 92.6,171.9 	"/>
	<polygon class="st4" points="261.1,215.1 246.8,256.1 94.8,173.1 	"/>
	<polygon class="st1" points="258,32.3 241,63.6 133.3,30.1 	"/>
	<polygon class="st4" points="237.6,401 254.4,431.1 150.6,445.4 	"/>
	<polygon class="st8" points="254.4,431.1 241.8,449.5 150.6,445.4 	"/>
	<polygon class="st4" points="246.8,256.1 196.6,363.3 110.4,273.7 	"/>
	<polygon class="st9" points="246.8,256.1 110.4,273.7 92.1,172.5 	"/>
	<polygon class="st2" points="244.7,526 207.5,522.4 150.4,506.3 	"/>
	<polygon class="st7" points="241.8,449.5 141.4,479.7 150.6,445.4 	"/>
	<polygon class="st9" points="241,63.6 92.6,171.9 92,171.6 92.1,172.3 92,172.4 67.7,60.2 	"/>
	<polygon class="st5" points="241,63.6 67.7,60.2 133.3,30.1 	"/>
	<polygon class="st9" points="237.6,401 150.6,445.4 196.6,363.3 	"/>
	<polygon class="st4" points="215.6,479.4 218.7,497 141.4,479.7 	"/>
	<polygon class="st4" points="218.7,497 218.3,520 150.4,506.3 	"/>
	<polygon class="st3" points="218.7,497 150.4,506.3 141.4,479.7 	"/>
	<polygon class="st5" points="207.5,522.4 168.4,516 150.4,506.3 	"/>
	<polygon class="st3" points="110.4,273.7 196.6,363.3 150.6,445.4 130.9,361.3 130.6,360.1 130.6,359.9 130.6,359.7 130.5,359.7 
		130.5,359.6 130.7,359.5 130.3,359 	"/>
	<polygon class="st5" points="142.5,412.4 150.6,445.4 117.5,437.3 117.5,437.2 117.6,437.1 117.6,437.1 	"/>
	<polygon class="st1" points="150.6,445.4 141.4,479.7 117.5,437.3 117.5,437.3 	"/>
	<polygon class="st0" points="141.4,479.7 150.4,506.3 139.7,498.9 	"/>
	<polygon class="st1" points="130.9,361.3 142.6,412.3 142.5,412.4 142.5,412.3 117.6,437.1 117.6,437.1 130.6,360.1 	"/>
	<polygon class="st5" points="142.5,412.3 142.5,412.4 117.6,437.1 	"/>
	<polygon class="st7" points="117.5,437.3 141.4,479.7 128,488 	"/>
	<polygon class="st8" points="141.4,479.7 139.7,498.9 128,488 	"/>
	<polygon class="st4" points="139.7,498.9 129.4,495.3 128,488 	"/>
	<polygon class="st8" points="133.3,30.1 67.7,60.2 49.3,27.6 	"/>
	<polygon class="st5" points="130.6,359.7 130.6,359.9 130.5,359.7 	"/>
	<polygon class="st5" points="130.5,359.7 130.6,359.9 117.5,437.2 103.8,370.8 	"/>
	<polygon class="st1" points="130.5,359.6 103.8,370.8 103.7,370.4 102.8,313.1 130.3,359 	"/>
	<polygon class="st5" points="110.4,273.7 130.3,359 102.8,313.1 	"/>
	<polygon class="st3" points="128,488 129.4,495.3 123.2,488.3 	"/>
	<polygon class="st0" points="117.5,437.3 128,488 105.4,411.9 101,358.5 103.7,370.8 117.5,437.2 117.5,437.3 	"/>
	<polygon class="st4" points="105.4,411.9 128,488 123.2,488.3 	"/>
	<polygon class="st1" points="117.5,437.3 117.5,437.3 117.5,437.3 	"/>
	<polygon class="st0" points="117.5,437.2 117.5,437.3 117.5,437.3 117.5,437.2 	"/>
	<polygon class="st5" points="103.8,370.8 117.5,437.2 103.7,370.8 	"/>
	<polygon class="st8" points="100.3,228.5 110.4,273.7 82.6,272.9 	"/>
	<polygon class="st1" points="110.4,273.7 102.8,313.1 82.6,272.9 	"/>
	<polygon class="st4" points="101,358.5 105.4,411.9 80.2,291.3 100.2,354.7 	"/>
	<polygon class="st0" points="103.7,370.4 103.8,370.8 103.7,370.8 	"/>
	<polygon class="st8" points="103.7,370.4 103.7,370.8 101,358.5 100.9,356.9 	"/>
	<polygon class="st8" points="103.7,370.4 100.9,356.9 82.6,272.9 102.8,313.1 	"/>
	<polygon class="st8" points="101,358.5 100.2,354.7 100.9,356.9 	"/>
	<polygon class="st8" points="82.6,272.9 100.9,356.9 100.2,354.7 	"/>
	<polygon class="st1" points="92,172.4 100.3,228.5 63.7,183.3 	"/>
	<polygon class="st5" points="63.7,183.3 100.3,228.5 82.6,272.9 	"/>
	<polygon class="st3" points="100.2,354.7 80.2,291.3 82.6,272.9 	"/>
	<polygon class="st5" points="67.7,60.2 92,172.4 52.6,132.2 	"/>
	<polygon class="st7" points="52.6,132.2 92,172.4 63.7,183.3 	"/>
	<polygon class="st0" points="70.2,214.6 82.6,272.9 80.2,291.3 	"/>
	<polygon class="st3" points="70.2,214.6 80.2,291.3 59,186.1 	"/>
	<polygon class="st4" points="48.4,113.7 70.2,214.6 59,186.1 45.6,101.6 	"/>
	<polygon class="st1" points="49.3,27.6 67.7,60.2 37.5,32.6 	"/>
	<polygon class="st1" points="67.7,60.2 52.6,132.2 48.4,113.7 45.3,99.2 37.6,66.5 37.6,66.5 33.4,47.7 	"/>
	<polygon class="st5" points="67.7,60.2 33.4,47.7 37.5,32.6 	"/>
	<polygon class="st0" points="45.6,101.6 59,186.1 40.4,102.9 45.1,99.3 	"/>
	<polygon class="st0" points="49.3,27.6 37.5,32.6 38.6,27.6 	"/>
	<polygon class="st1" points="48.4,113.7 45.6,101.6 45.3,99.2 	"/>
	<polygon class="st1" points="45.6,101.6 45.1,99.3 45.3,99.2 	"/>
	<polygon class="st1" points="37.6,66.5 45.3,99.2 45.1,99.3 	"/>
	<polygon class="st4" points="37.6,66.5 45.1,99.3 40.4,102.9 	"/>
	<polygon class="st3" points="37.6,66.5 40.4,102.9 29.8,56 37.6,66.5 	"/>
	<polygon class="st3" points="38.6,27.6 37.5,32.6 32.8,32.4 	"/>
	<polygon class="st0" points="33.4,47.7 37.6,66.5 29.8,56 	"/>
	<polygon class="st3" points="37.5,32.6 33.4,47.7 28.1,37.8 	"/>
	<polygon class="st4" points="37.5,32.6 28.1,37.8 32.8,32.4 	"/>
	<polygon class="st4" points="28.1,37.8 33.4,47.7 29.8,56 	"/>
</g>
</svg>
