<?xml version="1.0" encoding="utf-8"?>
<!-- Generator: Adobe Illustrator 26.2.1, SVG Export Plug-In . SVG Version: 6.00 Build 0)  -->
<svg version="1.1" id="Layer_1" xmlns="http://www.w3.org/2000/svg" xmlns:xlink="http://www.w3.org/1999/xlink" x="0px" y="0px"
	 width="493.4px" height="418px" viewBox="0 0 493.4 418" style="enable-background:new 0 0 493.4 418;" xml:space="preserve">
<style type="text/css">
	.st0{fill:#283F82;}
	.st1{fill:#1D3063;}
	.st2{fill:#3554B0;}
	.st3{fill:#5D76C0;}
	.st4{fill:#8698D0;}
	.st5{fill:#AEBBDF;}
	.st6{fill:#142042;}
	.st7{fill-rule:evenodd;clip-rule:evenodd;fill:#FFB300;}
	.st8{fill-rule:evenodd;clip-rule:evenodd;fill:#FF7D00;}
	.st9{fill-rule:evenodd;clip-rule:evenodd;fill:#FF9800;}
	.st10{fill-rule:evenodd;clip-rule:evenodd;fill:#FF6200;}
	.st11{fill-rule:evenodd;clip-rule:evenodd;fill:#FFCE00;}
</style>
<g>
	<g>
		<polygon id="triangle36_139_" class="st0" points="125.8,326.7 192.2,359.8 143.9,361.6 		"/>
		<polygon id="triangle36_140_" class="st1" points="125.8,326.7 192.2,359.8 146.8,249.5 		"/>
		<polygon id="triangle36_141_" class="st0" points="125.8,326.7 146.8,249.5 51.8,321.4 		"/>
		<polygon id="triangle36_142_" class="st2" points="51.8,321.4 146.8,249.5 0,220.6 		"/>
		<polygon id="triangle36_143_" class="st3" points="0,220.6 146.8,249.5 90.6,115.7 		"/>
		<polygon id="triangle36_144_" class="st4" points="0,220.6 23.1,106.3 90.6,115.7 		"/>
		<polygon id="triangle36_145_" class="st5" points="23.1,106.3 106.2,25.3 90.6,115.7 		"/>
		<polygon id="triangle36_146_" class="st3" points="90.6,115.7 106.2,25.3 228,83.2 		"/>
		<polygon id="triangle36_147_" class="st4" points="90.6,115.7 146.8,249.5 228,83.2 		"/>
		<polygon id="triangle36_148_" class="st5" points="106.2,25.3 278,0 228,83.2 		"/>
		<polygon id="triangle36_149_" class="st4" points="228,83.2 278,0 414,62.9 		"/>
		<polygon id="triangle36_150_" class="st5" points="278,0 435.7,39.7 414,62.9 		"/>
		<polygon id="triangle36_151_" class="st4" points="435.7,39.7 492.6,116.5 414,62.9 		"/>
		<polygon id="triangle36_152_" class="st2" points="414,62.9 492.6,116.5 429.1,246.3 		"/>
		<polygon id="triangle36_153_" class="st1" points="424.3,338.4 493.4,242.7 429.1,246.3 		"/>
		<polygon id="triangle36_154_" class="st0" points="492.6,116.5 493.4,242.7 429.1,246.3 		"/>
		<polygon id="triangle36_155_" class="st0" points="146.8,249.5 192.2,359.8 290.5,271.2 		"/>
		<polygon id="triangle36_156_" class="st2" points="146.8,249.5 228,83.2 290.5,271.2 		"/>
		<polygon id="triangle36_157_" class="st6" points="192.2,359.8 284.2,366.8 290.5,271.2 		"/>
		<polygon id="triangle36_158_" class="st3" points="228,83.2 414,62.9 290.5,271.2 		"/>
		<polygon id="triangle36_159_" class="st1" points="284.2,366.8 424.3,338.4 290.5,271.2 		"/>
		<polygon id="triangle36_160_" class="st1" points="414,62.9 429.1,246.3 290.5,271.2 		"/>
		<polygon id="triangle36_161_" class="st0" points="429.1,246.3 424.3,338.4 290.5,271.2 		"/>
		<polygon id="triangle36_220_" class="st0" points="93.1,418 143.9,361.6 158.7,397.8 		"/>
		<polygon id="triangle36_222_" class="st6" points="143.9,361.6 192.2,359.8 158.7,397.8 		"/>
		<polygon id="triangle36_224_" class="st1" points="93.1,418 143.9,361.6 123,352.6 		"/>
		<polygon id="triangle36_225_" class="st2" points="125.8,326.7 143.9,361.6 123,352.6 		"/>
		<polygon id="triangle36_228_" class="st1" points="51.8,321.4 125.8,326.7 123,352.6 		"/>
	</g>
	<g>
		
			<image style="overflow:visible;opacity:0.55;" width="307" height="241" xlink:href="6A0838269F07FF5E.png"  transform="matrix(1 0 0 1 108.1282 73.0541)">
		</image>
		<g>
			<g>
				<g>
					<polygon class="st7" points="164.9,143.5 120.9,141.2 133.3,214.5 					"/>
				</g>
				<g>
					<polygon class="st8" points="257.5,207.6 182.7,251.9 262.1,295.8 					"/>
				</g>
				<g>
					<polygon class="st9" points="164.9,143.5 133.3,214.5 182.7,251.9 					"/>
				</g>
				<g>
					<polygon class="st7" points="257.5,207.6 164.9,143.5 182.7,251.9 					"/>
				</g>
				<g>
					<polygon class="st9" points="257.5,207.6 325.6,236.9 347.1,146.6 					"/>
				</g>
				<g>
					<polygon class="st8" points="347.1,146.6 325.6,236.9 360,230.1 					"/>
				</g>
				<g>
					<polygon class="st10" points="257.5,207.6 262.1,295.8 325.6,236.9 					"/>
				</g>
				<g>
					<polygon class="st10" points="347.1,146.6 360,230.1 396.5,157.3 					"/>
				</g>
				<g>
					<polygon class="st11" points="177.8,88.4 120.9,141.2 164.9,143.5 					"/>
				</g>
				<g>
					<polygon class="st7" points="258.7,119.6 177.8,88.4 164.9,143.5 					"/>
				</g>
				<g>
					<polygon class="st9" points="164.9,143.5 257.5,207.6 258.7,119.6 					"/>
				</g>
				<g>
					<polygon class="st8" points="257.5,207.6 347.1,146.6 258.7,119.6 					"/>
				</g>
				<g>
					<polygon class="st7" points="258.7,119.6 347.1,146.6 339.1,85.2 					"/>
				</g>
				<g>
					<polygon class="st9" points="339.1,85.2 347.1,146.6 396.5,157.3 					"/>
				</g>
				<g>
					<polygon class="st9" points="325.6,236.9 262.1,295.8 360,230.1 					"/>
				</g>
			</g>
		</g>
	</g>
</g>
</svg>
