<?xml version="1.0" encoding="utf-8"?>
<!-- Generator: Adobe Illustrator 26.2.1, SVG Export Plug-In . SVG Version: 6.00 Build 0)  -->
<svg version="1.1" id="Layer_1" xmlns="http://www.w3.org/2000/svg" xmlns:xlink="http://www.w3.org/1999/xlink" x="0px" y="0px"
	 width="2000px" height="1185.2px" viewBox="0 0 2000 1185.2" style="enable-background:new 0 0 2000 1185.2;" xml:space="preserve"
	>
<style type="text/css">
	.st0{fill:#142042;}
	.st1{fill:#283F82;}
	.st2{fill:#1D3063;}
	.st3{fill:#3554B0;}
	.st4{fill:#5D76C0;}
	.st5{fill:#3B59B2;}
	.st6{fill:#AEBBDF;}
	.st7{fill:#8698D0;}
</style>
<g>
	<polygon class="st0" points="37,1185.2 0,1175.9 0,1129.6 	"/>
	<polygon class="st1" points="0,1129.6 0,1101.9 92.6,1101.9 	"/>
	<polygon class="st2" points="0,1129.6 92.6,1101.9 37,1185.2 	"/>
	<polygon class="st0" points="37,1185.2 203.7,1185.2 92.6,1101.9 	"/>
	<polygon class="st1" points="92.6,1101.9 305.6,1101.9 296.3,1157.4 	"/>
	<polygon class="st2" points="92.6,1101.9 296.3,1157.4 203.7,1185.2 	"/>
	<polygon class="st1" points="203.7,1185.2 398.1,1185.2 296.3,1157.4 	"/>
	<polygon class="st2" points="296.3,1157.4 305.6,1101.9 490.7,1101.9 	"/>
	<polygon class="st3" points="296.3,1157.4 481.5,1101.9 398.1,1185.2 	"/>
	<polygon class="st1" points="481.5,1101.9 574.1,1185.2 398.1,1185.2 	"/>
	<polygon class="st3" points="481.5,1101.9 713,1101.9 574.1,1185.2 	"/>
	<polygon class="st0" points="574.1,1185.2 925.9,1185.2 824.1,1120.4 	"/>
	<polygon class="st1" points="574.1,1185.2 713,1101.9 824.1,1120.4 	"/>
	<polygon class="st3" points="713,1101.9 1055.6,1101.9 824.1,1120.4 	"/>
	<polygon class="st1" points="1055.6,1101.9 925.9,1185.2 1083.3,1185.2 	"/>
	<polygon class="st0" points="1185.2,1129.6 1305.6,1185.2 1083.3,1185.2 	"/>
	<polygon class="st2" points="1305.6,1185.2 1416.7,1101.9 1185.2,1129.6 	"/>
	<polygon class="st1" points="1185.2,1129.6 1055.6,1101.9 1416.7,1101.9 	"/>
	<polygon class="st1" points="1416.7,1101.9 1509.3,1185.2 1296.3,1185.2 	"/>
	<polygon class="st2" points="1416.7,1101.9 1546.3,1101.9 1509.3,1185.2 	"/>
	<polygon class="st2" points="1740.7,1101.9 1824.1,1185.2 1638.9,1148.1 	"/>
	<polygon class="st2" points="1740.7,1101.9 2000,1101.9 2000,1166.7 	"/>
	<polygon class="st0" points="2000,1166.7 1981.5,1185.2 1824.1,1185.2 	"/>
	<polygon class="st3" points="2000,1166.7 1740.7,1101.9 1824.1,1185.2 	"/>
	<polygon class="st1" points="1638.9,1148.1 1546.3,1101.9 1740.7,1101.9 	"/>
	<polygon class="st3" points="1638.9,1148.1 1509.3,1185.2 1546.3,1101.9 	"/>
	<polygon class="st0" points="1638.9,1148.1 1824.1,1185.2 1509.3,1185.2 	"/>
	<polygon class="st3" points="1083.3,1185.2 1185.2,1129.6 1055.6,1101.9 	"/>
	<polygon class="st2" points="925.9,1185.2 1055.6,1101.9 824.1,1120.4 	"/>
	<polygon class="st4" points="0,1101.9 185.2,1055.6 92.6,1101.9 	"/>
	<polygon class="st5" points="92.6,1101.9 305.6,1101.9 185.2,1055.6 	"/>
	<polygon class="st6" points="185.2,1055.6 398.1,1055.6 305.6,1101.9 	"/>
	<polygon class="st7" points="305.6,1101.9 481.5,1101.9 398.1,1055.6 	"/>
	<polygon class="st4" points="398.1,1055.6 601.9,1055.6 481.5,1101.9 	"/>
	<polygon class="st7" points="601.9,1055.6 713,1101.9 481.5,1101.9 	"/>
	<polygon class="st5" points="601.9,1055.6 814.8,1055.6 713,1101.9 	"/>
	<polygon class="st4" points="814.8,1055.6 1055.6,1101.9 713,1101.9 	"/>
	<polygon class="st7" points="814.8,1055.6 1203.7,1055.6 1055.6,1101.9 	"/>
	<polygon class="st6" points="1055.6,1101.9 1416.7,1101.9 1203.7,1055.6 	"/>
	<polygon class="st5" points="1203.7,1055.6 1509.3,1055.6 1416.7,1101.9 	"/>
	<polygon class="st7" points="1509.3,1055.6 1546.3,1101.9 1416.7,1101.9 	"/>
	<polygon class="st6" points="1509.3,1055.6 1740.7,1101.9 1546.3,1101.9 	"/>
	<polygon class="st7" points="1509.3,1055.6 1796.3,1055.6 1740.7,1101.9 	"/>
	<polygon class="st4" points="1796.3,1055.6 2000,1101.9 1740.7,1101.9 	"/>
	<polygon class="st2" points="1796.3,1055.6 1740.7,1009.3 1796.3,898.1 	"/>
	<polygon class="st1" points="1796.3,898.1 1740.7,796.3 1740.7,1009.3 	"/>
	<polygon class="st3" points="1796.3,898.1 1796.3,675.9 1740.7,796.3 	"/>
	<polygon class="st1" points="1740.7,796.3 1740.7,546.3 1796.3,675.9 	"/>
	<polygon class="st2" points="1796.3,675.9 1796.3,388.9 1740.7,546.3 	"/>
	<polygon class="st1" points="1796.3,388.9 1740.7,250 1740.7,546.3 	"/>
	<polygon class="st3" points="1796.3,388.9 1796.3,92.6 1740.7,250 	"/>
	<polygon class="st1" points="1740.7,250 1740.7,64.8 1796.3,92.6 	"/>
	<polygon class="st0" points="185.2,1055.6 240.7,1009.3 185.2,898.1 	"/>
	<polygon class="st2" points="185.2,898.1 240.7,796.3 240.7,1009.3 	"/>
	<polygon class="st0" points="185.2,898.1 185.2,675.9 240.7,796.3 	"/>
	<polygon class="st2" points="240.7,796.3 240.7,546.3 185.2,675.9 	"/>
	<polygon class="st1" points="185.2,675.9 185.2,388.9 240.7,546.3 	"/>
	<polygon class="st3" points="185.2,388.9 240.7,250 240.7,546.3 	"/>
	<polygon class="st1" points="185.2,388.9 185.2,92.6 240.7,250 	"/>
	<polygon class="st2" points="240.7,250 240.7,64.8 185.2,92.6 	"/>
	<polygon class="st1" points="240.7,1009.3 398.1,1055.6 185.2,1055.6 	"/>
	<polygon class="st3" points="240.7,1009.3 481.5,1009.3 398.1,1055.6 	"/>
	<polygon class="st2" points="398.1,1055.6 601.9,1055.6 481.5,1009.3 	"/>
	<polygon class="st1" points="481.5,1009.3 731.5,1009.3 601.9,1055.6 	"/>
	<polygon class="st3" points="601.9,1055.6 814.8,1055.6 731.5,1009.3 	"/>
	<polygon class="st3" points="814.8,1055.6 1203.7,1055.6 990.7,1009.3 	"/>
	<polygon class="st1" points="814.8,1055.6 990.7,1009.3 731.5,1009.3 	"/>
	<polygon class="st2" points="990.7,1009.3 1351.9,1009.3 1203.7,1055.6 	"/>
	<polygon class="st1" points="1203.7,1055.6 1509.3,1055.6 1351.9,1009.3 	"/>
	<polygon class="st3" points="1351.9,1009.3 1740.7,1009.3 1509.3,1055.6 	"/>
	<polygon class="st0" points="1740.7,1009.3 1796.3,1055.6 1509.3,1055.6 	"/>
	<polygon class="st3" points="1740.7,64.8 1796.3,37 1796.3,92.6 	"/>
	<polygon class="st1" points="1796.3,37 1768.5,0 1740.7,64.8 	"/>
	<polygon class="st2" points="1768.5,0 1583.3,0 1740.7,64.8 	"/>
	<polygon class="st1" points="1740.7,64.8 1481.5,64.8 1583.3,0 	"/>
	<polygon class="st3" points="1583.3,0 1370.4,0 1481.5,64.8 	"/>
	<polygon class="st1" points="1481.5,64.8 1268.5,64.8 1370.4,0 	"/>
	<polygon class="st2" points="1370.4,0 1148.1,0 1268.5,64.8 	"/>
	<polygon class="st0" points="1268.5,64.8 990.7,64.8 1148.1,0 	"/>
	<polygon class="st1" points="213,0 398.1,0 240.7,64.8 	"/>
	<polygon class="st0" points="240.7,64.8 500,64.8 398.1,0 	"/>
	<polygon class="st2" points="398.1,0 611.1,0 500,64.8 	"/>
	<polygon class="st1" points="500,64.8 713,64.8 611.1,0 	"/>
	<polygon class="st3" points="611.1,0 833.3,0 713,64.8 	"/>
	<polygon class="st1" points="713,64.8 990.7,64.8 833.3,0 	"/>
	<polygon class="st2" points="213,0 185.2,27.8 240.7,64.8 	"/>
	<polygon class="st0" points="185.2,27.8 185.2,92.6 240.7,64.8 	"/>
	<polygon class="st2" points="833.3,0 1148.1,0 990.7,64.8 	"/>
</g>
</svg>
