<?xml version="1.0" encoding="utf-8"?>
<!-- Generator: Adobe Illustrator 26.0.3, SVG Export Plug-In . SVG Version: 6.00 Build 0)  -->
<svg version="1.1" id="Layer_1" xmlns="http://www.w3.org/2000/svg" xmlns:xlink="http://www.w3.org/1999/xlink" x="0px" y="0px"
	 width="890px" height="890px" viewBox="0 0 890 890" style="enable-background:new 0 0 890 890;" xml:space="preserve">
<style type="text/css">
	.st0{fill:#283F82;}
	.st1{fill:#FFF6D4;}
	.st2{fill:#AEBBDF;}
	.st3{fill:#5D76C0;}
	.st4{fill:#8698D0;}
	.st5{fill:#1D3063;}
	.st6{fill:#142042;}
	.st7{fill:#3554B0;}
	.st8{fill:#FD6200;}
	.st9{fill:#FD7D00;}
	.st10{fill:#FD9600;}
	.st11{fill:#FFCB52;}
	.st12{fill:#FDCC01;}
	.st13{fill:#FFEEA7;}
	.st14{fill:#FFE77A;}
	.st15{fill:#FFDE46;}
	.st16{fill:#FFB339;}
	.st17{fill:#FDB002;}
	.st18{fill:#FFC33A;}
	.st19{fill:#FFDC7E;}
	.st20{fill:#FCEFA5;}
	.st21{fill:#F5B950;}
	.st22{fill:#F8C760;}
	.st23{fill:#FFD600;}
	.st24{fill:#FFD842;}
	.st25{fill:#FFDC6E;}
	.st26{fill:#FFFFFF;}
	.st27{fill:#FBFAEB;}
	.st28{fill:#FAED7F;}
</style>
<path class="st0" d="M565.6,697.5l4.8-6.7l5.2-7.2l-2.6,1.1l2.6-1.2l-12.8-21.3l11.3-29.5l1.4,0l0-3.7l0,0h0l0-3.7l-243.3,0.3l0,3.7
	l-8,33.2l8,24.3l-7.9,85.9l0,0l0,0l0,0l55.5,87l71.3,30.1l46-19.4l31.6-30.4l34.2-40.3l7.5-45l0,0L565.6,697.5z M496.3,815.1
	L496.3,815.1L496.3,815.1L496.3,815.1z"/>
<path class="st1" d="M219.2,121.3L219.2,121.3L219.2,121.3L219.2,121.3L219.2,121.3l-23.6,56.9l0,0l0,0l0,0l0,0l0,0l-9.4,101.9l0,0
	l0,0l33.3,97.1l43.9,85.1l17.8,30.5l9.6,77.4l41.5,59.2l106.6-0.1l0,0l0,0l80-0.1l56.7-0.1l25.5-48.6l7-73.4l28.2-66.3l0,0l0,0
	l56.9-123.2l0,0l0,0l0,0l0,0l-0.3,0l0.3,0l10.6-37.9l0,0l0,0v0l0,0l0,0l-0.1-78.2l0,0L662.1,98.9l0,0l-72.3-62.1l0,0l0,0L503.3,6.1
	l-86.4-5.8l-74,17.8L262.9,68l0,0l0,0L219.2,121.3"/>
<g>
	<polygon class="st2" points="575.6,683.5 570.4,690.7 570.4,685.8 	"/>
	<polygon class="st2" points="570.4,685.8 570.4,690.7 528.7,748.7 570.4,685.8 	"/>
	<polygon class="st3" points="570.5,754.6 563,799.6 496.3,815.1 	"/>
	<polygon class="st3" points="570.4,685.8 528.7,748.7 451,738.1 	"/>
	<polygon class="st0" points="563,799.6 528.8,839.9 496.3,815.1 	"/>
	<polygon class="st4" points="528.7,748.7 496.3,815.1 451,738.1 	"/>
	<polygon class="st5" points="528.8,839.9 497.2,870.3 496.3,815.1 	"/>
	<polygon class="st5" points="497.2,870.3 451.2,889.7 405.9,815.2 	"/>
	<polygon class="st0" points="496.3,815.1 405.9,815.2 405.9,772.5 	"/>
	<polygon class="st5" points="425.3,683.7 451,738.1 405.9,772.5 	"/>
	<polygon class="st6" points="405.9,815.2 451.2,889.7 379.9,859.6 	"/>
	<polygon class="st3" points="438.9,629.2 425.3,683.7 370.8,667.1 	"/>
	<polygon class="st7" points="405.9,815.2 379.9,859.6 324.5,772.6 	"/>
	<polygon class="st4" points="370.8,667.1 379.8,720.4 324.3,662.5 	"/>
	<polygon class="st7" points="324.3,662.5 379.8,720.4 352.1,746.5 332.4,686.7 	"/>
	<polygon class="st3" points="370.8,667.1 324.3,662.5 332.3,629.3 	"/>
	<polygon class="st5" points="332.4,686.7 352.1,746.5 324.5,772.6 	"/>
	<polygon class="st4" points="518.9,629.1 425.3,683.7 438.9,629.2 	"/>
	<polygon class="st7" points="575.6,629 513.2,629.1 562.8,662.2 	"/>
	<polygon class="st4" points="438.9,629.2 332.3,629.3 370.8,667.2 	"/>
	<g>
		<polygon class="st8" points="703.7,201.3 703.8,279.5 636.1,290.2 		"/>
	</g>
	<g>
		<polygon class="st9" points="703.8,279.5 693.2,317.4 663.9,316 		"/>
	</g>
	<g>
		<polygon class="st10" points="693.2,317.4 636.3,440.6 590.2,383.8 		"/>
	</g>
	<polygon class="st11" points="693.2,317.4 662.4,317.4 663.9,316 	"/>
	<g>
		<polygon class="st12" points="662.1,98.9 614.8,130.4 570.9,67.6 		"/>
	</g>
	<g>
		<polygon class="st13" points="662.1,98.9 570.9,67.6 589.8,36.8 		"/>
	</g>
	<g>
		<polygon class="st8" points="636.3,440.6 608.1,507 549.8,527.2 		"/>
	</g>
	<g>
		<polygon class="st10" points="608.1,507 601.1,580.4 549.8,527.2 		"/>
	</g>
	<g>
		<polygon class="st14" points="570.9,67.6 600.7,253.5 539.1,201.5 		"/>
	</g>
	<g>
		<polygon class="st8" points="549.8,527.2 601.1,580.4 575.6,629 562.7,578.2 		"/>
	</g>
	<g>
		<polygon class="st15" points="570,311.7 590.2,383.8 509,279.7 539.1,201.5 		"/>
	</g>
	<g>
		<polygon class="st1" points="509,279.7 590.2,383.8 509.1,337.7 		"/>
	</g>
	<polygon class="st16" points="590.2,383.8 568.3,461.9 568.2,461.9 	"/>
	<g>
		<polygon class="st10" points="590.2,383.8 568.2,461.9 488.4,440.8 		"/>
	</g>
	<g>
		<polygon class="st14" points="589.8,36.8 446.7,67.8 503.3,6.1 		"/>
	</g>
	<g>
		<polygon class="st17" points="590.2,383.8 488.4,440.8 494.3,365 		"/>
	</g>
	<g>
		<polygon class="st9" points="562.7,578.2 575.6,629 518.9,629.1 438.9,629.2 		"/>
	</g>
	<g>
		<polygon class="st13" points="570.9,67.6 539.1,201.5 470.3,121 		"/>
	</g>
	<g>
		<polygon class="st1" points="570.9,67.6 470.3,121 446.7,67.8 		"/>
	</g>
	<polygon class="st18" points="568.3,461.9 549.8,527.2 568.2,461.9 	"/>
	<g>
		<polygon class="st17" points="568.2,461.9 549.8,527.2 518.7,483.5 488.4,440.8 		"/>
	</g>
	<g>
		<polygon class="st12" points="549.8,527.2 562.7,578.2 429.4,580.6 		"/>
	</g>
	<g>
		<polygon class="st15" points="518.7,483.5 549.8,527.2 351.7,502.6 		"/>
	</g>
	<g>
		<polygon class="st17" points="549.8,527.2 429.4,580.6 351.7,502.6 		"/>
	</g>
	<g>
		<polygon class="st14" points="518.7,483.5 351.7,502.6 370.6,430.3 		"/>
	</g>
	<g>
		<polygon class="st1" points="470.3,121 509,279.7 438.4,166.1 		"/>
	</g>
	<g>
		<polygon class="st1" points="509,279.7 425,376.2 379.3,298.8 		"/>
	</g>
	<polygon class="st19" points="509.1,337.7 494.3,365 425,376.2 	"/>
	<g>
		<polygon class="st13" points="509,279.7 379.3,298.8 405.3,234.2 		"/>
	</g>
	<g>
		<polygon class="st1" points="503.3,6.1 446.7,67.8 416.9,0.3 		"/>
	</g>
	<g>
		<polygon class="st12" points="425,376.2 488.4,440.8 304.8,377.1 		"/>
	</g>
	<g>
		<polygon class="st10" points="488.4,440.8 370.6,430.3 304.8,377.1 		"/>
	</g>
	<g>
		<polygon class="st13" points="446.7,67.8 470.3,121 323.4,73.8 416.9,0.3 		"/>
	</g>
	<g>
		<polygon class="st13" points="470.3,121 438.4,166.1 379.1,127.7 		"/>
	</g>
	<g>
		<polygon class="st1" points="438.4,166.1 405.3,234.2 280.9,198.2 331.9,187.8 		"/>
	</g>
	<g>
		<polygon class="st9" points="429.4,580.6 438.9,629.2 351.8,609.1 		"/>
	</g>
	<g>
		<polygon class="st8" points="438.9,629.2 332.3,629.3 351.8,609.1 		"/>
	</g>
	<g>
		<polygon class="st12" points="351.7,502.6 429.4,580.6 312.6,544.5 311.9,543.3 		"/>
	</g>
	<g>
		<polygon class="st15" points="379.3,298.8 425,376.2 304.8,377.1 		"/>
	</g>
	<g>
		<polygon class="st1" points="416.9,0.3 323.4,73.8 342.8,18.1 		"/>
	</g>
	<polygon class="st20" points="404.8,234.2 304.6,239.6 303.9,239.3 280.9,198.2 	"/>
	<g>
		<polygon class="st1" points="379.1,127.7 331.8,187.5 323.4,73.8 		"/>
	</g>
	<g>
		<polygon class="st13" points="379.3,298.8 304.8,377.1 304.6,239.6 		"/>
	</g>
	<g>
		<polygon class="st17" points="370.6,430.3 351.7,502.6 304.8,377.1 		"/>
	</g>
	<g>
		<polygon class="st9" points="296.6,444.6 351.7,502.6 311.9,543.3 310.8,541.5 		"/>
	</g>
	<polygon class="st21" points="312.6,544.5 351.8,609.1 311.2,544.1 	"/>
	<g>
		<polygon class="st17" points="311.2,544.1 351.8,609.1 290.8,570.1 281.2,492.7 311.2,544 		"/>
	</g>
	<g>
		<polygon class="st9" points="351.8,609.1 332.3,629.3 290.8,570.1 		"/>
	</g>
	<g>
		<polygon class="st14" points="342.8,18.1 323.4,73.8 262.9,68 		"/>
	</g>
	<g>
		<polygon class="st14" points="262.9,68 331.8,187.5 219.2,121.3 		"/>
	</g>
	<polygon class="st22" points="311.9,543.3 312.6,544.5 311.2,544.1 311.2,544 	"/>
	<polygon class="st22" points="311.9,543.3 311.2,544 310.8,541.5 	"/>
	<polygon class="st22" points="310.8,541.5 311.2,544 281.2,492.7 	"/>
	<g>
		<polygon class="st8" points="296.6,444.6 310.8,541.5 281.2,492.7 263.4,462.2 		"/>
	</g>
	<g>
		<polygon class="st12" points="268.8,328.5 304.8,377.1 263.4,462.2 240.7,290.7 		"/>
	</g>
	<g>
		<polygon class="st9" points="304.8,377.1 296.6,444.6 263.4,462.2 		"/>
	</g>
	<g>
		<polygon class="st23" points="304.6,239.6 268.8,328.5 240.7,290.7 		"/>
	</g>
	<g>
		<polygon class="st15" points="304.6,239.6 240.7,290.7 226.5,255.2 195.6,178.2 303.9,239.3 304.2,239.7 		"/>
	</g>
	<polygon class="st20" points="304.6,239.6 304.2,239.7 303.9,239.3 	"/>
	<g>
		<polygon class="st14" points="219.2,121.3 280.9,198.2 195.6,178.2 		"/>
	</g>
	<g>
		<polygon class="st9" points="240.7,290.7 263.4,462.2 219.5,377.2 		"/>
	</g>
	<g>
		<polygon class="st10" points="240.7,290.7 219.5,377.2 186.2,280.1 		"/>
	</g>
	<g>
		<polygon class="st17" points="195.6,178.2 226.5,255.2 186.2,280.1 		"/>
	</g>
	<g>
		<polygon class="st17" points="703.7,201.3 614.8,130.3 662.1,98.9 		"/>
	</g>
	<polygon class="st24" points="600.7,253.5 614.8,130.3 703.7,201.3 	"/>
	<g>
		<polygon class="st13" points="570.9,67.6 614.8,130.3 600.7,253.5 		"/>
	</g>
	<g>
		<polygon class="st17" points="600.7,253.5 636.1,290.2 703.7,201.3 		"/>
	</g>
	<g>
		<polygon class="st10" points="636.1,290.2 703.8,279.5 662.4,317.4 		"/>
	</g>
	<polygon class="st25" points="600.7,253.5 662.4,317.4 570,311.7 	"/>
	<g>
		<polygon class="st17" points="570,311.7 590.2,383.8 693.2,317.4 		"/>
	</g>
	<g>
		<polygon class="st12" points="446.7,67.8 589.8,36.8 570.9,67.6 446.7,67.8 		"/>
	</g>
	<g>
		<polygon class="st13" points="600.7,253.5 539.1,201.5 570,311.7 		"/>
	</g>
	<g>
		<polygon class="st1" points="323.4,73.8 379.1,127.7 470.3,121 		"/>
	</g>
	<g>
		<polygon class="st13" points="331.8,187.5 263,68 323.4,73.8 		"/>
	</g>
	<polygon class="st26" points="438.4,166.1 509,279.7 405.3,234.2 	"/>
	<polygon class="st27" points="379.1,127.7 438.4,166.1 331.8,187.5 	"/>
	<g>
		<polygon class="st14" points="470.3,121 539.1,201.5 509,279.7 		"/>
	</g>
	<g>
		<polygon class="st13" points="219.2,121.3 331.8,187.5 280.9,198.2 		"/>
	</g>
	<g>
		<polygon class="st15" points="195.6,178.2 304.6,239.7 280.9,198.2 		"/>
	</g>
	<g>
		<polygon class="st1" points="405.3,234.2 379.3,298.8 304.6,239.7 		"/>
	</g>
	<polygon class="st28" points="425,376.2 494.3,365 488.4,440.8 	"/>
	<g>
		<polygon class="st14" points="304.6,239.7 304.8,377.1 268.8,328.5 		"/>
	</g>
	<g>
		<polygon class="st9" points="636.3,440.6 590.2,383.8 549.8,527.2 		"/>
	</g>
	<g>
		<polygon class="st12" points="509.1,337.7 590.2,383.8 494.3,365 		"/>
	</g>
	<g>
		<polygon class="st13" points="370.6,430.3 488.4,440.8 518.8,483.5 		"/>
	</g>
	<g>
		<polygon class="st10" points="304.8,377.1 351.7,502.5 296.5,444.6 		"/>
	</g>
	<g>
		<polygon class="st10" points="429.4,580.6 438.9,629.2 562.7,578.2 		"/>
	</g>
	<g>
		<polygon class="st10" points="311.2,544 351.8,609.1 429.4,580.6 		"/>
	</g>
	<g>
		<polygon class="st12" points="226.5,255.1 240.7,290.7 186.2,280.1 		"/>
	</g>
	<polygon class="st6" points="405.9,815.2 496.3,815.1 497.2,870.3 	"/>
	<polygon class="st3" points="513.2,629.1 562.8,662.2 425.3,683.7 	"/>
	<polygon class="st7" points="562.8,662.2 575.6,683.5 425.3,683.7 	"/>
	<polygon class="st4" points="425.3,683.7 451,738.1 575.6,683.5 	"/>
	<polygon class="st2" points="370.8,667.2 379.8,720.4 425.3,683.7 	"/>
	<polygon class="st4" points="425.3,683.7 405.9,772.5 379.8,720.4 	"/>
	<polygon class="st3" points="379.8,720.4 405.9,772.5 324.5,772.6 	"/>
	<polygon class="st4" points="324.5,772.6 405.9,772.5 405.9,815.2 	"/>
	<polygon class="st3" points="451,738.1 496.3,815.1 405.9,772.5 	"/>
	<polygon class="st2" points="528.7,748.7 570.5,754.6 496.3,815.1 	"/>
	<polygon class="st5" points="565.6,697.4 570.5,754.6 528.7,748.7 	"/>
	
		<rect x="332.3" y="625.4" transform="matrix(1 -1.125701e-03 1.125701e-03 1 -0.708 0.5114)" class="st0" width="243.3" height="7.4"/>
	<polygon class="st26" points="425,376.2 509,279.7 509.1,337.7 	"/>
</g>
</svg>
