<?xml version="1.0" encoding="utf-8"?>
<!-- Generator: Adobe Illustrator 26.2.1, SVG Export Plug-In . SVG Version: 6.00 Build 0)  -->
<svg version="1.1" id="Layer_1" xmlns="http://www.w3.org/2000/svg" xmlns:xlink="http://www.w3.org/1999/xlink" x="0px" y="0px"
	 width="140.3px" height="101.6px" viewBox="0 0 140.3 101.6" style="enable-background:new 0 0 140.3 101.6;" xml:space="preserve"
	>
<style type="text/css">
	.st0{fill-rule:evenodd;clip-rule:evenodd;fill:#FD6200;}
	.st1{fill-rule:evenodd;clip-rule:evenodd;fill:#FD7D00;}
	.st2{fill-rule:evenodd;clip-rule:evenodd;fill:#FD9600;}
	.st3{fill-rule:evenodd;clip-rule:evenodd;fill:#FFE77A;}
	.st4{fill-rule:evenodd;clip-rule:evenodd;fill:#FDCC01;}
	.st5{fill-rule:evenodd;clip-rule:evenodd;fill:#FD9703;}
	.st6{fill-rule:evenodd;clip-rule:evenodd;fill:#FDB002;}
	.st7{fill-rule:evenodd;clip-rule:evenodd;fill:#FFE77B;}
</style>
<polygon class="st0" points="0,101.6 59,90.1 84.8,101.6 "/>
<polygon class="st1" points="0,101.6 30.8,50.8 59,90.1 "/>
<polygon class="st2" points="84.8,101.6 59,90.1 140.3,50.8 "/>
<polygon class="st3" points="84.8,0 89.1,33.1 140.3,50.8 "/>
<polygon class="st4" points="59,90.1 140.3,50.8 89.1,33.1 "/>
<polygon class="st5" points="30.8,50.8 59,90.1 40.6,16.4 "/>
<polygon class="st6" points="59,90.1 89.1,33.1 40.6,16.4 "/>
<polygon class="st4" points="40.6,16.4 89.1,33.1 84.8,0 "/>
<polygon class="st6" points="40.6,16.4 30.8,50.8 0,0 "/>
<polygon class="st7" points="84.8,0 40.6,16.4 0,0 "/>
</svg>
