<?xml version="1.0" encoding="utf-8"?>
<!-- Generator: Adobe Illustrator 26.0.3, SVG Export Plug-In . SVG Version: 6.00 Build 0)  -->
<svg version="1.1" id="Layer_1" xmlns="http://www.w3.org/2000/svg" xmlns:xlink="http://www.w3.org/1999/xlink" x="0px" y="0px"
	 width="890px" height="890px" viewBox="0 0 890 890" style="enable-background:new 0 0 890 890;" xml:space="preserve">
<style type="text/css">
	.st0{fill:#FD6200;}
	.st1{fill:#F9CE00;}
	.st2{fill:#D64C00;}
	.st3{fill:#FF8B00;}
	.st4{fill:none;}
	.st5{fill:#8698D0;}
	.st6{fill:#3554B0;}
	.st7{fill:#283F82;}
	.st8{fill:#5D76C0;}
	.st9{fill:#1D3063;}
	.st10{fill:#AEBBDF;}
</style>
<g>
	<g>
		<g>
			<polygon class="st0" points="640.3,138.5 542,138.5 542,90.8 640.3,90.8 613.7,114.7 			"/>
		</g>
		<rect x="472.7" y="71" class="st1" width="8.4" height="212.2"/>
		<g>
			<polygon class="st2" points="542,138.5 575.2,123 575.2,75.2 542,75.2 			"/>
		</g>
		<rect x="476.9" y="75.2" class="st3" width="98.3" height="47.8"/>
	</g>
	<g>
		<polygon class="st4" points="477.1,269.6 449.4,441.5 408.7,454.7 		"/>
		<polygon class="st5" points="517.9,512.5 449.4,441.5 477.1,269.6 		"/>
		<polygon class="st6" points="827.7,693 889.3,819 777.6,751.7 		"/>
		<polygon class="st7" points="889.3,819 680.4,819 777.6,751.7 		"/>
		<polygon class="st7" points="777.6,580 827.7,693 777.6,751.7 		"/>
		<polygon class="st8" points="777.6,580 777.6,751.7 702,525.8 		"/>
		<polygon class="st9" points="702,525.8 777.6,751.7 680.4,819 		"/>
		<polygon class="st10" points="777.6,580 702,525.8 682.5,471.5 		"/>
		<polygon class="st8" points="682.5,471.5 702,525.8 645.6,580 		"/>
		<polygon class="st6" points="702,525.8 680.4,819 646.8,729.3 		"/>
		<polygon class="st7" points="702,525.8 646.8,729.3 645.6,580 		"/>
		<polygon class="st5" points="682.5,471.5 645.6,580 593.1,583.7 		"/>
		<polygon class="st9" points="646.8,729.3 680.4,819 618.7,702.6 517.9,512.5 575.3,535.5 593.1,583.7 		"/>
		<polygon class="st6" points="618.7,702.6 680.4,819 0.7,819 64.7,818.8 274.3,818.7 452.9,818.6 521.9,818.7 		"/>
		<polygon class="st6" points="645.6,580 646.8,729.3 593.1,583.7 		"/>
		<polygon class="st8" points="517.9,512.5 618.7,702.6 521.9,818.7 		"/>
		<polygon class="st7" points="477.1,269.6 575.3,535.5 517.9,512.5 		"/>
		<polygon class="st7" points="517.9,512.5 521.9,818.7 473.2,710.3 		"/>
		<polygon class="st8" points="473.2,710.3 521.9,818.7 452.9,818.6 401.4,550 449.9,658.6 		"/>
		<polygon class="st9" points="517.9,512.5 473.2,710.3 449.9,658.6 		"/>
		<polygon class="st8" points="517.9,512.5 449.9,658.6 449.4,441.5 		"/>
		<polygon class="st6" points="401.4,550 452.9,818.6 367.1,730.9 		"/>
		<polygon class="st9" points="452.9,818.6 274.3,818.7 367.1,730.9 		"/>
		<polygon class="st6" points="449.4,441.5 449.9,658.6 401.4,550 		"/>
		<polygon class="st5" points="449.4,441.5 401.4,550 408.7,454.7 		"/>
		<polygon class="st7" points="382.8,442.1 408.7,454.7 378.8,535.5 		"/>
		<polygon class="st9" points="408.7,454.7 401.4,550 274.3,818.7 378.8,535.5 		"/>
		<polygon class="st8" points="401.4,550 367.1,730.9 274.3,818.7 		"/>
		<polygon class="st8" points="382.8,442.1 378.8,535.5 333.2,575.1 333.2,575.1 		"/>
		<polygon class="st5" points="382.8,442.1 333.2,575.1 349.5,493.1 		"/>
		<polygon class="st7" points="378.8,535.5 274.3,818.7 332.6,577.9 333.2,575.1 		"/>
		<polygon class="st9" points="273.6,500.1 328.6,594.5 298.5,718.1 289.4,590.7 		"/>
		<polygon class="st6" points="289.4,590.7 298.5,718.1 248.5,609.5 		"/>
		<polygon class="st8" points="298.5,718.1 274.3,818.7 248.5,609.5 		"/>
		<polygon class="st5" points="273.6,500.1 289.4,590.7 248.5,609.5 		"/>
		<polygon class="st5" points="248.5,609.5 274.3,818.7 212.4,693 		"/>
		<polygon class="st6" points="212.4,693 274.3,818.7 180,710.2 		"/>
		<polygon class="st8" points="274.3,818.7 64.7,818.8 180,710.2 		"/>
		<polygon class="st10" points="273.6,500.1 248.5,609.5 212.4,598.4 		"/>
		<polygon class="st8" points="198.6,656.6 212.4,693 180,710.2 		"/>
		<polygon class="st8" points="162.3,602.8 198.6,656.6 129,565.3 		"/>
		<polygon class="st10" points="129,565.3 198.6,656.6 180,710.2 		"/>
		<polygon class="st5" points="129,565.3 180,710.2 91.8,645.9 		"/>
		<polygon class="st7" points="180,710.2 64.7,818.8 91.8,645.9 		"/>
		<polygon class="st10" points="129,565.3 91.8,645.9 75.9,623.6 		"/>
		<polygon class="st5" points="75.9,623.6 91.8,645.9 0.7,819 		"/>
		<polygon class="st6" points="91.8,645.9 64.7,818.8 0.7,819 		"/>
		<polygon class="st10" points="477.1,269.6 449.4,441.5 408.7,454.7 		"/>
		<path class="st9" d="M212.4,598.4l36.1,11L212.4,598.4z"/>
		<polygon class="st8" points="212.4,693 212.4,598.4 248.5,609.5 		"/>
		<polygon class="st6" points="212.4,598.4 212.4,693 198.6,656.6 178.8,627.2 		"/>
	</g>
</g>
</svg>
