<?xml version="1.0" encoding="utf-8"?>
<!-- Generator: Adobe Illustrator 26.2.1, SVG Export Plug-In . SVG Version: 6.00 Build 0)  -->
<svg version="1.1" id="Layer_1" xmlns="http://www.w3.org/2000/svg" xmlns:xlink="http://www.w3.org/1999/xlink" x="0px" y="0px"
	 width="182.7px" height="381.2px" viewBox="0 0 182.7 381.2" style="enable-background:new 0 0 182.7 381.2;" xml:space="preserve"
	>
<style type="text/css">
	.st0{fill:#283F82;}
	.st1{fill:#3554B0;}
	.st2{fill:#1D3063;}
	.st3{fill:#5D76C0;}
	.st4{fill:#AEBBDF;}
	.st5{fill:#8698D0;}
	.st6{fill:#142042;}
</style>
<g>
	<polygon class="st0" points="9.5,44.1 0,22.1 18.9,0 	"/>
	<polygon class="st1" points="18.9,0 3.2,6.3 0,22.1 	"/>
	<polygon class="st1" points="18.9,0 91.4,0 63,22.1 	"/>
	<polygon class="st2" points="18.9,0 9.5,44.1 63,22.1 	"/>
	<polygon class="st0" points="63,22.1 100.8,44.1 9.5,44.1 	"/>
	<polygon class="st3" points="63,22.1 91.4,0 100.8,44.1 	"/>
	<polygon class="st4" points="91.4,0 157.5,0 100.8,44.1 	"/>
	<polygon class="st5" points="157.5,0 173.3,44.1 100.8,44.1 	"/>
	<polygon class="st3" points="157.5,0 182.7,22.1 173.3,44.1 	"/>
	<polygon class="st5" points="157.5,0 176.4,6.3 182.7,22.1 	"/>
	<polygon class="st1" points="182.7,22.1 182.7,110.3 173.3,44.1 	"/>
	<polygon class="st3" points="173.3,44.1 173.3,170.1 182.7,107.1 	"/>
	<polygon class="st1" points="182.7,107.1 182.7,198.5 173.3,167 	"/>
	<polygon class="st0" points="173.3,167 173.3,245.7 182.7,198.5 	"/>
	<polygon class="st1" points="182.7,198.5 182.7,302.4 173.3,245.7 	"/>
	<polygon class="st3" points="173.3,245.7 173.3,340.2 182.7,302.4 	"/>
	<polygon class="st5" points="182.7,302.4 182.7,356 173.3,337.1 	"/>
	<polygon class="st2" points="9.5,44.1 9.5,170.1 0,107.1 	"/>
	<polygon class="st0" points="0,107.1 0,198.5 9.5,167 	"/>
	<polygon class="st2" points="9.5,167 9.5,245.7 0,198.5 	"/>
	<polygon class="st0" points="0,198.5 0,302.4 9.5,245.7 	"/>
	<polygon class="st2" points="9.5,245.7 9.5,340.2 0,302.4 	"/>
	<polygon class="st0" points="0,302.4 0,356 9.5,337.1 	"/>
	<polygon class="st1" points="182.7,356 163.8,381.2 173.3,337.1 	"/>
	<polygon class="st3" points="182.7,356 179.6,374.9 163.8,381.2 	"/>
	<polygon class="st0" points="126,381.2 163.8,381.2 173.3,337.1 	"/>
	<polygon class="st2" points="22.1,381.2 0,356 9.5,337.1 	"/>
	<polygon class="st0" points="22.1,381.2 78.8,362.3 9.5,337.1 	"/>
	<polygon class="st1" points="0,356 3.2,374.9 22.1,381.2 	"/>
	<polygon class="st1" points="9.5,44.1 0,22.1 0,107.1 	"/>
	<polygon class="st1" points="78.8,362.3 9.5,337.1 104,337.1 	"/>
	<polygon class="st0" points="78.8,362.3 126,381.2 104,337.1 	"/>
	<polygon class="st2" points="126,381.2 173.3,337.1 104,337.1 	"/>
	<polygon class="st6" points="126,381.2 78.8,362.3 72.5,381.2 	"/>
	<polygon class="st2" points="72.5,381.2 22.1,381.2 78.8,362.3 	"/>
</g>
</svg>
