<?xml version="1.0" encoding="utf-8"?>
<!-- Generator: Adobe Illustrator 26.0.3, SVG Export Plug-In . SVG Version: 6.00 Build 0)  -->
<svg version="1.1" id="Layer_1" xmlns="http://www.w3.org/2000/svg" xmlns:xlink="http://www.w3.org/1999/xlink" x="0px" y="0px"
	 width="926px" height="926px" viewBox="0 0 926 926" style="enable-background:new 0 0 926 926;" xml:space="preserve">
<style type="text/css">
	.st0{fill:#FD9600;}
	.st1{fill:#3554B0;}
	.st2{fill:#99D6D2;}
	.st3{fill:#FD6200;}
	.st4{fill:#FDB002;}
	.st5{fill:#FFE77A;}
	.st6{fill:#FFD600;}
	.st7{fill:#FD7D00;}
	.st8{fill:#FFEEA7;}
	.st9{fill:none;}
	.st10{fill:#5D76C0;}
	.st11{fill:#8698D0;}
	.st12{fill:#283F84;}
	.st13{fill:#1B2A58;}
	.st14{fill:#D7DDEF;}
	.st15{fill:#AEBBDF;}
	.st16{fill:#66C2BB;}
	.st17{fill:#00736B;}
	.st18{fill:#33ADA5;}
	.st19{fill:#CCEBE8;}
	.st20{fill:#00998E;}
</style>
<g>
	<polygon class="st0" points="192.7,462.1 253.4,462.1 349.3,462.1 415.8,462.1 452.7,462.1 472.1,462.1 472.1,427.5 472.1,351 
		472.1,308.5 472.1,224.4 472.1,157.5 472.1,132.1 472.1,21.8 472.1,2.3 425,0.2 289.6,31.6 209.7,69.7 84.2,195.1 14.4,343.7 
		12.5,462.1 33.2,462.1 83.7,462.1 	"/>
	<polygon class="st1" points="912.3,428.6 866.3,315.4 805.4,234.6 703.4,156.3 605.2,120.3 510.1,115.9 510.1,132.8 510.1,235.2 
		510.1,256.6 510.1,318.6 510.1,396.5 510.1,431.8 510.1,503.5 510.1,519.7 509.8,519.9 490.5,531.1 465.7,545.4 377.6,596.3 
		366.8,602.4 348.5,613 281.3,651.8 211.6,692.1 160.2,721.8 175.1,750.5 264.6,846.2 396.4,908.4 546.8,925.8 689.8,889.7 
		809.1,801.5 883.7,687.1 913.5,583.9 	"/>
	<polygon class="st2" points="296,599.4 315.3,588.3 326.5,581.8 422.3,526.5 448.7,511.2 471.7,498 472.1,497.6 434,497.6 
		414.6,497.6 379.5,497.6 257.8,497.6 211.8,497.6 129.2,497.6 66.3,497.6 40.5,497.6 39.3,574.2 60.8,656 92.5,716.9 149.2,684.1 
		223.2,641.4 	"/>
</g>
<g>
	<g>
		<polygon class="st3" points="84.2,195.1 14.4,343.7 82.8,327.3 		"/>
		<polygon class="st4" points="82.8,327.3 14.4,343.7 12.5,462.1 33.2,462.1 		"/>
		<polygon class="st5" points="83.7,462.1 192.7,462.1 204,364.1 		"/>
		<polygon class="st0" points="365.1,77.9 289.6,31.6 319.5,136.5 		"/>
		<polygon class="st4" points="236.8,236 82.8,327.3 204,364.1 		"/>
		<polygon class="st6" points="204,364.1 82.8,327.3 33.2,462.1 83.7,462.1 		"/>
		<polygon class="st5" points="472.1,351 472.1,308.5 447.8,324.6 		"/>
		<polygon class="st0" points="236.8,236 84.2,195.1 82.8,327.3 		"/>
		<polygon class="st7" points="209.7,69.7 84.2,195.1 236.8,236 		"/>
		<polygon class="st8" points="204,364.1 192.7,462.1 253.4,462.1 		"/>
		<polygon class="st7" points="289.6,31.6 209.7,69.7 319.5,136.5 		"/>
		<polygon class="st6" points="253.4,462.1 349.3,462.1 403.6,418.7 204,364.1 		"/>
		<polygon class="st4" points="319.5,136.5 209.7,69.7 236.8,236 		"/>
		<polygon class="st6" points="395.1,227.8 236.8,236 204,364.1 		"/>
		<polygon class="st0" points="319.5,136.5 236.8,236 395.1,227.8 		"/>
		<polygon class="st4" points="443.6,144.7 425,0.2 365.1,77.9 		"/>
		<polygon class="st3" points="425,0.2 289.6,31.6 365.1,77.9 		"/>
		<polygon class="st4" points="443.6,144.7 319.5,136.5 395.1,227.8 		"/>
		<polygon class="st0" points="365.1,77.9 319.5,136.5 443.6,144.7 		"/>
		<polygon class="st8" points="452.7,462.1 403.6,418.7 415.8,462.1 		"/>
		<polygon class="st5" points="415.8,462.1 403.6,418.7 349.3,462.1 		"/>
		<polygon class="st4" points="447.8,324.6 395.1,227.8 204,364.1 		"/>
		<polygon class="st5" points="403.6,418.7 447.8,324.6 204,364.1 		"/>
		<polygon class="st8" points="403.6,418.7 472.1,427.5 472.1,351 447.8,324.6 		"/>
		<polygon class="st5" points="452.7,462.1 472.1,462.1 472.1,427.5 403.6,418.7 		"/>
		<polygon class="st4" points="472.1,157.5 472.1,132.1 443.6,144.7 		"/>
		<polygon class="st7" points="472.1,132.1 472.1,21.8 425,0.2 443.6,144.7 		"/>
		<polygon class="st3" points="472.1,2.3 425,0.2 472.1,21.8 		"/>
		<polygon class="st6" points="395.1,227.8 472.1,224.4 472.1,157.5 443.6,144.7 		"/>
		<polygon class="st6" points="447.8,324.6 472.1,308.5 472.1,224.4 395.1,227.8 		"/>
	</g>
	<g>
		<polygon class="st9" points="510.1,519.9 510.1,519.7 509.8,519.9 		"/>
		<polygon class="st1" points="913.5,583.9 912.3,428.6 845.2,519.3 		"/>
		<polygon class="st1" points="733.3,621.2 883.7,687.1 913.5,583.9 		"/>
		<polygon class="st10" points="733.3,621.2 913.5,583.9 845.2,519.3 		"/>
		<polygon class="st1" points="912.3,428.6 866.3,315.4 733.3,424.8 		"/>
		<polygon class="st11" points="845.2,519.3 912.3,428.6 733.3,424.8 		"/>
		<polygon class="st12" points="809.1,801.5 883.7,687.1 788,785.3 		"/>
		<polygon class="st13" points="160.2,721.8 175.1,750.5 211.6,692.1 		"/>
		<polygon class="st10" points="281.3,651.8 369.1,801.5 348.5,613 		"/>
		<polygon class="st1" points="788,785.3 883.7,687.1 753.2,769.2 		"/>
		<polygon class="st14" points="630.1,313 510.1,396.5 510.1,431.8 581.6,513.1 		"/>
		<polygon class="st12" points="753.2,769.2 883.7,687.1 733.3,621.2 		"/>
		<polygon class="st1" points="281.3,651.8 211.6,692.1 175.1,750.5 369.1,801.5 		"/>
		<polygon class="st12" points="175.1,750.5 264.6,846.2 369.1,801.5 		"/>
		<polygon class="st11" points="369.1,801.5 477.2,857.4 472.2,815.1 		"/>
		<polygon class="st1" points="264.6,846.2 396.4,908.4 369.1,801.5 		"/>
		<polygon class="st11" points="733.3,535.5 733.3,621.2 845.2,519.3 		"/>
		<polygon class="st10" points="369.1,801.5 396.4,908.4 477.2,857.4 		"/>
		<polygon class="st15" points="493.4,704.5 613.9,802.7 604,684.6 		"/>
		<polygon class="st10" points="733.3,424.8 866.3,315.4 713.4,325.4 		"/>
		<polygon class="st10" points="845.2,519.3 733.3,424.8 733.3,535.5 		"/>
		<polygon class="st11" points="520.7,559.1 490.5,531.1 465.7,545.4 489.6,634.9 		"/>
		<polygon class="st15" points="616.4,587.7 520.7,559.1 615.2,641.1 		"/>
		<polygon class="st1" points="689.8,889.7 809.1,801.5 788,785.3 		"/>
		<polygon class="st10" points="472.2,815.1 613.9,802.7 493.4,704.5 		"/>
		<polygon class="st15" points="489.6,634.9 377.6,596.3 366.8,602.4 493.4,704.5 		"/>
		<polygon class="st14" points="465.7,545.4 377.6,596.3 489.6,634.9 		"/>
		<polygon class="st1" points="493.4,704.5 369.1,801.5 472.2,815.1 		"/>
		<polygon class="st11" points="366.8,602.4 348.5,613 369.1,801.5 493.4,704.5 		"/>
		<polygon class="st1" points="396.4,908.4 546.8,925.8 477.2,857.4 		"/>
		<polygon class="st12" points="866.3,315.4 805.4,234.6 713.4,325.4 		"/>
		<polygon class="st11" points="510.1,431.8 510.1,503.5 581.6,513.1 		"/>
		<polygon class="st15" points="509.8,519.9 490.5,531.1 520.7,559.1 581.6,513.1 510.1,503.5 510.1,519.7 510.1,519.9 		"/>
		<polygon class="st14" points="581.6,513.1 520.7,559.1 616.4,587.7 		"/>
		<polygon class="st11" points="618.9,184.9 630.1,313 683.6,218.5 		"/>
		<polygon class="st11" points="493.4,704.5 604,684.6 489.6,634.9 		"/>
		<polygon class="st15" points="692.3,731.9 733.3,621.2 615.2,641.1 		"/>
		<polygon class="st1" points="713.4,325.4 805.4,234.6 728.3,213.5 		"/>
		<polygon class="st11" points="477.2,857.4 613.9,802.7 472.2,815.1 		"/>
		<polygon class="st1" points="477.2,857.4 546.8,925.8 613.9,802.7 		"/>
		<polygon class="st12" points="805.4,234.6 703.4,156.3 728.3,213.5 		"/>
		<polygon class="st1" points="618.9,184.9 510.1,235.2 510.1,256.6 630.1,313 		"/>
		<polygon class="st14" points="615.2,641.1 520.7,559.1 489.6,634.9 		"/>
		<polygon class="st15" points="604,684.6 615.2,641.1 489.6,634.9 		"/>
		<polygon class="st10" points="510.1,132.8 510.1,235.2 618.9,184.9 		"/>
		<polygon class="st1" points="605.2,120.3 510.1,115.9 510.1,132.8 618.9,184.9 		"/>
		<polygon class="st11" points="510.1,256.6 510.1,318.6 630.1,313 		"/>
		<polygon class="st15" points="510.1,318.6 510.1,396.5 630.1,313 		"/>
		<polygon class="st11" points="753.2,769.2 733.3,621.2 692.3,731.9 		"/>
		<polygon class="st12" points="546.8,925.8 689.8,889.7 613.9,802.7 		"/>
		<polygon class="st1" points="613.9,802.7 689.8,889.7 753.2,769.2 		"/>
		<polygon class="st1" points="683.6,218.5 703.4,156.3 618.9,184.9 		"/>
		<polygon class="st12" points="703.4,156.3 605.2,120.3 618.9,184.9 		"/>
		<polygon class="st10" points="692.3,731.9 615.2,641.1 604,684.6 		"/>
		<polygon class="st11" points="604,684.6 613.9,802.7 692.3,731.9 		"/>
		<polygon class="st14" points="616.4,587.7 733.3,621.2 733.3,535.5 		"/>
		<polygon class="st10" points="728.3,213.5 683.6,218.5 713.4,325.4 		"/>
		<polygon class="st1" points="728.3,213.5 703.4,156.3 683.6,218.5 		"/>
		<polygon class="st12" points="753.2,769.2 689.8,889.7 788,785.3 		"/>
		<polygon class="st15" points="683.6,218.5 630.1,313 713.4,325.4 		"/>
		<polygon class="st11" points="713.4,325.4 630.1,313 733.3,424.8 		"/>
		<polygon class="st15" points="630.1,313 581.6,513.1 733.3,424.8 		"/>
		<polygon class="st10" points="613.9,802.7 753.2,769.2 692.3,731.9 		"/>
		<polygon class="st14" points="733.3,424.8 581.6,513.1 733.3,535.5 		"/>
		<polygon class="st15" points="733.3,535.5 581.6,513.1 616.4,587.7 		"/>
		<polygon class="st10" points="615.2,641.1 733.3,621.2 616.4,587.7 		"/>
	</g>
	<g>
		<polygon class="st16" points="315.3,588.3 326.5,581.8 292.8,570.2 		"/>
		<polygon class="st17" points="40.5,497.6 39.3,574.2 66.3,497.6 		"/>
		<polygon class="st16" points="211.8,497.6 129.2,497.6 39.3,574.2 200.3,602.3 		"/>
		<polygon class="st17" points="200.3,602.3 60.8,656 92.5,716.9 149.2,684.1 		"/>
		<polygon class="st18" points="39.3,574.2 60.8,656 200.3,602.3 		"/>
		<polygon class="st19" points="200.3,602.3 223.2,641.4 296,599.4 292.8,570.2 		"/>
		<polygon class="st20" points="66.3,497.6 39.3,574.2 129.2,497.6 		"/>
		<polygon class="st2" points="292.8,570.2 257.8,497.6 211.8,497.6 200.3,602.3 		"/>
		<polygon class="st16" points="379.5,497.6 257.8,497.6 292.8,570.2 		"/>
		<polygon class="st16" points="149.2,684.1 223.2,641.4 200.3,602.3 		"/>
		<polygon class="st19" points="448.7,511.2 434,497.6 414.6,497.6 422.3,526.5 		"/>
		<polygon class="st18" points="326.5,581.8 422.3,526.5 414.6,497.6 379.5,497.6 292.8,570.2 		"/>
		<polygon class="st2" points="296,599.4 315.3,588.3 292.8,570.2 		"/>
		<polygon class="st2" points="471.7,498 472.1,497.6 434,497.6 448.7,511.2 		"/>
	</g>
</g>
</svg>
