<?xml version="1.0" encoding="utf-8"?>
<!-- Generator: Adobe Illustrator 26.0.3, SVG Export Plug-In . SVG Version: 6.00 Build 0)  -->
<svg version="1.1" id="Layer_1" xmlns="http://www.w3.org/2000/svg" xmlns:xlink="http://www.w3.org/1999/xlink" x="0px" y="0px"
	 width="699.5px" height="676.5px" viewBox="0 0 699.5 676.5" style="enable-background:new 0 0 699.5 676.5;" xml:space="preserve"
	>
<style type="text/css">
	.st0{fill:#0C111D;}
	.st1{fill:#0E1628;}
	.st2{fill:#0E1A33;}
	.st3{fill:#080B11;}
	.st4{fill:#101E3E;}
	.st5{fill:#112044;}
</style>
<path class="st0" d="M0,0l0.8,97.6l54-23.7L0,0z"/>
<path class="st1" d="M0,0l54.8,73.9l7.5-45.7L0,0z"/>
<path class="st2" d="M0,0l62.3,28.2l26.3-3.6L0,0z"/>
<path class="st0" d="M0,0l88.6,24.7l56.3-24.8L0,0z"/>
<path class="st3" d="M62.3,28.2l-7.5,45.7l33.4,3.6L62.3,28.2z"/>
<path class="st1" d="M62.3,28.2l25.9,49.2l0.4-52.8L62.3,28.2z"/>
<path class="st3" d="M88.6,24.7l-0.4,52.8l56.7-77.6L88.6,24.7z"/>
<path class="st2" d="M144.9-0.1L88.2,77.4l54.8,23.7L144.9-0.1z"/>
<path class="st0" d="M144.9-0.1L143,101.2l43.9-70L144.9-0.1z"/>
<path class="st2" d="M144.9-0.1l42,31.3l56.3-31.3H144.9z"/>
<path class="st2" d="M186.9,31.2l-43.9,70l37.9,8.3L186.9,31.2z"/>
<path class="st4" d="M186.9,31.2l-6,78.3l65.3-35L186.9,31.2z"/>
<path class="st0" d="M186.9,31.2l59.3,43.3l-3-74.6L186.9,31.2z"/>
<path class="st3" d="M243.2-0.1l3,74.6L289-0.1H243.2z"/>
<path class="st1" d="M289-0.1l-42.8,74.6l47.7,17.2L289-0.1z"/>
<path class="st2" d="M289-0.1l4.9,91.8L317.1,20L289-0.1z"/>
<path class="st3" d="M289-0.1L317.1,20l50.7-0.1L289-0.1z"/>
<path class="st0" d="M289-0.1l78.8,20L403.7,0L289-0.1z"/>
<path class="st0" d="M317.1,20l-23.3,71.6l39-20.8L317.1,20z"/>
<path class="st2" d="M317.1,20l15.8,50.9l34.9-51L317.1,20z"/>
<path class="st0" d="M367.8,19.9l-34.9,51L367,81L367.8,19.9z"/>
<path class="st1" d="M367.8,19.9L367,81l36.7-81L367.8,19.9z"/>
<path class="st2" d="M403.7,0L367,81l60.4,11.9L403.7,0z"/>
<path class="st0" d="M403.7,0l23.8,92.9l21.8-84.8L403.7,0z"/>
<path class="st1" d="M403.7,0l45.5,8.1L499.5,0H403.7z"/>
<path class="st2" d="M449.2,8.1l-21.8,84.8l22.5-4.7L449.2,8.1z"/>
<path class="st3" d="M449.2,8.1l0.8,80.1L499.5,0L449.2,8.1z"/>
<path class="st2" d="M499.5,0l-49.5,88.1l61.9,16.6L499.5,0z"/>
<path class="st1" d="M499.5,0l12.4,104.7l28.5-72.9L499.5,0z"/>
<path class="st0" d="M499.5,0l40.9,31.8l60-31.8H499.5z"/>
<path class="st2" d="M540.4,31.8l-28.5,72.9l36.8,3L540.4,31.8z"/>
<path class="st0" d="M540.4,31.8l8.3,75.9l55.5-17.8L540.4,31.8z"/>
<path class="st1" d="M540.4,31.8l63.8,58.1L600.4,0L540.4,31.8z"/>
<path class="st0" d="M600.4,0l3.8,89.9l30.4-3.6L600.4,0z"/>
<path class="st3" d="M600.4,0l34.1,86.3L637.8,0H600.4z"/>
<path class="st0" d="M637.8,0l-3.3,86.3L699.5,0H637.8z"/>
<path class="st1" d="M699.5,0l-64.9,86.3l64.9-4.7V0z"/>
<path class="st3" d="M0.8,97.6v75.9l57.8,1.2L0.8,97.6z"/>
<path class="st1" d="M0.8,97.6l57.8,77.1L54.8,73.9L0.8,97.6z"/>
<path class="st2" d="M54.8,73.9l3.8,100.8l29.6-97.3L54.8,73.9z"/>
<path class="st2" d="M88.2,77.4l-29.6,97.3l54.8-26.1L88.2,77.4z"/>
<path class="st1" d="M88.2,77.4l25.1,71.2l29.6-47.4L88.2,77.4z"/>
<path class="st2" d="M143,101.2l-29.6,47.4l45.4,15.4L143,101.2z"/>
<path class="st0" d="M143,101.2l15.8,62.9l22.1-54.6L143,101.2z"/>
<path class="st2" d="M180.9,109.5L158.7,164l30,11.9L180.9,109.5z"/>
<path class="st2" d="M180.9,109.5l7.9,66.4l54.4-1.8L180.9,109.5z"/>
<path class="st2" d="M180.9,109.5l62.3,64.6l3-99.6L180.9,109.5z"/>
<path class="st1" d="M246.2,74.5l-3,99.6l29.3-0.6L246.2,74.5z"/>
<path class="st4" d="M246.2,74.5l26.3,99l21.4-81.8L246.2,74.5z"/>
<path class="st1" d="M293.8,91.7l-21.4,81.8l46.2-32.6L293.8,91.7z"/>
<path class="st4" d="M293.8,91.7l24.8,49.2l14.3-70L293.8,91.7z"/>
<path class="st2" d="M332.9,70.9l-14.3,70L367,81L332.9,70.9z"/>
<path class="st4" d="M367,81l-48.4,59.9l55.9,17.8L367,81z"/>
<path class="st4" d="M367,81l7.5,77.7l44.7-10.7L367,81z"/>
<path class="st2" d="M367,81l52.2,67l8.3-55.2L367,81z"/>
<path class="st4" d="M427.4,92.9l-8.3,55.2l30.8-59.9L427.4,92.9z"/>
<path class="st2" d="M449.9,88.1L419.2,148l51.8,23.7L449.9,88.1z"/>
<path class="st2" d="M449.9,88.1l21,83.6l40.9-67L449.9,88.1z"/>
<path class="st4" d="M511.8,104.7l-40.9,67l34.5-12.5L511.8,104.7z"/>
<path class="st1" d="M511.8,104.7l-6.4,54.6l43.2-51.6L511.8,104.7z"/>
<path class="st2" d="M548.6,107.7l-43.2,51.6l56.3-11.3L548.6,107.7z"/>
<path class="st2" d="M548.6,107.7l13.1,40.3l30.4-3L548.6,107.7z"/>
<path class="st2" d="M548.6,107.7l43.5,37.4l12-55.2L548.6,107.7z"/>
<path class="st1" d="M604.1,89.9l-12,55.2l42.4-58.7L604.1,89.9z"/>
<path class="st2" d="M634.5,86.3L592.1,145l43.2,29.7L634.5,86.3z"/>
<path class="st0" d="M634.5,86.3l0.8,88.4l64.2-8.3L634.5,86.3z"/>
<path class="st2" d="M634.5,86.3l64.9,80.1V81.6L634.5,86.3z"/>
<path class="st1" d="M0.8,173.5L0,232.1l42.4,10.2L0.8,173.5z"/>
<path class="st2" d="M0.8,173.5l41.7,68.8l16.1-67.6L0.8,173.5z"/>
<path class="st2" d="M58.6,174.7l-16.1,67.6l61.2,7.7L58.6,174.7z"/>
<path class="st0" d="M58.6,174.7l45,75.3l9.8-101.4L58.6,174.7z"/>
<path class="st5" d="M113.3,148.6L103.6,250l43.9-5.3L113.3,148.6z"/>
<path class="st4" d="M113.3,148.6l34.1,96.1l11.3-80.7L113.3,148.6z"/>
<path class="st2" d="M158.7,164l-11.3,80.7l37.9-30.8L158.7,164z"/>
<path class="st4" d="M158.7,164l26.6,49.8l3.4-38L158.7,164z"/>
<path class="st5" d="M188.8,175.9l-3.4,38l46.2,1.2L188.8,175.9z"/>
<path class="st4" d="M188.8,175.9l42.8,39.1l11.6-40.9L188.8,175.9z"/>
<path class="st2" d="M243.2,174.1L231.5,215l40.9-41.5L243.2,174.1z"/>
<path class="st5" d="M272.4,173.5L231.5,215l59.3,7.1L272.4,173.5z"/>
<path class="st2" d="M272.4,173.5l18.4,48.6l27.8-81.2L272.4,173.5z"/>
<path class="st5" d="M318.6,140.9l-27.8,81.2l36.8,1.2L318.6,140.9z"/>
<path class="st2" d="M318.6,140.9l9,82.4l46.9-64.6L318.6,140.9z"/>
<path class="st4" d="M374.5,158.7l-46.9,64.6l49.5,17.2L374.5,158.7z"/>
<path class="st2" d="M374.5,158.7l2.6,81.8l47.3-5.3L374.5,158.7z"/>
<path class="st5" d="M374.5,158.7l49.9,76.5l-5.3-87.2L374.5,158.7z"/>
<path class="st4" d="M419.2,148l5.3,87.2l35.3-7.7L419.2,148z"/>
<path class="st4" d="M419.2,148l40.5,79.5l11.3-55.7L419.2,148z"/>
<path class="st2" d="M470.9,171.7l-11.3,55.7l57,6.5L470.9,171.7z"/>
<path class="st4" d="M470.9,171.7l45.8,62.3l-11.3-74.7L470.9,171.7z"/>
<path class="st4" d="M505.5,159.3l11.3,74.7l26.3-7.7L505.5,159.3z"/>
<path class="st5" d="M505.5,159.3l37.5,67l18.8-78.3L505.5,159.3z"/>
<path class="st2" d="M561.7,148L543,226.3l52.5-15.4L561.7,148z"/>
<path class="st1" d="M561.7,148l33.8,62.9l-3.4-65.8L561.7,148z"/>
<path class="st2" d="M592.1,145l3.4,65.8l39.8-36.2L592.1,145z"/>
<path class="st2" d="M635.3,174.7l-39.8,36.2l47.3,27.3L635.3,174.7z"/>
<path class="st1" d="M635.3,174.7l7.5,63.5l56.7-71.8L635.3,174.7z"/>
<path class="st2" d="M699.5,166.4l-56.7,71.8l56.7,10.1V166.4z"/>
<path class="st1" d="M0,232.1v64.2l42.4-53.9L0,232.1z"/>
<path class="st2" d="M42.4,242.3L0,296.2l43.9,22L42.4,242.3z"/>
<path class="st1" d="M42.4,242.3l1.5,75.9l57-33.8L42.4,242.3z"/>
<path class="st4" d="M42.4,242.3l58.5,42.1l2.6-34.4L42.4,242.3z"/>
<path class="st4" d="M103.6,250l-2.6,34.4l38.6,22.5L103.6,250z"/>
<path class="st2" d="M103.6,250l36,56.9l7.9-62.3L103.6,250z"/>
<path class="st5" d="M147.5,244.7l-7.9,62.3l61.9-16L147.5,244.7z"/>
<path class="st5" d="M147.5,244.7l54,46.3l-16.1-77.1L147.5,244.7z"/>
<path class="st4" d="M185.4,213.8l16.1,77.1l30-75.9L185.4,213.8z"/>
<path class="st4" d="M231.5,215l-30,75.9l34.5,12.5L231.5,215z"/>
<path class="st5" d="M231.5,215l4.5,88.4l43.9-0.6L231.5,215z"/>
<path class="st4" d="M231.5,215l48.4,87.8l10.9-80.7L231.5,215z"/>
<path class="st5" d="M290.8,222.1l-10.9,80.7l46.2,4.7L290.8,222.1z"/>
<path class="st4" d="M290.8,222.1l35.3,85.4l1.5-84.2L290.8,222.1z"/>
<path class="st5" d="M327.6,223.3l-1.5,84.2l51-67L327.6,223.3z"/>
<path class="st2" d="M377.1,240.5l-51,67l51-1.8V240.5z"/>
<path class="st4" d="M377.1,240.5v65.2l41.7-20.8L377.1,240.5z"/>
<path class="st5" d="M377.1,240.5l41.7,44.5l5.6-49.8L377.1,240.5z"/>
<path class="st5" d="M424.4,235.2l-5.6,49.8l40.9-57.5L424.4,235.2z"/>
<path class="st4" d="M459.7,227.5L418.8,285l53.7,37.4L459.7,227.5z"/>
<path class="st5" d="M459.7,227.5l12.8,94.9l40.9-30.2L459.7,227.5z"/>
<path class="st2" d="M459.7,227.5l53.7,64.6l3.4-58.1L459.7,227.5z"/>
<path class="st5" d="M516.7,234l-3.4,58.1l29.6-65.8L516.7,234z"/>
<path class="st5" d="M543,226.3l-29.6,65.8l25.9,17.2L543,226.3z"/>
<path class="st4" d="M543,226.3l-3.8,83l60,13L543,226.3z"/>
<path class="st5" d="M543,226.3l56.3,96.1l-3.8-111.5L543,226.3z"/>
<path class="st2" d="M595.5,210.9l3.8,111.5l33.4-39.1L595.5,210.9z"/>
<path class="st1" d="M595.5,210.9l37.1,72.3l10.1-45.1L595.5,210.9z"/>
<path class="st2" d="M642.8,238.1l-10.1,45.1l66.8,16.6L642.8,238.1z"/>
<path class="st4" d="M642.8,238.1l56.7,61.7v-51.6L642.8,238.1z"/>
<path class="st1" d="M0,296.2V356l43.9-37.8L0,296.2z"/>
<path class="st2" d="M43.9,318.2L0,356l48.1,34L43.9,318.2z"/>
<path class="st4" d="M43.9,318.2l4.1,71.8l50.3-1.2L43.9,318.2z"/>
<path class="st2" d="M43.9,318.2l54.4,70.6l2.6-104.4L43.9,318.2z"/>
<path class="st5" d="M101,284.4l-2.6,104.4l41.3-81.8L101,284.4z"/>
<path class="st2" d="M139.6,306.9l-41.3,81.8l42.8-1.2L139.6,306.9z"/>
<path class="st4" d="M139.6,306.9l1.5,80.7l38.6,5.9L139.6,306.9z"/>
<path class="st4" d="M139.6,306.9l40.1,86.6l21.8-102.6L139.6,306.9z"/>
<path class="st2" d="M201.5,290.9l-21.8,102.6l67.9-23.7L201.5,290.9z"/>
<path class="st5" d="M201.5,290.9l46.2,78.9L236,303.4L201.5,290.9z"/>
<path class="st2" d="M236,303.4l11.6,66.4l32.3-67L236,303.4z"/>
<path class="st5" d="M279.9,302.8l-32.3,67l42,14.8L279.9,302.8z"/>
<path class="st4" d="M279.9,302.8l9.8,81.8l36.4-77.1L279.9,302.8z"/>
<path class="st5" d="M326.1,307.5l-36.4,77.1l27,4.2L326.1,307.5z"/>
<path class="st2" d="M326.1,307.5l-9.4,81.2l64.9-14.2L326.1,307.5z"/>
<path class="st4" d="M326.1,307.5l55.5,67l-4.5-68.8L326.1,307.5z"/>
<path class="st2" d="M377.1,305.8l4.5,68.8l32.6-19.6L377.1,305.8z"/>
<path class="st5" d="M377.1,305.8l37.1,49.2l4.5-70L377.1,305.8z"/>
<path class="st2" d="M418.8,285l-4.5,70l58.2-32.6L418.8,285z"/>
<path class="st4" d="M472.4,322.4L414.3,355l38.3,17.8L472.4,322.4z"/>
<path class="st2" d="M472.4,322.4l-19.9,50.4l63.4,13.6L472.4,322.4z"/>
<path class="st4" d="M472.4,322.4l43.5,64l-2.6-94.3L472.4,322.4z"/>
<path class="st4" d="M513.3,292.1l2.6,94.3l23.3-77.1L513.3,292.1z"/>
<path class="st5" d="M539.2,309.3L516,386.4l36-32L539.2,309.3z"/>
<path class="st2" d="M539.2,309.3l12.8,45.1l47.3-32L539.2,309.3z"/>
<path class="st1" d="M599.3,322.4l-47.3,32l56.7,39.1L599.3,322.4z"/>
<path class="st1" d="M599.3,322.4l9.4,71.2l35.6-29.7L599.3,322.4z"/>
<path class="st2" d="M599.3,322.4l45,41.5l-11.6-80.7L599.3,322.4z"/>
<path class="st3" d="M632.7,283.2l11.6,80.7l55.2-64L632.7,283.2z"/>
<path class="st1" d="M699.5,299.8l-55.2,64l55.2,28.5V299.8z"/>
<path class="st1" d="M0,356v86l48.1-52L0,356z"/>
<path class="st3" d="M48.1,390L0,441.9l63.1-2.1L48.1,390z"/>
<path class="st1" d="M48.1,390l15,49.8l35.3-51L48.1,390z"/>
<path class="st2" d="M98.3,388.8l-35.3,51l32.6-8.3L98.3,388.8z"/>
<path class="st4" d="M98.3,388.8l-2.6,42.7l45.4-43.9L98.3,388.8z"/>
<path class="st1" d="M141.1,387.6l-45.4,43.9L152,451L141.1,387.6z"/>
<path class="st2" d="M141.1,387.6L152,451l27.8-57.5L141.1,387.6z"/>
<path class="st4" d="M179.8,393.5L152,451l43.9-24.3L179.8,393.5z"/>
<path class="st4" d="M179.8,393.5l16.1,33.2l51.8-56.9L179.8,393.5z"/>
<path class="st1" d="M247.7,369.8l-51.8,56.9l35.6,9.5L247.7,369.8z"/>
<path class="st5" d="M247.7,369.8l-16.1,66.4l46.9-7.1L247.7,369.8z"/>
<path class="st2" d="M247.7,369.8l30.8,59.3l11.3-44.5L247.7,369.8z"/>
<path class="st5" d="M289.7,384.6l-11.3,44.5l38.3-40.3L289.7,384.6z"/>
<path class="st4" d="M316.7,388.8l-38.3,40.3l55.2,6.5L316.7,388.8z"/>
<path class="st4" d="M316.7,388.8l16.9,46.8l48-61.1L316.7,388.8z"/>
<path class="st4" d="M381.6,374.5l-48,61.1l24.8,8.9L381.6,374.5z"/>
<path class="st2" d="M381.6,374.5l-23.3,70l61.9,0.6L381.6,374.5z"/>
<path class="st4" d="M381.6,374.5l38.6,70.6l-6-90.1L381.6,374.5z"/>
<path class="st2" d="M414.3,355l6,90.1l32.3-72.3L414.3,355z"/>
<path class="st4" d="M452.6,372.8l-32.3,72.3l47.7,15.4L452.6,372.8z"/>
<path class="st2" d="M452.6,372.8l15.4,87.8l25.9,0.6L452.6,372.8z"/>
<path class="st4" d="M452.6,372.8l41.3,88.4l22.1-74.7L452.6,372.8z"/>
<path class="st1" d="M516,386.4l-22.1,74.7l51.4,3L516,386.4z"/>
<path class="st2" d="M516,386.4l29.3,77.7l6.8-109.7L516,386.4z"/>
<path class="st0" d="M552,354.4l-6.8,109.7l53.3-13.6L552,354.4z"/>
<path class="st1" d="M552,354.4l46.5,96.1l10.1-56.9L552,354.4z"/>
<path class="st1" d="M608.6,393.5l-10.1,56.9l43.2,6.5L608.6,393.5z"/>
<path class="st4" d="M608.6,393.5l33,63.5l2.6-93.1L608.6,393.5z"/>
<path class="st2" d="M644.3,363.9l-2.6,93.1l57.8-64.6L644.3,363.9z"/>
<path class="st0" d="M699.5,392.3L641.7,457l57.8-16.2V392.3z"/>
<path class="st3" d="M0,441.9v86.8l45.4-18.4L0,441.9z"/>
<path class="st1" d="M0,441.9l45.4,68.4l17.6-70.6L0,441.9z"/>
<path class="st4" d="M63.1,439.8l-17.6,70.6l47.7-7.1L63.1,439.8z"/>
<path class="st1" d="M63.1,439.8l30,63.5l2.6-71.8L63.1,439.8z"/>
<path class="st2" d="M95.7,431.5l-2.6,71.8L152,451L95.7,431.5z"/>
<path class="st2" d="M152,451l-58.9,52.2l51.8,8.9L152,451z"/>
<path class="st2" d="M152,451l-7.1,61.1l42.8-4.7L152,451z"/>
<path class="st2" d="M152,451l35.6,56.3l8.3-80.7L152,451z"/>
<path class="st4" d="M195.9,426.7l-8.3,80.7l43.9-71.2L195.9,426.7z"/>
<path class="st2" d="M231.5,436.2l-43.9,71.2l49.9-7.7L231.5,436.2z"/>
<path class="st4" d="M231.5,436.2l6,63.5l40.9-70.6L231.5,436.2z"/>
<path class="st2" d="M278.4,429.1l-40.9,70.6l52.5,5.9L278.4,429.1z"/>
<path class="st4" d="M278.4,429.1l11.6,76.5l43.5-70L278.4,429.1z"/>
<path class="st2" d="M333.6,435.6l-43.5,70l46.5,23.1L333.6,435.6z"/>
<path class="st4" d="M333.6,435.6l3,93.1l21.8-84.2L333.6,435.6z"/>
<path class="st2" d="M358.4,444.5l-21.8,84.2l33.4-29.1L358.4,444.5z"/>
<path class="st4" d="M358.4,444.5l11.6,55.2l50.3-54.6L358.4,444.5z"/>
<path class="st2" d="M420.3,445.1L370,499.7l40.1,30.8L420.3,445.1z"/>
<path class="st2" d="M420.3,445.1l-10.1,85.4l51-23.1L420.3,445.1z"/>
<path class="st1" d="M420.3,445.1l40.9,62.3l6.8-46.8L420.3,445.1z"/>
<path class="st1" d="M467.9,460.5l-6.8,46.8l32.6-46.3L467.9,460.5z"/>
<path class="st0" d="M493.8,461.1l-32.6,46.3l42-6.5L493.8,461.1z"/>
<path class="st1" d="M493.8,461.1l9.4,39.7l42-36.8L493.8,461.1z"/>
<path class="st1" d="M545.2,464.1l-42,36.8l54.4,23.7L545.2,464.1z"/>
<path class="st0" d="M545.2,464.1l12.4,60.5l25.9-16.6L545.2,464.1z"/>
<path class="st1" d="M545.2,464.1l38.3,43.9l15-57.5L545.2,464.1z"/>
<path class="st0" d="M598.5,450.5l-15,57.5l48.4-13L598.5,450.5z"/>
<path class="st1" d="M598.5,450.5l33.4,44.5l9.8-38L598.5,450.5z"/>
<path class="st3" d="M641.7,457l-9.8,38l67.6,17.9L641.7,457z"/>
<path class="st1" d="M641.7,457l57.8,55.8v-72L641.7,457z"/>
<path class="st3" d="M0,528.7v63.3l66.4-5.2L0,528.7z"/>
<path class="st1" d="M0,528.7l66.4,58.1l-21-76.5L0,528.7z"/>
<path class="st2" d="M45.4,510.3l21,76.5l26.6-83.6L45.4,510.3z"/>
<path class="st1" d="M93.1,503.2l-26.6,83.6L92,605.2L93.1,503.2z"/>
<path class="st2" d="M93.1,503.2l-1.1,102l56.7-24.9L93.1,503.2z"/>
<path class="st3" d="M93.1,503.2l55.5,77.1l-3.8-68.2L93.1,503.2z"/>
<path class="st2" d="M144.9,512.1l3.8,68.2l39-72.9L144.9,512.1z"/>
<path class="st2" d="M187.6,507.4l-39,72.9l50.7-9.5L187.6,507.4z"/>
<path class="st2" d="M187.6,507.4l11.6,63.5l38.3-71.2L187.6,507.4z"/>
<path class="st1" d="M237.5,499.7l-38.3,71.2l27.8,9.5L237.5,499.7z"/>
<path class="st2" d="M237.5,499.7L227,580.3l47.7,26.7L237.5,499.7z"/>
<path class="st4" d="M237.5,499.7L274.7,607l15.4-101.4L237.5,499.7z"/>
<path class="st2" d="M290.1,505.6L274.7,607l42-5.9L290.1,505.6z"/>
<path class="st1" d="M290.1,505.6l26.6,95.5l19.9-72.3L290.1,505.6z"/>
<path class="st2" d="M336.6,528.7l-19.9,72.3l41.7-11.9L336.6,528.7z"/>
<path class="st2" d="M336.6,528.7l21.8,60.5l11.6-89.5L336.6,528.7z"/>
<path class="st2" d="M370,499.7l-11.6,89.5l51.8-58.7L370,499.7z"/>
<path class="st1" d="M410.2,530.5l-51.8,58.7l53.7-17.8L410.2,530.5z"/>
<path class="st0" d="M410.2,530.5l1.9,40.9l49.2-64L410.2,530.5z"/>
<path class="st1" d="M461.2,507.4l-49.2,64l60.4,1.8L461.2,507.4z"/>
<path class="st2" d="M461.2,507.4l11.3,65.8l30.8-72.3L461.2,507.4z"/>
<path class="st1" d="M503.2,500.9l-30.8,72.3l25.9,4.2L503.2,500.9z"/>
<path class="st0" d="M503.2,500.9l-4.9,76.5l59.3-52.8L503.2,500.9z"/>
<path class="st1" d="M557.6,524.6l-59.3,52.8l55.2,16L557.6,524.6z"/>
<path class="st3" d="M557.6,524.6l-4.1,68.8l39.8-1.8L557.6,524.6z"/>
<path class="st0" d="M557.6,524.6l35.6,67l-9.8-83.6L557.6,524.6z"/>
<path class="st3" d="M583.5,508l9.8,83.6l44.3-18.4L583.5,508z"/>
<path class="st1" d="M583.5,508l54,65.2l-5.6-78.3L583.5,508z"/>
<path class="st0" d="M631.9,494.9l5.6,78.3l61.9-60.4L631.9,494.9z"/>
<path class="st3" d="M699.5,512.8l-61.9,60.4l61.9,10.8V512.8z"/>
<path class="st3" d="M0,592.1v84.4h56.7L0,592.1z"/>
<path class="st1" d="M0,592.1l56.7,84.4l9.8-89.6L0,592.1z"/>
<path class="st2" d="M66.4,586.8l-9.8,89.6L92,605.2L66.4,586.8z"/>
<path class="st3" d="M92,605.2l-35.3,71.3l46.9-23.2L92,605.2z"/>
<path class="st1" d="M92,605.2l11.6,48l45-72.9L92,605.2z"/>
<path class="st1" d="M148.6,580.3l-45,72.9l42.4-2.4L148.6,580.3z"/>
<path class="st0" d="M148.6,580.3l-2.6,70.6l35.5,25.6L148.6,580.3z"/>
<path class="st1" d="M148.6,580.3l32.9,96.2l17.8-105.6L148.6,580.3z"/>
<path class="st2" d="M199.3,570.8l-17.8,105.6l59.4-25.6L199.3,570.8z"/>
<path class="st1" d="M199.3,570.8l41.7,80.1L227,580.3L199.3,570.8z"/>
<path class="st2" d="M227,580.3l13.9,70.6l33.8-43.9L227,580.3z"/>
<path class="st0" d="M274.7,607l-33.8,43.9l49.2,25.6L274.7,607z"/>
<path class="st2" d="M274.7,607l15.4,69.5l26.6-75.4L274.7,607z"/>
<path class="st1" d="M316.7,601.1l-26.6,75.4l31.5-26.8L316.7,601.1z"/>
<path class="st2" d="M316.7,601.1l4.9,48.6l36.8-60.5L316.7,601.1z"/>
<path class="st0" d="M358.4,589.2l-36.8,60.5l60.4,26.8L358.4,589.2z"/>
<path class="st1" d="M358.4,589.2l23.6,87.3l24.8-32.1L358.4,589.2z"/>
<path class="st0" d="M358.4,589.2l48.4,55.2l5.3-72.9L358.4,589.2z"/>
<path class="st2" d="M412,571.4l-5.3,72.9l65.7-71.2L412,571.4z"/>
<path class="st0" d="M472.4,573.2l-65.7,71.2l61.2,32.1L472.4,573.2z"/>
<path class="st2" d="M472.4,573.2l-4.5,103.3l27-19.7L472.4,573.2z"/>
<path class="st0" d="M472.4,573.2l22.5,83.6l3.4-79.5L472.4,573.2z"/>
<path class="st3" d="M498.3,577.4l-3.4,79.5l58.5-63.5L498.3,577.4z"/>
<path class="st1" d="M553.5,593.4L495,656.8l69.4,19.7L553.5,593.4z"/>
<path class="st3" d="M553.5,593.4l10.9,83.1l30.8-25.6L553.5,593.4z"/>
<path class="st0" d="M553.5,593.4l41.7,57.5l-1.9-59.3L553.5,593.4z"/>
<path class="st3" d="M593.3,591.6l1.9,59.3l42,2.4L593.3,591.6z"/>
<path class="st0" d="M593.3,591.6l43.9,61.7l0.4-80.1L593.3,591.6z"/>
<path class="st1" d="M637.5,573.2l-0.4,80.1l62.3-69.2L637.5,573.2z"/>
<path class="st3" d="M699.5,584.1l-62.3,69.2l62.3,23.2V584.1z"/>
<path class="st3" d="M56.7,676.5h124.8l-77.9-23.2L56.7,676.5z"/>
<path class="st2" d="M103.6,653.3l77.9,23.2L146,650.9L103.6,653.3z"/>
<path class="st1" d="M181.5,676.5h108.6l-49.2-25.6L181.5,676.5z"/>
<path class="st1" d="M290.1,676.5H382l-60.4-26.8L290.1,676.5z"/>
<path class="st2" d="M382,676.5h85.9l-61.2-32.1L382,676.5z"/>
<path class="st3" d="M467.9,676.5h96.4L495,656.8L467.9,676.5z"/>
<path class="st0" d="M564.4,676.5h135.1l-62.3-23.2L564.4,676.5z"/>
<path class="st1" d="M564.4,676.5l72.8-23.2l-42-2.4L564.4,676.5z"/>
<g>
	<g>
		<path class="st3" d="M648.4-66.7c1.9,0,1.9-3,0-3C646.5-69.7,646.5-66.7,648.4-66.7L648.4-66.7z"/>
	</g>
</g>
</svg>
