<?xml version="1.0" encoding="utf-8"?>
<!-- Generator: Adobe Illustrator 26.4.1, SVG Export Plug-In . SVG Version: 6.00 Build 0)  -->
<svg version="1.1" id="Layer_1" xmlns="http://www.w3.org/2000/svg" xmlns:xlink="http://www.w3.org/1999/xlink" x="0px" y="0px"
	 width="699.5px" height="676.5px" viewBox="0 0 699.5 676.5" style="enable-background:new 0 0 699.5 676.5;" xml:space="preserve"
	>
<style type="text/css">
	.st0{fill:#0C111D;}
	.st1{fill:#0E1628;}
	.st2{fill:#0A0E17;}
	.st3{fill:#080B11;}
	.st4{fill:#0E1A33;}
	.st5{fill:#101E3E;}
	.st6{fill:#0D1422;}
	.st7{fill:#112044;}
	.st8{fill:#0C182B;}
	.st9{fill:#0D1219;}
</style>
<path class="st0" d="M0-0.8l0.8,97.6l54-23.7L0-0.8z"/>
<path class="st1" d="M0-0.8L54.8,73l7.5-45.7L0-0.8z"/>
<path class="st2" d="M0-0.8l62.3,28.2l26.3-3.6L0-0.8z"/>
<path class="st0" d="M0-0.8l88.6,24.7L144.9-1L0-0.8z"/>
<path class="st3" d="M62.3,27.4L54.8,73l33.4,3.6L62.3,27.4z"/>
<path class="st1" d="M62.3,27.4l25.9,49.2l0.4-52.8L62.3,27.4z"/>
<path class="st3" d="M88.6,23.8l-0.4,52.8L144.9-1L88.6,23.8z"/>
<path class="st4" d="M144.9-1L88.2,76.6l54.8,23.7L144.9-1z"/>
<path class="st0" d="M144.9-1L143,100.3l43.9-70L144.9-1z"/>
<path class="st2" d="M144.9-1l42,31.3L243.2-1H144.9z"/>
<path class="st4" d="M186.9,30.3l-43.9,70l37.9,8.3L186.9,30.3z"/>
<path class="st5" d="M186.9,30.3l-6,78.3l65.3-35L186.9,30.3z"/>
<path class="st0" d="M186.9,30.3l59.3,43.3l-3-74.6L186.9,30.3z"/>
<path class="st3" d="M243.2-1l3,74.6L289-1H243.2z"/>
<path class="st1" d="M289-1l-42.8,74.6l47.7,17.2L289-1z"/>
<path class="st4" d="M289-1l4.9,91.8l23.3-71.6L289-1z"/>
<path class="st3" d="M289-1l28.1,20.2l50.7-0.1L289-1z"/>
<path class="st0" d="M289-1l78.8,20l35.9-19.9L289-1z"/>
<path class="st0" d="M317.1,19.2l-23.3,71.6l39-20.8L317.1,19.2z"/>
<path class="st4" d="M317.1,19.2l15.8,50.9l34.9-51L317.1,19.2z"/>
<path class="st0" d="M367.8,19.1l-34.9,51L367,80.2L367.8,19.1z"/>
<path class="st1" d="M367.8,19.1L367,80.2l36.7-81L367.8,19.1z"/>
<path class="st3" d="M403.7-0.8l-36.7,81L427.4,92L403.7-0.8z"/>
<path class="st0" d="M403.7-0.8L427.4,92l21.8-84.8L403.7-0.8z"/>
<path class="st1" d="M403.7-0.8l45.5,8.1l50.3-8.1H403.7z"/>
<path class="st4" d="M449.2,7.2L427.4,92l22.5-4.7L449.2,7.2z"/>
<path class="st3" d="M449.2,7.2l0.8,80.1l49.5-88.1L449.2,7.2z"/>
<path class="st6" d="M499.5-0.8l-49.5,88.1l61.9,16.6L499.5-0.8z"/>
<path class="st1" d="M499.5-0.8l12.4,104.7l28.5-72.9L499.5-0.8z"/>
<path class="st0" d="M499.5-0.8l40.9,31.8l60-31.8H499.5z"/>
<path class="st4" d="M540.4,30.9l-28.5,72.9l36.8,3L540.4,30.9z"/>
<path class="st0" d="M540.4,30.9l8.3,75.9l55.5-17.8L540.4,30.9z"/>
<path class="st1" d="M540.4,30.9l63.8,58.1l-3.8-89.9L540.4,30.9z"/>
<path class="st0" d="M600.4-0.8l3.8,89.9l30.4-3.6L600.4-0.8z"/>
<path class="st3" d="M600.4-0.8l34.1,86.3l3.3-86.3H600.4z"/>
<path class="st0" d="M637.8-0.8l-3.3,86.3l64.9-86.3H637.8z"/>
<path class="st3" d="M699.5-0.8l-64.9,86.3l64.9-4.7V-0.8z"/>
<path class="st3" d="M0.8,96.8v75.9l57.8,1.2L0.8,96.8z"/>
<path class="st1" d="M0.8,96.8l57.8,77.1L54.8,73L0.8,96.8z"/>
<path class="st4" d="M54.8,73l3.8,100.8l29.6-97.3L54.8,73z"/>
<path class="st4" d="M88.2,76.6l-29.6,97.3l54.8-26.1L88.2,76.6z"/>
<path class="st1" d="M88.2,76.6l25.1,71.2l29.6-47.4L88.2,76.6z"/>
<path class="st4" d="M143,100.3l-29.6,47.4l45.4,15.4L143,100.3z"/>
<path class="st0" d="M143,100.3l15.8,62.9l22.1-54.6L143,100.3z"/>
<path class="st4" d="M180.9,108.6l-22.1,54.6l30,11.9L180.9,108.6z"/>
<path class="st0" d="M180.9,108.6l7.9,66.4l54.4-1.8L180.9,108.6z"/>
<path class="st4" d="M180.9,108.6l62.3,64.6l3-99.6L180.9,108.6z"/>
<path class="st1" d="M246.2,73.6l-3,99.6l29.3-0.6L246.2,73.6z"/>
<path class="st5" d="M246.2,73.6l26.3,99l21.4-81.8L246.2,73.6z"/>
<path class="st1" d="M293.8,90.8l-21.4,81.8l46.2-32.6L293.8,90.8z"/>
<path class="st5" d="M293.8,90.8l24.8,49.2l14.3-70L293.8,90.8z"/>
<path class="st4" d="M332.9,70.1l-14.3,70L367,80.2L332.9,70.1z"/>
<path class="st5" d="M367,80.2l-48.4,59.9l55.9,17.8L367,80.2z"/>
<path class="st4" d="M367,80.2l7.5,77.7l44.7-10.7L367,80.2z"/>
<path class="st6" d="M367,80.2l52.2,67l8.3-55.2L367,80.2z"/>
<path class="st5" d="M427.4,92l-8.3,55.2l30.8-59.9L427.4,92z"/>
<path class="st6" d="M449.9,87.3l-30.8,59.9l51.8,23.7L449.9,87.3z"/>
<path class="st4" d="M449.9,87.3l21,83.6l40.9-67L449.9,87.3z"/>
<path class="st1" d="M511.9,103.9l-40.9,67l34.5-12.5L511.9,103.9z"/>
<path class="st3" d="M511.9,103.9l-6.4,54.6l43.2-51.6L511.9,103.9z"/>
<path class="st4" d="M548.6,106.8l-43.2,51.6l56.3-11.3L548.6,106.8z"/>
<path class="st6" d="M548.6,106.8l13.1,40.3l30.4-3L548.6,106.8z"/>
<path class="st4" d="M548.6,106.8l43.5,37.4l12-55.2L548.6,106.8z"/>
<path class="st1" d="M604.2,89.1l-12,55.2l42.4-58.7L604.2,89.1z"/>
<path class="st4" d="M634.6,85.5l-42.4,58.7l43.2,29.7L634.6,85.5z"/>
<path class="st3" d="M634.6,85.5l0.8,88.4l64.2-8.3L634.6,85.5z"/>
<path class="st0" d="M634.6,85.5l64.9,80.1V80.8L634.6,85.5z"/>
<path class="st1" d="M0.8,172.7L0,231.2l42.4,10.2L0.8,172.7z"/>
<path class="st4" d="M0.8,172.7l41.7,68.8l16.1-67.6L0.8,172.7z"/>
<path class="st4" d="M58.6,173.9l-16.1,67.6l61.2,7.7L58.6,173.9z"/>
<path class="st0" d="M58.6,173.9l45,75.3l9.8-101.4L58.6,173.9z"/>
<path class="st7" d="M113.4,147.8l-9.8,101.4l43.9-5.3L113.4,147.8z"/>
<path class="st1" d="M113.4,147.8l34.1,96.1l11.3-80.7L113.4,147.8z"/>
<path class="st4" d="M158.8,163.2l-11.3,80.7l37.9-30.8L158.8,163.2z"/>
<path class="st5" d="M158.8,163.2l26.6,49.8l3.4-38L158.8,163.2z"/>
<path class="st7" d="M188.8,175l-3.4,38l46.2,1.2L188.8,175z"/>
<path class="st5" d="M188.8,175l42.8,39.1l11.6-40.9L188.8,175z"/>
<path class="st4" d="M243.2,173.3l-11.6,40.9l40.9-41.5L243.2,173.3z"/>
<path class="st7" d="M272.5,172.7l-40.9,41.5l59.3,7.1L272.5,172.7z"/>
<path class="st4" d="M272.5,172.7l18.4,48.6l27.8-81.2L272.5,172.7z"/>
<path class="st7" d="M318.6,140.1l-27.8,81.2l36.8,1.2L318.6,140.1z"/>
<path class="st4" d="M318.6,140.1l9,82.4l46.9-64.6L318.6,140.1z"/>
<path class="st5" d="M374.5,157.8l-46.9,64.6l49.5,17.2L374.5,157.8z"/>
<path class="st4" d="M374.5,157.8l2.6,81.8l47.3-5.3L374.5,157.8z"/>
<path class="st7" d="M374.5,157.8l49.9,76.5l-5.3-87.2L374.5,157.8z"/>
<path class="st5" d="M419.2,147.2l5.3,87.2l35.3-7.7L419.2,147.2z"/>
<path class="st5" d="M419.2,147.2l40.5,79.5l11.3-55.7L419.2,147.2z"/>
<path class="st4" d="M471,170.9l-11.3,55.7l57,6.5L471,170.9z"/>
<path class="st5" d="M471,170.9l45.8,62.3l-11.3-74.7L471,170.9z"/>
<path class="st1" d="M505.5,158.4l11.3,74.7l26.3-7.7L505.5,158.4z"/>
<path class="st7" d="M505.5,158.4l37.5,67l18.8-78.3L505.5,158.4z"/>
<path class="st4" d="M561.8,147.2L543,225.5l52.5-15.4L561.8,147.2z"/>
<path class="st3" d="M561.8,147.2l33.8,62.9l-3.4-65.8L561.8,147.2z"/>
<path class="st0" d="M592.2,144.2l3.4,65.8l39.8-36.2L592.2,144.2z"/>
<path class="st4" d="M635.3,173.9L595.5,210l47.3,27.3L635.3,173.9z"/>
<path class="st1" d="M635.3,173.9l7.5,63.5l56.7-71.8L635.3,173.9z"/>
<path class="st3" d="M699.5,165.6l-56.7,71.8l56.7,10.1V165.6z"/>
<path class="st1" d="M0,231.2v64.2l42.4-53.9L0,231.2z"/>
<path class="st2" d="M42.4,241.5L0,295.4l43.9,22L42.4,241.5z"/>
<path class="st1" d="M42.4,241.5l1.5,75.9l57-33.8L42.4,241.5z"/>
<path class="st5" d="M42.4,241.5l58.5,42.1l2.6-34.4L42.4,241.5z"/>
<path class="st5" d="M103.6,249.2l-2.6,34.4l38.6,22.5L103.6,249.2z"/>
<path class="st4" d="M103.6,249.2l36,56.9l7.9-62.3L103.6,249.2z"/>
<path class="st1" d="M147.5,243.8l-7.9,62.3l61.9-16L147.5,243.8z"/>
<path class="st7" d="M147.5,243.8l54,46.3L185.4,213L147.5,243.8z"/>
<path class="st5" d="M185.4,213l16.1,77.1l30-75.9L185.4,213z"/>
<path class="st8" d="M231.6,214.2l-30,75.9l34.5,12.5L231.6,214.2z"/>
<path class="st7" d="M231.6,214.2l4.5,88.4L280,302L231.6,214.2z"/>
<path class="st4" d="M231.6,214.2L280,302l10.9-80.7L231.6,214.2z"/>
<path class="st7" d="M290.8,221.3L280,302l46.2,4.7L290.8,221.3z"/>
<path class="st5" d="M290.8,221.3l35.3,85.4l1.5-84.2L290.8,221.3z"/>
<path class="st7" d="M327.6,222.5l-1.5,84.2l51-67L327.6,222.5z"/>
<path class="st4" d="M377.1,239.7l-51,67l51-1.8V239.7z"/>
<path class="st5" d="M377.1,239.7v65.2l41.7-20.8L377.1,239.7z"/>
<path class="st7" d="M377.1,239.7l41.7,44.5l5.6-49.8L377.1,239.7z"/>
<path class="st7" d="M424.4,234.3l-5.6,49.8l40.9-57.5L424.4,234.3z"/>
<path class="st5" d="M459.7,226.6l-40.9,57.5l53.7,37.4L459.7,226.6z"/>
<path class="st7" d="M459.7,226.6l12.8,94.9l40.9-30.2L459.7,226.6z"/>
<path class="st4" d="M459.7,226.6l53.7,64.6l3.4-58.1L459.7,226.6z"/>
<path class="st7" d="M516.7,233.2l-3.4,58.1l29.6-65.8L516.7,233.2z"/>
<path class="st4" d="M543,225.5l-29.6,65.8l25.9,17.2L543,225.5z"/>
<path class="st5" d="M543,225.5l-3.8,83l60,13L543,225.5z"/>
<path class="st7" d="M543,225.5l56.3,96.1L595.5,210L543,225.5z"/>
<path class="st4" d="M595.5,210l3.8,111.5l33.4-39.1L595.5,210z"/>
<path class="st1" d="M595.5,210l37.1,72.3l10.1-45.1L595.5,210z"/>
<path class="st4" d="M642.8,237.3l-10.1,45.1l66.8,16.6L642.8,237.3z"/>
<path class="st0" d="M642.8,237.3l56.7,61.7v-51.6L642.8,237.3z"/>
<path class="st1" d="M0,295.4v59.7l43.9-37.8L0,295.4z"/>
<path class="st0" d="M43.9,317.4L0,355.1l48.1,34L43.9,317.4z"/>
<path class="st3" d="M43.9,317.4l4.1,71.8l50.3-1.2L43.9,317.4z"/>
<path class="st4" d="M43.9,317.4l54.4,70.6l2.6-104.4L43.9,317.4z"/>
<path class="st0" d="M101,283.6l-2.6,104.4l41.3-81.8L101,283.6z"/>
<path class="st4" d="M139.6,306.1l-41.3,81.8l42.8-1.2L139.6,306.1z"/>
<path class="st6" d="M139.6,306.1l1.5,80.7l38.6,5.9L139.6,306.1z"/>
<path class="st5" d="M139.6,306.1l40.1,86.6l21.8-102.6L139.6,306.1z"/>
<path class="st4" d="M201.5,290.1l-21.8,102.6l67.9-23.7L201.5,290.1z"/>
<path class="st7" d="M201.5,290.1l46.2,78.9l-11.6-66.4L201.5,290.1z"/>
<path class="st4" d="M236.1,302.5l11.6,66.4l32.3-67L236.1,302.5z"/>
<path class="st7" d="M280,302l-32.3,67l42,14.8L280,302z"/>
<path class="st5" d="M280,302l9.8,81.8l36.4-77.1L280,302z"/>
<path class="st7" d="M326.1,306.7l-36.4,77.1l27,4.2L326.1,306.7z"/>
<path class="st4" d="M326.1,306.7l-9.4,81.2l64.9-14.2L326.1,306.7z"/>
<path class="st5" d="M326.1,306.7l55.5,67l-4.5-68.8L326.1,306.7z"/>
<path class="st4" d="M377.1,304.9l4.5,68.8l32.6-19.6L377.1,304.9z"/>
<path class="st7" d="M377.1,304.9l37.1,49.2l4.5-70L377.1,304.9z"/>
<path class="st4" d="M418.8,284.2l-4.5,70l58.2-32.6L418.8,284.2z"/>
<path class="st5" d="M472.5,321.5l-58.2,32.6l38.3,17.8L472.5,321.5z"/>
<path class="st4" d="M472.5,321.5l-19.9,50.4l63.4,13.6L472.5,321.5z"/>
<path class="st1" d="M472.5,321.5l43.5,64l-2.6-94.3L472.5,321.5z"/>
<path class="st5" d="M513.4,291.3l2.6,94.3l23.3-77.1L513.4,291.3z"/>
<path class="st7" d="M539.2,308.5L516,385.6l36-32L539.2,308.5z"/>
<path class="st4" d="M539.2,308.5l12.8,45.1l47.3-32L539.2,308.5z"/>
<path class="st0" d="M599.3,321.5l-47.3,32l56.7,39.1L599.3,321.5z"/>
<path class="st1" d="M599.3,321.5l9.4,71.2l35.6-29.7L599.3,321.5z"/>
<path class="st4" d="M599.3,321.5l45,41.5l-11.6-80.7L599.3,321.5z"/>
<path class="st3" d="M632.7,282.4l11.6,80.7l55.2-64L632.7,282.4z"/>
<path class="st1" d="M699.5,299l-55.2,64l55.2,28.5V299z"/>
<path class="st1" d="M0,355.1v86l48.1-52L0,355.1z"/>
<path class="st3" d="M48.1,389.1L0,441.1l63.1-2.1L48.1,389.1z"/>
<path class="st1" d="M48.1,389.1l15,49.8l35.3-51L48.1,389.1z"/>
<path class="st4" d="M98.4,387.9l-35.3,51l32.6-8.3L98.4,387.9z"/>
<path class="st5" d="M98.4,387.9l-2.6,42.7l45.4-43.9L98.4,387.9z"/>
<path class="st1" d="M141.1,386.8l-45.4,43.9l56.3,19.6L141.1,386.8z"/>
<path class="st4" d="M141.1,386.8l10.9,63.5l27.8-57.5L141.1,386.8z"/>
<path class="st5" d="M179.8,392.7L152,450.2l43.9-24.3L179.8,392.7z"/>
<path class="st5" d="M179.8,392.7l16.1,33.2l51.8-56.9L179.8,392.7z"/>
<path class="st1" d="M247.7,369l-51.8,56.9l35.6,9.5L247.7,369z"/>
<path class="st7" d="M247.7,369l-16.1,66.4l46.9-7.1L247.7,369z"/>
<path class="st1" d="M247.7,369l30.8,59.3l11.3-44.5L247.7,369z"/>
<path class="st4" d="M289.7,383.8l-11.3,44.5l38.3-40.3L289.7,383.8z"/>
<path class="st5" d="M316.7,387.9l-38.3,40.3l55.2,6.5L316.7,387.9z"/>
<path class="st7" d="M316.7,387.9l16.9,46.8l48-61.1L316.7,387.9z"/>
<path class="st5" d="M381.7,373.7l-48,61.1l24.8,8.9L381.7,373.7z"/>
<path class="st4" d="M381.7,373.7l-23.3,70l61.9,0.6L381.7,373.7z"/>
<path class="st5" d="M381.7,373.7l38.6,70.6l-6-90.1L381.7,373.7z"/>
<path class="st4" d="M414.3,354.1l6,90.1l32.3-72.3L414.3,354.1z"/>
<path class="st5" d="M452.6,371.9l-32.3,72.3l47.7,15.4L452.6,371.9z"/>
<path class="st4" d="M452.6,371.9l15.4,87.8l25.9,0.6L452.6,371.9z"/>
<path class="st5" d="M452.6,371.9l41.3,88.4l22.1-74.7L452.6,371.9z"/>
<path class="st1" d="M516,385.6l-22.1,74.7l51.4,3L516,385.6z"/>
<path class="st4" d="M516,385.6l29.3,77.7l6.8-109.7L516,385.6z"/>
<path class="st0" d="M552,353.5l-6.8,109.7l53.3-13.6L552,353.5z"/>
<path class="st1" d="M552,353.5l46.5,96.1l10.1-56.9L552,353.5z"/>
<path class="st0" d="M608.7,392.7l-10.1,56.9l43.2,6.5L608.7,392.7z"/>
<path class="st3" d="M608.7,392.7l33,63.5l2.6-93.1L608.7,392.7z"/>
<path class="st0" d="M644.3,363l-2.6,93.1l57.8-64.6L644.3,363z"/>
<path class="st0" d="M699.5,391.5l-57.8,64.6l57.8-16.2V391.5z"/>
<path class="st3" d="M0,441.1v86.8l45.4-18.4L0,441.1z"/>
<path class="st1" d="M0,441.1l45.4,68.4l17.6-70.6L0,441.1z"/>
<path class="st5" d="M63.1,438.9l-17.6,70.6l47.7-7.1L63.1,438.9z"/>
<path class="st1" d="M63.1,438.9l30,63.5l2.6-71.8L63.1,438.9z"/>
<path class="st4" d="M95.7,430.6l-2.6,71.8l58.9-52.2L95.7,430.6z"/>
<path class="st1" d="M152,450.2l-58.9,52.2l51.8,8.9L152,450.2z"/>
<path class="st4" d="M152,450.2l-7.1,61.1l42.8-4.7L152,450.2z"/>
<path class="st1" d="M152,450.2l35.6,56.3l8.3-80.7L152,450.2z"/>
<path class="st5" d="M195.9,425.9l-8.3,80.7l43.9-71.2L195.9,425.9z"/>
<path class="st4" d="M231.6,435.4l-43.9,71.2l49.9-7.7L231.6,435.4z"/>
<path class="st5" d="M231.6,435.4l6,63.5l40.9-70.6L231.6,435.4z"/>
<path class="st4" d="M278.5,428.3l-40.9,70.6l52.5,5.9L278.5,428.3z"/>
<path class="st1" d="M278.5,428.3l11.6,76.5l43.5-70L278.5,428.3z"/>
<path class="st4" d="M333.6,434.8l-43.5,70l46.5,23.1L333.6,434.8z"/>
<path class="st5" d="M333.6,434.8l3,93.1l21.8-84.2L333.6,434.8z"/>
<path class="st4" d="M358.4,443.7l-21.8,84.2l33.4-29.1L358.4,443.7z"/>
<path class="st5" d="M358.4,443.7l11.6,55.2l50.3-54.6L358.4,443.7z"/>
<path class="st4" d="M420.3,444.3L370,498.8l40.1,30.8L420.3,444.3z"/>
<path class="st5" d="M420.3,444.3l-10.1,85.4l51-23.1L420.3,444.3z"/>
<path class="st1" d="M420.3,444.3l40.9,62.3l6.8-46.8L420.3,444.3z"/>
<path class="st1" d="M468,459.7l-6.8,46.8l32.6-46.3L468,459.7z"/>
<path class="st0" d="M493.8,460.3l-32.6,46.3l42-6.5L493.8,460.3z"/>
<path class="st3" d="M493.8,460.3l9.4,39.7l42-36.8L493.8,460.3z"/>
<path class="st1" d="M545.3,463.3l-42,36.8l54.4,23.7L545.3,463.3z"/>
<path class="st0" d="M545.3,463.3l12.4,60.5l25.9-16.6L545.3,463.3z"/>
<path class="st1" d="M545.3,463.3l38.3,43.9l15-57.5L545.3,463.3z"/>
<path class="st0" d="M598.5,449.6l-15,57.5l48.4-13L598.5,449.6z"/>
<path class="st1" d="M598.5,449.6l33.4,44.5l9.8-38L598.5,449.6z"/>
<path class="st3" d="M641.7,456.1l-9.8,38l67.6,17.9L641.7,456.1z"/>
<path class="st1" d="M641.7,456.1l57.8,55.8v-72L641.7,456.1z"/>
<path class="st9" d="M0,527.9v63.3l66.4-5.2L0,527.9z"/>
<path class="st1" d="M0,527.9L66.5,586l-21-76.5L0,527.9z"/>
<path class="st4" d="M45.4,509.5l21,76.5l26.6-83.6L45.4,509.5z"/>
<path class="st1" d="M93.1,502.4L66.5,586L92,604.4L93.1,502.4z"/>
<path class="st6" d="M93.1,502.4l-1.1,102l56.7-24.9L93.1,502.4z"/>
<path class="st3" d="M93.1,502.4l55.5,77.1l-3.8-68.2L93.1,502.4z"/>
<path class="st1" d="M144.9,511.3l3.8,68.2l39-72.9L144.9,511.3z"/>
<path class="st6" d="M187.7,506.6l-39,72.9l50.7-9.5L187.7,506.6z"/>
<path class="st4" d="M187.7,506.6l11.6,63.5l38.3-71.2L187.7,506.6z"/>
<path class="st1" d="M237.6,498.8L199.3,570l27.8,9.5L237.6,498.8z"/>
<path class="st6" d="M237.6,498.8l-10.5,80.7l47.7,26.7L237.6,498.8z"/>
<path class="st1" d="M237.6,498.8l37.1,107.3l15.4-101.4L237.6,498.8z"/>
<path class="st3" d="M290.1,504.8l-15.4,101.4l42-5.9L290.1,504.8z"/>
<path class="st1" d="M290.1,504.8l26.6,95.5l19.9-72.3L290.1,504.8z"/>
<path class="st4" d="M336.6,527.9l-19.9,72.3l41.7-11.9L336.6,527.9z"/>
<path class="st1" d="M336.6,527.9l21.8,60.5l11.6-89.5L336.6,527.9z"/>
<path class="st5" d="M370,498.8l-11.6,89.5l51.8-58.7L370,498.8z"/>
<path class="st1" d="M410.2,529.7l-51.8,58.7l53.7-17.8L410.2,529.7z"/>
<path class="st0" d="M410.2,529.7l1.9,40.9l49.2-64L410.2,529.7z"/>
<path class="st1" d="M461.2,506.6l-49.2,64l60.4,1.8L461.2,506.6z"/>
<path class="st4" d="M461.2,506.6l11.3,65.8l30.8-72.3L461.2,506.6z"/>
<path class="st1" d="M503.2,500l-30.8,72.3l25.9,4.2L503.2,500z"/>
<path class="st0" d="M503.2,500l-4.9,76.5l59.3-52.8L503.2,500z"/>
<path class="st1" d="M557.6,523.7l-59.3,52.8l55.2,16L557.6,523.7z"/>
<path class="st3" d="M557.6,523.7l-4.1,68.8l39.8-1.8L557.6,523.7z"/>
<path class="st0" d="M557.6,523.7l35.6,67l-9.8-83.6L557.6,523.7z"/>
<path class="st3" d="M583.5,507.1l9.8,83.6l44.3-18.4L583.5,507.1z"/>
<path class="st1" d="M583.5,507.1l54,65.2l-5.6-78.3L583.5,507.1z"/>
<path class="st0" d="M631.9,494.1l5.6,78.3l61.9-60.4L631.9,494.1z"/>
<path class="st3" d="M699.5,512l-61.9,60.4l61.9,10.8V512z"/>
<path class="st3" d="M0,591.2v84.4h56.7L0,591.2z"/>
<path class="st1" d="M0,591.2l56.7,84.4l9.8-89.6L0,591.2z"/>
<path class="st4" d="M66.5,586l-9.8,89.6L92,604.4L66.5,586z"/>
<path class="st3" d="M92,604.4l-35.3,71.3l46.9-23.2L92,604.4z"/>
<path class="st1" d="M92,604.4l11.6,48l45-72.9L92,604.4z"/>
<path class="st1" d="M148.6,579.5l-45,72.9l42.4-2.4L148.6,579.5z"/>
<path class="st0" d="M148.6,579.5l-2.6,70.6l35.5,25.6L148.6,579.5z"/>
<path class="st1" d="M148.6,579.5l32.9,96.2L199.3,570L148.6,579.5z"/>
<path class="st6" d="M199.3,570l-17.8,105.6l59.4-25.6L199.3,570z"/>
<path class="st1" d="M199.3,570l41.7,80.1l-13.9-70.6L199.3,570z"/>
<path class="st4" d="M227.1,579.5l13.9,70.6l33.8-43.9L227.1,579.5z"/>
<path class="st0" d="M274.7,606.2l-33.8,43.9l49.2,25.6L274.7,606.2z"/>
<path class="st4" d="M274.7,606.2l15.4,69.5l26.6-75.4L274.7,606.2z"/>
<path class="st1" d="M316.7,600.2l-26.6,75.4l31.5-26.8L316.7,600.2z"/>
<path class="st4" d="M316.7,600.2l4.9,48.6l36.8-60.5L316.7,600.2z"/>
<path class="st0" d="M358.4,588.4l-36.8,60.5l60.4,26.8L358.4,588.4z"/>
<path class="st1" d="M358.4,588.4l23.6,87.3l24.8-32.1L358.4,588.4z"/>
<path class="st0" d="M358.4,588.4l48.4,55.2l5.3-72.9L358.4,588.4z"/>
<path class="st4" d="M412,570.6l-5.3,72.9l65.7-71.2L412,570.6z"/>
<path class="st0" d="M472.5,572.4l-65.7,71.2l61.2,32.1L472.5,572.4z"/>
<path class="st4" d="M472.5,572.4L468,675.7l27-19.7L472.5,572.4z"/>
<path class="st0" d="M472.5,572.4L495,656l3.4-79.5L472.5,572.4z"/>
<path class="st3" d="M498.3,576.5L495,656l58.5-63.5L498.3,576.5z"/>
<path class="st1" d="M553.5,592.5L495,656l69.4,19.7L553.5,592.5z"/>
<path class="st3" d="M553.5,592.5l10.9,83.1l30.8-25.6L553.5,592.5z"/>
<path class="st0" d="M553.5,592.5l41.7,57.5l-1.9-59.3L553.5,592.5z"/>
<path class="st3" d="M593.3,590.8l1.9,59.3l42,2.4L593.3,590.8z"/>
<path class="st0" d="M593.3,590.8l43.9,61.7l0.4-80.1L593.3,590.8z"/>
<path class="st1" d="M637.6,572.4l-0.4,80.1l62.3-69.2L637.6,572.4z"/>
<path class="st3" d="M699.5,583.2l-62.3,69.2l62.3,23.2V583.2z"/>
<path class="st3" d="M56.7,675.7h124.8l-77.9-23.2L56.7,675.7z"/>
<path class="st4" d="M103.6,652.4l77.9,23.2L146,650.1L103.6,652.4z"/>
<path class="st1" d="M181.5,675.7h108.6l-49.2-25.6L181.5,675.7z"/>
<path class="st1" d="M290.1,675.7H382l-60.4-26.8L290.1,675.7z"/>
<path class="st4" d="M382,675.7H468l-61.2-32.1L382,675.7z"/>
<path class="st3" d="M468,675.7h96.4L495,656L468,675.7z"/>
<path class="st0" d="M564.4,675.7h135.1l-62.3-23.2L564.4,675.7z"/>
<path class="st1" d="M564.4,675.7l72.8-23.2l-42-2.4L564.4,675.7z"/>
</svg>
