<?xml version="1.0" encoding="utf-8"?>
<!-- Generator: Adobe Illustrator 26.2.1, SVG Export Plug-In . SVG Version: 6.00 Build 0)  -->
<svg version="1.1" id="Layer_1" xmlns="http://www.w3.org/2000/svg" xmlns:xlink="http://www.w3.org/1999/xlink" x="0px" y="0px"
	 width="894.3px" height="626.6px" viewBox="0 0 894.3 626.6" style="enable-background:new 0 0 894.3 626.6;" xml:space="preserve"
	>
<style type="text/css">
	.st0{fill:#3957B2;}
	.st1{fill:#283F82;}
	.st2{fill:#1D3063;}
	.st3{fill:#142042;}
	.st4{fill:#3554B0;}
	.st5{fill:#5D76C0;}
	.st6{fill:#AEBBDF;}
	.st7{fill:#8698D0;}
	.st8{fill:#4F6ABA;}
	.st9{fill:#768BC9;}
	.st10{fill:#FFB300;}
	.st11{fill:#FF9800;}
	.st12{fill:#FFCE00;}
	.st13{fill:#FF7D00;}
	.st14{fill:#FF6200;}
</style>
<g>
	<g>
		<polygon class="st0" points="85.7,42.3 39.6,91.8 104.2,120.8 		"/>
		<polygon class="st1" points="94.6,168.1 39.6,91.8 104.2,120.8 		"/>
		<polygon class="st2" points="94.6,168.1 39.6,91.8 68.3,158.2 		"/>
		<polygon class="st3" points="33,94.5 39.6,91.8 68.3,158.2 		"/>
		<polygon class="st1" points="85.7,42.3 2.9,0.8 39.6,91.8 		"/>
		<polygon class="st2" points="33,94.5 2.9,0.8 39.6,91.8 		"/>
		<polygon class="st2" points="85.7,42.3 155.6,96.4 104.2,120.8 		"/>
		<polygon class="st1" points="328.6,254.6 155.6,96.4 104.2,120.8 		"/>
		<polygon class="st4" points="328.6,254.6 155.6,96.4 375.4,185.8 		"/>
		<polygon class="st5" points="157,44.1 155.6,96.4 375.4,185.8 		"/>
		<polygon class="st6" points="157,44.1 395,132.8 375.4,185.8 		"/>
		<polygon class="st7" points="157,44.1 395,132.8 185,30.1 		"/>
		<polygon class="st2" points="328.6,254.6 273.5,317.3 104.2,120.8 		"/>
		<polygon class="st3" points="94.6,168.1 273.5,317.3 104.2,120.8 		"/>
		<polygon class="st2" points="94.6,168.1 273.5,317.3 233.2,344.8 		"/>
		<polygon class="st3" points="94.6,168.1 68.3,158.2 233.2,344.8 		"/>
		<polygon class="st4" points="85.7,42.3 155.6,96.4 157,44.1 		"/>
		<polygon class="st5" points="85.7,42.3 105.2,5.3 157,44.1 		"/>
		<polygon class="st6" points="185,30.1 105.2,5.3 157,44.1 		"/>
		<polygon class="st7" points="85.7,42.3 105.2,5.3 2.9,0.8 		"/>
		<g>
			<polygon class="st4" points="426.1,218.2 465.1,240.7 497.5,196.6 			"/>
			<polygon class="st2" points="493.6,265.6 465.1,240.7 544.2,252.2 			"/>
			<polygon class="st4" points="493.6,265.6 522.3,280.6 544.2,252.2 			"/>
			<polygon class="st4" points="559.1,295.5 522.3,280.6 544.2,252.2 			"/>
			<polygon class="st5" points="559.1,295.5 590.1,223.9 544.2,252.2 			"/>
			<polygon class="st4" points="559.1,295.5 590.1,223.9 598.1,281.5 			"/>
			<polygon class="st1" points="664.6,279.5 590.1,223.9 598.1,281.5 			"/>
			<polygon class="st0" points="664.6,279.5 653.1,305.3 598.1,281.5 			"/>
			<polygon class="st2" points="664.6,279.5 653.1,305.3 705.7,353.8 			"/>
			<polygon class="st8" points="497.5,196.6 465.1,240.7 544.2,252.2 			"/>
			<polygon class="st7" points="497.5,196.6 590.1,223.9 544.2,252.2 			"/>
		</g>
		<polygon class="st5" points="375.4,185.8 328.6,254.6 502.1,334.8 		"/>
		<polygon class="st4" points="375.4,185.8 528.6,257.3 502.1,334.8 		"/>
		<polygon class="st7" points="375.4,185.8 528.6,257.3 395,132.8 		"/>
		<polygon class="st4" points="453.3,398.6 328.6,254.6 502.1,334.8 		"/>
		<polygon class="st5" points="453.3,398.6 552.8,427.4 502.1,334.8 		"/>
		<polygon class="st4" points="589.6,359 552.8,427.4 502.1,334.8 		"/>
		<polygon class="st5" points="589.6,359 552.8,427.4 567.6,437.5 601.9,374.8 		"/>
		<polygon class="st2" points="486.1,447.6 552.8,427.4 567.6,437.5 488,464 		"/>
		<polygon class="st9" points="601.9,362.4 528.6,257.3 502.1,334.8 		"/>
		<polygon class="st3" points="453.3,398.6 552.8,427.4 486.1,447.6 421.5,424.1 		"/>
		<polygon class="st1" points="453.3,398.6 552.8,427.4 486.1,447.6 		"/>
		<polygon class="st1" points="453.3,398.6 328.6,254.6 273.5,317.3 		"/>
		<polygon class="st2" points="453.3,398.6 421.5,424.1 273.5,317.3 		"/>
		<polygon class="st3" points="233.2,344.8 421.5,424.1 273.5,317.3 		"/>
		<g>
			<polygon class="st4" points="343.6,367.9 387.9,391.6 391,479 			"/>
			<polygon class="st4" points="424.9,400 387.9,391.6 459.4,476.6 			"/>
			<polygon class="st5" points="424.9,400 456.6,419.1 459.4,476.6 			"/>
			<polygon class="st4" points="494.8,434.6 456.6,419.1 459.4,476.6 			"/>
			<polygon class="st5" points="494.8,434.6 482.1,563.4 459.4,476.6 			"/>
			<polygon class="st1" points="494.8,434.6 482.1,563.4 519.7,511.4 			"/>
			<polygon class="st4" points="573.6,595.4 482.1,563.4 519.7,511.4 			"/>
			<polygon class="st5" points="573.6,595.4 577.9,553.4 519.7,511.4 			"/>
			<polyline class="st1" points="573.6,595.4 577.9,553.4 647.4,566.1 			"/>
			<polygon class="st5" points="391,479 387.9,391.6 459.4,476.6 			"/>
			<polygon class="st4" points="391,479 482.1,563.4 459.4,476.6 			"/>
			<polygon class="st1" points="343.6,367.9 340,372.9 391,479 			"/>
		</g>
		<g>
			<polygon class="st3" points="444.7,250.3 586.1,349.1 577.4,289 			"/>
			<polygon class="st2" points="444.7,250.3 586.1,349.1 508.6,329.6 			"/>
			<polygon class="st1" points="569.2,380.4 586.1,349.1 508.6,329.6 			"/>
			<polygon class="st2" points="569.2,380.4 586.1,349.1 651.7,396.5 			"/>
			<polygon class="st4" points="673.5,391.6 586.1,349.1 651.7,396.5 			"/>
			<polygon class="st5" points="673.5,391.6 737.1,443.2 651.7,396.5 			"/>
			<polygon class="st1" points="673.5,391.6 737.1,443.2 686.8,363.2 			"/>
			<polygon class="st4" points="673.5,391.6 577.4,289 686.8,363.2 			"/>
			<polygon class="st1" points="673.5,391.6 577.4,289 586.1,349.1 			"/>
		</g>
	</g>
	<g>
		<polygon class="st10" points="634,438.4 690.9,457.5 686.8,463.4 		"/>
		<polygon class="st11" points="720.3,472 690.9,457.5 686.8,463.4 		"/>
		<polygon class="st12" points="720.3,472 690.9,457.5 735.9,455.2 		"/>
		<polygon class="st10" points="720.3,472 765.3,476.7 735.9,455.2 		"/>
		<polygon class="st13" points="720.3,472 765.3,476.7 757.2,485.2 		"/>
		<polygon class="st14" points="796.5,489.2 765.3,476.7 757.2,485.2 		"/>
		<polygon class="st11" points="796.5,489.2 794.5,504.5 757.2,485.2 		"/>
		<polygon class="st13" points="796.5,489.2 794.5,504.5 807.5,514.7 		"/>
		<polygon class="st12" points="634,438.4 668.1,472.6 686.8,463.4 		"/>
		<polygon class="st10" points="698.4,482 668.1,472.6 686.8,463.4 		"/>
		<polygon class="st12" points="698.4,482 721.6,472.4 686.8,463.4 		"/>
		<polygon class="st10" points="698.4,482 721.6,472.4 740,495.6 		"/>
		<polygon class="st11" points="757.2,485.2 721.6,472.4 740,495.6 		"/>
		<polygon class="st12" points="698.4,482 668.1,472.6 687.8,486.9 		"/>
		<polygon class="st10" points="698.4,482 721.5,505.7 687.8,486.9 		"/>
		<polygon class="st12" points="698.4,482 721.5,505.7 740,495.6 		"/>
		<polygon class="st10" points="750.6,510.9 721.5,505.7 740,495.6 		"/>
		<polygon class="st11" points="750.6,510.9 775.3,510.2 740,495.6 		"/>
		<polygon class="st13" points="757.2,485.2 775.3,510.2 740,495.6 		"/>
		<polygon class="st10" points="750.6,510.9 775.3,510.2 770.4,524.6 		"/>
		<polygon class="st11" points="805.9,523.5 775.3,510.2 770.4,524.6 		"/>
		<polygon class="st13" points="805.9,523.5 775.3,510.2 794.5,504.5 		"/>
		<polygon class="st11" points="757.2,485.2 775.3,510.2 794.5,504.5 		"/>
		<polygon class="st14" points="805.9,523.5 807.5,514.7 794.5,504.5 		"/>
		<polygon class="st13" points="805.9,523.5 815.5,537.1 770.4,524.6 		"/>
		<polygon class="st14" points="805.9,523.5 815.5,537.1 825.1,536.7 		"/>
		<polygon class="st13" points="805.9,523.5 807.5,514.7 825.1,536.7 		"/>
		<polygon class="st13" points="855.5,559.3 815.5,537.1 825.1,536.7 		"/>
		<polygon class="st14" points="855.5,559.3 815.5,537.1 770.4,524.6 		"/>
		<g>
			<polygon class="st10" points="581.8,431.9 632.2,452.6 639,471.2 			"/>
		</g>
		<polygon class="st12" points="678.4,496.7 632.2,452.6 639,471.2 		"/>
		<g>
			<polygon class="st11" points="678.4,496.7 632.2,452.6 685.9,489.5 			"/>
		</g>
		<polygon class="st10" points="678.4,496.7 736,500.8 685.9,489.5 		"/>
		<polygon class="st11" points="678.4,496.7 736,500.8 725.1,511.4 		"/>
		<polygon class="st13" points="774.1,525.8 736,500.8 725.1,511.4 		"/>
		<polygon class="st11" points="774.1,525.8 772.3,541.9 725.1,511.4 		"/>
		<polygon class="st13" points="774.1,525.8 772.3,541.9 810.1,543.5 		"/>
		<g>
			<polygon class="st12" points="581.8,431.9 600.3,453.2 639,471.2 			"/>
		</g>
		<g>
			<polygon class="st10" points="606.3,479.9 600.3,453.2 639,471.2 			"/>
		</g>
		<g>
			<polygon class="st11" points="606.3,479.9 600.3,453.2 591.2,472.8 			"/>
		</g>
		<g>
			<polygon class="st12" points="589.5,447.7 600.3,453.2 591.2,472.8 			"/>
		</g>
		<g>
			<polygon class="st10" points="589.5,447.7 600.3,453.2 581.8,431.9 			"/>
		</g>
		<polygon class="st10" points="606.3,479.9 625.6,515.7 591.2,472.8 		"/>
		<g>
			<polygon class="st11" points="642.8,512.1 606.3,479.9 639,471.2 			"/>
		</g>
		<g>
			<polygon class="st10" points="642.8,512.1 680.1,497.3 639,471.2 			"/>
		</g>
		<polygon class="st12" points="642.8,512.1 680.1,497.3 695.6,530.5 		"/>
		<polygon class="st10" points="725.1,511.4 680.1,497.3 695.6,530.5 		"/>
		<polygon class="st12" points="642.8,512.1 606.3,479.9 625.6,515.7 		"/>
		<polygon class="st11" points="642.8,512.1 651.7,539.4 625.6,515.7 		"/>
		<polygon class="st10" points="642.8,512.1 651.7,539.4 695.6,530.5 		"/>
		<polygon class="st11" points="706,549 651.7,539.4 695.6,530.5 		"/>
		<polygon class="st10" points="706,549 742.5,550.7 695.6,530.5 		"/>
		<polygon class="st13" points="725.1,511.4 742.5,550.7 695.6,530.5 		"/>
		<polygon class="st11" points="706,549 742.5,550.7 759.5,588.7 		"/>
		<polygon class="st10" points="781.7,569.3 742.5,550.7 759.5,588.7 		"/>
		<polygon class="st11" points="781.7,569.3 742.5,550.7 772.3,541.9 		"/>
		<polygon class="st10" points="725.1,511.4 742.5,550.7 772.3,541.9 		"/>
		<polygon class="st13" points="781.7,569.3 810.1,543.5 772.3,541.9 		"/>
		<polygon class="st13" points="781.7,569.3 793.8,589.4 759.5,588.7 		"/>
		<polygon class="st14" points="781.7,569.3 793.8,589.4 811.6,587 		"/>
		<polygon class="st11" points="781.7,569.3 810.1,543.5 811.6,587 		"/>
		<polygon class="st13" points="891.4,625.8 793.8,589.4 811.6,587 		"/>
		<polygon class="st14" points="891.4,625.8 832.2,581 811.6,587 		"/>
		<polygon class="st13" points="810.1,543.5 832.2,581 811.6,587 		"/>
	</g>
</g>
</svg>
