<?xml version="1.0" encoding="utf-8"?>
<!-- Generator: Adobe Illustrator 26.4.1, SVG Export Plug-In . SVG Version: 6.00 Build 0)  -->
<svg version="1.1" id="Layer_1" xmlns="http://www.w3.org/2000/svg" xmlns:xlink="http://www.w3.org/1999/xlink" x="0px" y="0px"
	 width="386.1px" height="575.5px" viewBox="0 0 386.1 575.5" style="enable-background:new 0 0 386.1 575.5;" xml:space="preserve"
	>
<style type="text/css">
	.st0{fill:#283F82;}
	.st1{fill:#1D3063;}
	.st2{fill:#142042;}
	.st3{fill:#3554B0;}
	.st4{fill:#5D76C0;}
	.st5{fill:#8698D0;}
	.st6{fill:#AEBBDF;}
	.st7{fill:#F3F7FF;}
	.st8{fill:#DCE6FF;}
	.st9{fill:#E6EEFF;}
</style>
<polygon class="st0" points="16.1,25.4 150.1,25.4 56.5,0 "/>
<polygon class="st1" points="56.5,0 23.3,0 16.1,25.4 "/>
<polygon class="st2" points="23.3,0 0,23.2 16.1,25.4 "/>
<polygon class="st0" points="0,23.2 0,130.4 16.1,25.4 "/>
<polygon class="st3" points="0,130.4 16.1,200.2 16.1,25.4 "/>
<polygon class="st1" points="0,130.4 0,264.5 16.1,200.2 "/>
<polygon class="st3" points="16.1,200.2 16.1,334.2 0,264.5 "/>
<polygon class="st0" points="0,264.5 0,382.5 16.1,328.8 "/>
<polygon class="st2" points="16.1,328.8 16.1,457.5 0,377.1 "/>
<polygon class="st1" points="0,377.1 0,548.7 16.1,457.5 "/>
<polygon class="st3" points="16.1,457.5 16.1,551.9 0,548.7 "/>
<polygon class="st2" points="0,548.7 16.1,575.5 16.1,551.9 "/>
<polygon class="st4" points="386.1,23.2 386.1,130.4 370,25.4 "/>
<polygon class="st3" points="386.1,130.4 370,200.2 370,25.4 "/>
<polygon class="st5" points="386.1,130.4 386.1,264.5 370,200.2 "/>
<polygon class="st0" points="370,200.2 370,334.2 386.1,264.5 "/>
<polygon class="st5" points="386.1,264.5 386.1,382.5 370,328.8 "/>
<polygon class="st3" points="370,328.8 370,457.5 386.1,377.1 "/>
<polygon class="st0" points="386.1,377.1 386.1,548.7 370,457.5 "/>
<polygon class="st0" points="370,457.5 370,551.9 386.1,548.7 "/>
<polygon class="st3" points="386.1,548.7 370,575.5 370,551.9 "/>
<polygon class="st3" points="56.5,0 203.8,0 150.1,25.4 "/>
<polygon class="st0" points="203.8,0 268.1,25.4 150.1,25.4 "/>
<polygon class="st4" points="203.8,0 203.8,0 337.4,0 268.1,25.4 "/>
<polygon class="st3" points="268.1,25.4 370,25.4 337.4,0 "/>
<polygon class="st6" points="337.4,0 370,1.8 386.1,23.2 "/>
<polygon class="st5" points="337.4,0 386.1,23.2 370,25.4 "/>
<polygon class="st0" points="370,575.5 321.7,543.3 370,551.9 "/>
<polygon class="st0" points="252,551.9 139.4,575.5 278.8,575.5 "/>
<polygon class="st1" points="252,551.9 150.1,551.9 139.4,575.5 "/>
<polygon class="st2" points="139.4,575.5 16.1,575.5 64.3,543.3 "/>
<polygon class="st0" points="64.3,543.3 16.1,551.9 16.1,575.5 "/>
<polygon class="st3" points="64.3,543.3 16.2,551.9 150.1,551.9 "/>
<polygon class="st0" points="64.3,543.3 139.4,575.5 150.1,551.9 "/>
<polygon class="st3" points="278.8,575.5 370,575.5 321.7,543.3 "/>
<polygon class="st3" points="278.8,575.5 252,551.9 321.7,543.3 "/>
<polygon class="st4" points="370,551.9 321.7,575.5 252,551.9 "/>
<polygon class="st7" points="16.1,25.4 370,25.4 16.2,551.9 "/>
<polygon class="st8" points="370,551.9 203.8,272.7 16.2,551.9 "/>
<polygon class="st9" points="203.8,272.7 370,25.4 370,551.9 "/>
</svg>
